<svg width="24" height="24" viewBox="0 0 24 24" fill="none" xmlns="http://www.w3.org/2000/svg">
<path d="M5.25 19C5.25 19.4142 5.58579 19.75 6 19.75C6.41421 19.75 6.75 19.4142 6.75 19L6.75 5C6.75 4.58579 6.41421 4.25 6 4.25C5.58579 4.25 5.25 4.58579 5.25 5L5.25 19Z" fill="black"/>
<path d="M9.25 19C9.25 19.4142 9.58579 19.75 10 19.75C10.4142 19.75 10.75 19.4142 10.75 19V13C10.75 12.5858 10.4142 12.25 10 12.25C9.58579 12.25 9.25 12.5858 9.25 13V19Z" fill="black"/>
<path d="M13.25 19C13.25 19.4142 13.5858 19.75 14 19.75C14.4142 19.75 14.75 19.4142 14.75 19L14.75 5C14.75 4.58579 14.4142 4.25 14 4.25C13.5858 4.25 13.25 4.58579 13.25 5L13.25 19Z" fill="black"/>
<path d="M17.25 19C17.25 19.4142 17.5858 19.75 18 19.75C18.4142 19.75 18.75 19.4142 18.75 19V13C18.75 12.5858 18.4142 12.25 18 12.25C17.5858 12.25 17.25 12.5858 17.25 13V19Z" fill="black"/>
</svg>
