<svg width="24" height="24" viewBox="0 0 24 24" fill="none" xmlns="http://www.w3.org/2000/svg">
<path d="M12.0003 0.364258C8.84011 0.364258 8.44352 0.378076 7.20235 0.434561C5.9636 0.491288 5.11805 0.687409 4.37819 0.975167C3.61288 1.27238 2.96369 1.66995 2.31692 2.31699C1.66967 2.96377 1.2721 3.61298 0.973929 4.37808C0.685453 5.1182 0.489096 5.96402 0.43334 7.20232C0.377826 8.44353 0.363281 8.84038 0.363281 12.0006C0.363281 15.1609 0.377342 15.5563 0.433582 16.7975C0.49055 18.0363 0.686666 18.8818 0.974172 19.6217C1.27162 20.387 1.66918 21.0363 2.31619 21.683C2.96272 22.3303 3.61191 22.7289 4.37674 23.0261C5.11708 23.3138 5.96287 23.51 7.20138 23.5667C8.44255 23.6232 8.8389 23.637 11.9988 23.637C15.1592 23.637 15.5546 23.6232 16.7958 23.5667C18.0345 23.51 18.881 23.3138 19.6214 23.0261C20.3864 22.7289 21.0347 22.3303 21.6812 21.683C22.3284 21.0363 22.726 20.387 23.0242 19.622C23.3102 18.8818 23.5066 18.036 23.5648 16.7977C23.6205 15.5565 23.6351 15.1609 23.6351 12.0006C23.6351 8.84038 23.6205 8.44377 23.5648 7.20256C23.5066 5.96377 23.3102 5.1182 23.0242 4.37832C22.726 3.61298 22.3284 2.96377 21.6812 2.31699C21.0339 1.66971 20.3867 1.27214 19.6206 0.975167C18.8788 0.687409 18.0328 0.491288 16.7941 0.434561C15.5529 0.378076 15.1577 0.364258 11.9966 0.364258H12.0003ZM10.9564 2.46123C11.2662 2.46074 11.6119 2.46123 12.0003 2.46123C15.1071 2.46123 15.4753 2.47238 16.7022 2.52814C17.8367 2.58002 18.4524 2.76959 18.8626 2.92886C19.4056 3.13977 19.7928 3.39189 20.1998 3.79917C20.607 4.20644 20.8591 4.59432 21.0705 5.13735C21.2298 5.54705 21.4196 6.1628 21.4712 7.29735C21.527 8.52401 21.5391 8.8925 21.5391 11.998C21.5391 15.1034 21.527 15.4719 21.4712 16.6986C21.4194 17.8331 21.2298 18.4489 21.0705 18.8586C20.8596 19.4016 20.607 19.7883 20.1998 20.1953C19.7925 20.6026 19.4059 20.8547 18.8626 21.0656C18.4529 21.2256 17.8367 21.4147 16.7022 21.4666C15.4756 21.5223 15.1071 21.5344 12.0003 21.5344C8.8932 21.5344 8.52497 21.5223 7.29834 21.4666C6.16383 21.4142 5.54809 21.2246 5.13768 21.0653C4.59467 20.8544 4.2068 20.6023 3.79954 20.195C3.39228 19.7878 3.14017 19.4009 2.92878 18.8576C2.76951 18.4479 2.5797 17.8321 2.52806 16.6976C2.47231 15.4709 2.46116 15.1024 2.46116 11.995C2.46116 8.88765 2.47231 8.52111 2.52806 7.29444C2.57994 6.15989 2.76951 5.54414 2.92878 5.13395C3.13968 4.59092 3.39228 4.20305 3.79954 3.79577C4.2068 3.3885 4.59467 3.13638 5.13768 2.92498C5.54785 2.76498 6.16383 2.57589 7.29834 2.52377C8.37177 2.47529 8.78775 2.46074 10.9564 2.45832V2.46123ZM18.2115 4.39335C17.4406 4.39335 16.8151 5.01808 16.8151 5.78923C16.8151 6.56014 17.4406 7.18559 18.2115 7.18559C18.9824 7.18559 19.6078 6.56014 19.6078 5.78923C19.6078 5.01832 18.9824 4.39286 18.2115 4.39286V4.39335ZM12.0003 6.02486C8.70024 6.02486 6.02469 8.7005 6.02469 12.0006C6.02469 15.3007 8.70024 17.9752 12.0003 17.9752C15.3003 17.9752 17.9749 15.3007 17.9749 12.0006C17.9749 8.7005 15.3 6.02486 12 6.02486H12.0003ZM12.0003 8.12183C14.1423 8.12183 15.8789 9.85832 15.8789 12.0006C15.8789 14.1427 14.1423 15.8794 12.0003 15.8794C9.85802 15.8794 8.12159 14.1427 8.12159 12.0006C8.12159 9.85832 9.85802 8.12183 12.0003 8.12183Z" fill="white"/>
</svg>
