<svg width="24" height="24" viewBox="0 0 24 24" fill="none" xmlns="http://www.w3.org/2000/svg">
<path d="M3.18224 5.93773C4.71538 5.93773 5.95824 4.69487 5.95824 3.16173C5.95824 1.6286 4.71538 0.385742 3.18224 0.385742C1.6491 0.385742 0.40625 1.6286 0.40625 3.16173C0.40625 4.69487 1.6491 5.93773 3.18224 5.93773Z" fill="white"/>
<path d="M8.50057 7.98927H13.1013V10.0969C13.1013 10.0969 14.3498 7.59995 17.7466 7.59995C20.7768 7.59995 23.287 9.09269 23.287 13.6427V23.2373H18.5194V14.8053C18.5194 12.1212 17.0864 11.826 15.9945 11.826C13.7283 11.826 13.3404 13.7807 13.3404 15.1554V23.2373H8.50057V7.98927Z" fill="white"/>
<path d="M0.762341 7.98927H5.60215V23.2373H0.762341V7.98927Z" fill="white"/>
</svg>
