<?xml version="1.0" standalone="no"?>
<!DOCTYPE svg PUBLIC "-//W3C//DTD SVG 1.1//EN" "http://www.w3.org/Graphics/SVG/1.1/DTD/svg11.dtd" >
<svg xmlns="http://www.w3.org/2000/svg" xmlns:xlink="http://www.w3.org/1999/xlink" version="1.1">
<metadata>
Created by FontForge 20200427 at Mon Jul  3 03:26:44 2017
 By www
Copyright (c) 2017 by The Refinery LLC. All rights reserved.
</metadata>
<defs>
<font id="ClarikaGeometric-Regular" horiz-adv-x="554" >
  <font-face 
    font-family="Clarika Geometric"
    font-weight="400"
    font-stretch="normal"
    units-per-em="1000"
    panose-1="0 0 5 0 0 0 0 0 0 0"
    ascent="800"
    descent="-200"
    x-height="450"
    cap-height="640"
    bbox="-613 -257 1132 960"
    underline-thickness="50"
    underline-position="-100"
    unicode-range="U+000D-FB02"
  />
<missing-glyph horiz-adv-x="265" 
d="M132.5 85q19.5 0 33 -14.5t13.5 -35.5q0 -20 -13.5 -35t-33 -15t-33 15t-13.5 35q0 21 13.5 35.5t33 14.5z" />
    <glyph glyph-name="onequarter" unicode="&#x31;&#x2f;&#x34;" horiz-adv-x="719" 
d="M522 641h69l-409 -640h-69zM171 260v305l-86 -53l-29 52l121 76h64l-1 -380h-69zM664 136v-59h-45v-77h-68v77h-175l-19 52l149 251h74l-146 -244h117v98h68v-98h45z" />
    <glyph glyph-name="onehalf" unicode="&#x31;&#x2f;&#x32;" horiz-adv-x="768" 
d="M522 641h69l-409 -640h-69zM171 260v305l-86 -53l-29 52l121 76h64l-1 -380h-69zM553 59h159v-59h-273v39l155 155q20 20 30.5 37t10.5 38q0 27 -16 44.5t-46 17.5q-16 0 -29.5 -5t-26 -17t-17 -18t-15.5 -21l-50 39q20 30 56 55.5t83 25.5q57 0 94.5 -32.5t37.5 -86.5
q0 -58 -47 -105z" />
    <glyph glyph-name="threequarters" unicode="&#x33;&#x2f;&#x34;" horiz-adv-x="799" 
d="M602 641h69l-409 -640h-69zM194 309q36 0 57 15.5t23 41.5q3 42 -37 62q-35 17 -91 -4l-26 43l109 114h-150v59h250v-31l-121 -127q56 2 97 -28.5t40 -84.5q-1 -53 -41 -86t-109 -33q-42 0 -74 13.5t-65 41.5l39 49q13 -13 23 -21t31 -16t45 -8zM743 136v-59h-44v-77h-68
v77h-176l-18 52l149 251h73l-145 -244h117v98h68v-98h44z" />
    <glyph glyph-name="uni2153" unicode="&#x31;&#x2f;&#x33;" horiz-adv-x="787" 
d="M522 641h69l-409 -640h-69zM171 260v305l-86 -53l-29 52l121 76h64l-1 -380h-69zM595 222q56 2 96.5 -28.5t40.5 -84.5q-1 -53 -41.5 -86t-108.5 -33q-43 0 -74.5 13.5t-65.5 41.5l39 49q13 -13 23.5 -21t31.5 -16t45 -8q35 0 56 15.5t23 41.5q3 42 -36 62q-35 17 -91 -4
l-27 43l109 114h-150v59h251v-31z" />
    <glyph glyph-name="uni2154" unicode="&#x32;&#x2f;&#x33;" horiz-adv-x="870" 
d="M59 299l156 155q20 20 30 37t10 38q0 27 -16 44.5t-46 17.5q-16 0 -29.5 -5t-25.5 -17t-17 -18t-16 -21l-49 39q19 30 55.5 55.5t82.5 25.5q58 0 95 -32.5t37 -86.5q0 -58 -47 -105l-106 -107h159v-59h-273v39zM605 641h69l-409 -640h-69zM678 222q56 2 96.5 -28.5
t40.5 -84.5q-1 -53 -41.5 -86t-108.5 -33q-43 0 -74.5 13.5t-65.5 41.5l39 49q13 -13 23.5 -21t31.5 -16t45 -8q35 0 56 15.5t23 41.5q3 42 -36 62q-35 17 -91 -4l-27 43l109 114h-150v59h251v-31z" />
    <glyph glyph-name="oneeighth" unicode="&#x31;&#x2f;&#x38;" horiz-adv-x="764" 
d="M522 641h69l-409 -640h-69zM171 260v305l-86 -53l-29 52l121 76h64l-1 -380h-69zM632 205q36 -13 56 -39.5t20 -61.5q0 -46 -36 -80t-104 -34t-104.5 34t-36.5 80q0 35 20.5 61.5t57.5 39.5q-63 25 -63 86q0 41 35 70t91 29t91 -29t35 -70q0 -61 -62 -86zM568 332
q-24 0 -40 -14t-16 -35.5t16.5 -35.5t40 -14t40 14t16.5 35.5t-16.5 35.5t-40.5 14zM568 48q29 0 49 18t20 44.5t-20.5 44t-48.5 17.5t-49 -17.5t-21 -44.5q0 -26 20.5 -44t49.5 -18z" />
    <glyph glyph-name="threeeighths" unicode="&#x33;&#x2f;&#x38;" horiz-adv-x="832" 
d="M590 641h69l-409 -640h-69zM194 309q36 0 57 15.5t23 41.5q3 42 -37 62q-35 17 -91 -4l-26 43l109 114h-150v59h250v-31l-121 -127q56 2 97 -28.5t40 -84.5q-1 -53 -41 -86t-109 -33q-42 0 -74 13.5t-65 41.5l39 49q13 -13 23 -21t31 -16t45 -8zM700 205q36 -13 56 -39.5
t20 -61.5q0 -46 -36 -80t-104 -34t-104.5 34t-36.5 80q0 35 20.5 61.5t57.5 39.5q-63 25 -63 86q0 41 35 70t91 29t91 -29t35 -70q0 -61 -62 -86zM636 332q-24 0 -40 -14t-16 -35.5t16 -35.5t40 -14t40 14t16 35.5t-16 35.5t-40 14zM636 49q29 0 49 17.5t20 44t-20.5 44
t-48.5 17.5t-49 -17.5t-21 -44.5q0 -26 20.5 -43.5t49.5 -17.5z" />
    <glyph glyph-name="fiveeighths" unicode="&#x35;&#x2f;&#x38;" horiz-adv-x="833" 
d="M591 641h69l-409 -640h-69zM345 377q0 -51 -39 -89t-104 -38q-88 0 -146 59l38 51q1 0 8.5 -8t10.5 -10.5t11.5 -9t15 -9.5t16 -7t20.5 -5.5t24 -1.5q36 0 55 21t19 47q0 28 -17 45.5t-44 17.5q-21 0 -37 -5.5t-21 -11.5l-5 -6l-66 28l37 195h200v-59h-148l-21 -104
q27 22 68 22q57 0 91 -33t34 -89zM701 205q36 -13 56 -39.5t20 -61.5q0 -46 -36 -80t-104 -34t-104.5 34t-36.5 80q0 35 20.5 61.5t56.5 39.5q-62 25 -62 86q0 41 35 70t91 29t91 -29t35 -70q0 -61 -62 -86zM637 332q-24 0 -40 -14t-16 -35.5t16 -35.5t40 -14t40 14t16 35.5
t-16 35.5t-40 14zM637 48q29 0 49 18t20 44.5t-20.5 44t-48.5 17.5q-29 0 -49.5 -17.5t-20.5 -44.5q0 -26 20.5 -44t49.5 -18z" />
    <glyph glyph-name="seveneighths" unicode="&#x37;&#x2f;&#x38;" horiz-adv-x="715" 
d="M473 641h69l-409 -640h-69zM83 260l155 321h-182v59h266v-39l-164 -341h-75zM583 205q37 -13 56.5 -39.5t19.5 -61.5q0 -46 -36 -80t-104 -34t-104.5 34t-36.5 80q0 35 20.5 61.5t57.5 39.5q-63 25 -63 86q0 41 35.5 70t91 29t90.5 -29t35 -70q0 -61 -62 -86zM519.5 332
q-23.5 0 -40 -14t-16.5 -35.5t16.5 -35.5t40 -14t40 14t16.5 35.5t-16.5 35.5t-40 14zM519 48q29 0 49 18t20 44.5t-20.5 44t-48.5 17.5t-49 -17.5t-21 -44.5q0 -26 20.5 -44t49.5 -18z" />
    <glyph glyph-name="arrowleft" unicode="&#x3c;&#x2d;&#x2d;" horiz-adv-x="641" 
d="M590 321v-67h-434l196 -197l-46 -46l-230 230l-46 46v1l46 46l230 230l46 -46l-196 -197h434z" />
    <glyph glyph-name="arrowup" unicode="&#x3c;__" horiz-adv-x="641" 
d="M597 302l-46 -46l-197 197v-434h-67v434l-196 -197l-47 46l230 230l46 47l1 -1v1l46 -47z" />
    <glyph glyph-name="arrowright" unicode="&#x2d;&#x2d;&#x3e;" horiz-adv-x="641" 
d="M612 288v-1l-46 -46l-231 -230l-46 46l197 197h-434v67h434l-197 197l46 46l231 -230z" />
    <glyph glyph-name="arrowdown" unicode="__&#x3e;" horiz-adv-x="641" 
d="M597 296l-230 -230l-46 -46h-1l-46 46h1l-231 230l47 46l196 -196v434h67v-434l197 196z" />
    <glyph glyph-name="arrowboth" unicode="&#x3c;&#x2d;&#x2d;&#x3e;" horiz-adv-x="906" 
d="M866 287v0l-46 -46l-230 -230l-46 46l196 196h-574l196 -196l-46 -46l-230 230l-46 46v0l46 46l230 230l46 -46l-196 -196h574l-196 196l46 46l230 -230z" />
    <glyph glyph-name="arrowupdn" unicode="&#x3c;__&#x3e;" horiz-adv-x="641" 
d="M551 229l46 -46l-230 -231l-46 -46h-1l-46 46h1l-231 231l47 46l196 -197v574l-196 -196l-47 46l231 230h-1l46 47l1 -1v1l46 -47l230 -230l-46 -46l-197 196v-574z" />
    <glyph glyph-name="uni2196" unicode="&#x3c;&#x2d;_" horiz-adv-x="641" 
d="M558 102l-48 -48l-354 354v-278h-65v326v65v0h65h325v-65h-277z" />
    <glyph glyph-name="uni2197" unicode="_&#x2d;&#x3e;" horiz-adv-x="641" 
d="M551 521v-65v-326h-65v278l-354 -354l-48 47l354 355h-278v65h326h65v0z" />
    <glyph glyph-name="uni2198" unicode="&#x2d;_&#x3e;" horiz-adv-x="641" 
d="M550 119v-66v0h-66h-325v66h277l-353 353l47 48l354 -354v278h66v-325z" />
    <glyph glyph-name="uni2199" unicode="&#x3c;_&#x2d;" horiz-adv-x="641" 
d="M557 472l-354 -354h278v-65h-325h-66v0v65v326h66v-278l353 354z" />
    <glyph glyph-name="fi" unicode="fi" horiz-adv-x="512" 
d="M228 627q-54 0 -54 -79v-98h96v-66h-96v-384h-78v384h-57v66h57v96q0 72 34 110.5t92 38.5q40 0 74 -18l-32 -61q-18 11 -36 11zM403 657q23 0 39.5 -16t16.5 -39t-16.5 -39.5t-39.5 -16.5t-39 16.5t-16 39.5t16 39t39 16zM361 0v451h77v-451h-77z" />
    <glyph glyph-name="fl" unicode="fl" horiz-adv-x="535" 
d="M99 546q0 72 34 110.5t92 38.5q40 0 74 -18l-25 -65q-20 15 -43 15q-53 0 -53 -79v-98h95v-66h-95v-384h-79v384h-60v66h60v96zM385 680h79v-680h-79v680z" />
    <glyph glyph-name="f_f" unicode="ff" horiz-adv-x="560" 
d="M500 627q-53 0 -53 -79v-98h96v-66h-96v-384h-79v384h-192v-384h-79v384h-58v66h58v96q0 73 34 111t92 38q46 0 86 -26l-36 -58q-21 16 -44 16q-53 0 -53 -79v-98h192v96q0 72 34 110.5t93 38.5q45 0 85 -26l-35 -58q-21 16 -45 16z" />
    <glyph glyph-name="f_f_i" unicode="ffi" horiz-adv-x="794" 
d="M510 627q-53 0 -53 -79v-98h96v-66h-96v-384h-79v384h-202v-384h-79v384h-58v66h58v96q0 73 34 111t92 38q46 0 86 -26l-36 -58q-21 16 -44 16q-53 0 -53 -79v-98h202v96q0 72 34 110.5t92 38.5q41 0 74 -18l-31 -61q-18 11 -37 11zM685 656q23 0 39.5 -16.5t16.5 -39.5
t-16.5 -39t-39.5 -16t-39.5 16t-16.5 39t16.5 39.5t39.5 16.5zM643 0v451h76v-451h-76z" />
    <glyph glyph-name="f_f_l" unicode="ffl" horiz-adv-x="794" 
d="M500 617q-53 0 -53 -79v-88h96v-66h-96v-384h-79v384h-192v-384h-79v384h-58v66h58v86q0 73 34 111t92 38q46 0 86 -25l-36 -59q-21 16 -44 16q-53 0 -53 -79v-88h192v86q0 73 34 111t93 38q40 0 73 -18l-31 -60q-18 10 -37 10zM645 680h78v-680h-78v680z" />
    <glyph glyph-name="f_t" unicode="ft" horiz-adv-x="555" 
d="M531 450v-66h-97l1 -384h-79v384h-178v-384h-79v384h-60v66h60v96q0 73 34 111t92 38q40 0 74 -18l-32 -61q-18 11 -36 11q-53 0 -53 -79v-98h178v127l78 2v-129h97z" />
    <glyph glyph-name="t_t" unicode="tt" horiz-adv-x="574" 
d="M549 450v-66h-97l1 -384h-79v384h-189v-384h-78v384h-60v66h60v129h77l1 -129h189v129h78v-129h97z" />
    <glyph glyph-name=".notdef" horiz-adv-x="265" 
d="M132.5 85q19.5 0 33 -14.5t13.5 -35.5q0 -20 -13.5 -35t-33 -15t-33 15t-13.5 35q0 21 13.5 35.5t33 14.5z" />
    <glyph glyph-name=".null" horiz-adv-x="600" 
 />
    <glyph glyph-name="nonmarkingreturn" horiz-adv-x="333" 
 />
    <glyph glyph-name="CR" unicode="&#xd;" horiz-adv-x="600" 
 />
    <glyph glyph-name="space" unicode=" " horiz-adv-x="260" 
 />
    <glyph glyph-name="exclam" unicode="!" horiz-adv-x="243" 
d="M167 640l-13 -468h-65l-14 468h92zM121 -8q-23 0 -39 16.5t-16 39.5t16 39t39 16t39.5 -16t16.5 -39t-16.5 -39.5t-39.5 -16.5z" />
    <glyph glyph-name="quotedbl" unicode="&#x22;" horiz-adv-x="338" 
d="M76 397q-6 66 -19 127t-13 80q0 21 15 36t35.5 15t35.5 -15t15 -36q0 -19 -13 -80t-19 -127h-37zM225 397q-6 66 -19 127t-13 80q0 21 14.5 36t35.5 15t36 -15t15 -36q0 -19 -13 -80t-19 -127h-37z" />
    <glyph glyph-name="numbersign" unicode="#" horiz-adv-x="511" 
d="M505 393h-117l-39 -144h103v-57h-118l-52 -192h-58l52 192h-111l-51 -192h-58l52 192h-102v57h117l39 144h-102v57h117l52 193h58l-52 -193h111l51 193h58l-52 -193h102v-57zM291 249l39 144h-110l-39 -144h110z" />
    <glyph glyph-name="dollar" unicode="$" horiz-adv-x="522" 
d="M466 164q0 -43 -16 -76.5t-42.5 -53.5t-57.5 -31t-66 -14v-87h-51v87q-123 8 -197 98l54 52q54 -74 143 -82v247q-37 16 -60.5 29.5t-47 34.5t-34.5 50.5t-11 67.5q0 64 43.5 109t109.5 57v92h51v-89q97 -4 174 -76l-49 -50q-32 30 -60.5 43t-64.5 14v-222q8 -4 15 -7
q80 -37 123.5 -81t43.5 -112zM161 487q0 -32 17 -54t55 -43v191q-32 -10 -52 -35t-20 -59zM284 59q42 6 70.5 32t28.5 66q0 45 -26 73.5t-73 50.5v-222z" />
    <glyph glyph-name="percent" unicode="%" horiz-adv-x="765" 
d="M199 368q-63 0 -103 41.5t-40 102.5q0 60 39.5 101.5t103 41.5t103 -41.5t39.5 -102t-39.5 -102t-102.5 -41.5zM142 0l409 640h69l-409 -640h-69zM199 429q34 0 54.5 23.5t20.5 59.5q0 34 -21 58t-54.5 24t-54 -23.5t-20.5 -58.5t21 -59t54 -24zM567 -12q-63 0 -103 41.5
t-40 101.5q0 61 40 102.5t103 41.5t103 -41.5t40 -102t-40 -102t-103 -41.5zM567 49q34 0 54.5 23.5t20.5 58.5t-20.5 59t-54.5 24t-54.5 -23.5t-20.5 -59.5q0 -34 21 -58t54 -24z" />
    <glyph glyph-name="ampersand" unicode="&#x26;" horiz-adv-x="607" 
d="M601 37l-63 -51l-81 92q-86 -90 -196 -90q-96 0 -150.5 50.5t-54.5 123.5q0 63 35 118t104 94q-60 67 -55 142q3 66 45.5 103t111.5 37q45 0 84 -23t63 -64l-65 -37q-13 25 -35.5 40t-48.5 15q-32 0 -52 -19.5t-23 -51.5q-1 -7 0 -15t2.5 -14.5t5.5 -15t6 -13.5t8 -13
t8.5 -12t9 -12t8 -10t8 -9t7.5 -7l175 -197q27 42 59 105l69 -28q-49 -90 -78 -133zM261 62q80 0 147 72l-164 186q-50 -25 -78 -64.5t-28 -84.5q0 -46 33.5 -77.5t89.5 -31.5z" />
    <glyph glyph-name="quotesingle" unicode="'" horiz-adv-x="189" 
d="M76 397q-6 66 -19 127t-13 80q0 21 15 36t35.5 15t35.5 -15t15 -36q0 -19 -13 -80t-19 -127h-37z" />
    <glyph glyph-name="parenleft" unicode="(" horiz-adv-x="322" 
d="M246 -164q-7 6 -20 18t-46 55t-58 92t-45.5 130t-20.5 169q0 62 10.5 121t27 104t37 85t41 67.5t37 47.5t27.5 29l10 10l45 -47q-6 -6 -17 -17.5t-39 -51.5t-49.5 -85t-39 -116.5t-17.5 -146.5q0 -78 17 -149.5t40.5 -118t47.5 -82t40 -51.5l17 -16z" />
    <glyph glyph-name="parenright" unicode=")" horiz-adv-x="322" 
d="M76 -164l-45 47l17 17t39 49.5t49 83t38.5 117t17.5 150.5q0 75 -16.5 145.5t-40 118t-47.5 83.5t-41 53l-16 17l45 47q7 -7 20 -19.5t46 -56.5t58 -93.5t45.5 -129.5t20.5 -165q0 -64 -10.5 -124t-27.5 -105t-37 -85t-40.5 -66.5t-37 -46t-27.5 -28.5z" />
    <glyph glyph-name="asterisk" unicode="*" horiz-adv-x="394" 
d="M350 542l-105 -33l67 -89l-52 -38l-64 91l-65 -91l-52 38l67 90l-102 32l20 61l101 -34l-1 102h65l-1 -102l102 34z" />
    <glyph glyph-name="plus" unicode="+" horiz-adv-x="512" 
d="M463 322v-69h-173v-171h-68v171h-172v69h172v172h68v-172h173z" />
    <glyph glyph-name="comma" unicode="," horiz-adv-x="261" 
d="M72 -143l-16 40q79 39 80 99q-24 -8 -46.5 6t-22.5 42q1 25 17 41.5t43 16.5q31 0 50 -25t19 -61q0 -47 -30 -91.5t-94 -67.5z" />
    <glyph glyph-name="hyphen" unicode="-" horiz-adv-x="347" 
d="M50 253v69h247v-69h-247z" />
    <glyph glyph-name="period" unicode="." horiz-adv-x="243" 
d="M121 -8q-23 0 -39 16.5t-16 39.5t16 39t39 16t39.5 -16t16.5 -39t-16.5 -39.5t-39.5 -16.5z" />
    <glyph glyph-name="slash" unicode="/" horiz-adv-x="439" 
d="M6 -120l360 817h67l-360 -817h-67z" />
    <glyph glyph-name="zero" unicode="0" horiz-adv-x="593" 
d="M296.5 -12q-109.5 0 -175 91.5t-65.5 242t65.5 242t175 91.5t175 -91.5t65.5 -242t-65.5 -242t-175 -91.5zM296.5 56q78.5 0 118.5 74t40 191.5t-40 191.5t-118.5 74t-118.5 -74t-40 -191.5t40 -191.5t118.5 -74z" />
    <glyph glyph-name="one" unicode="1" horiz-adv-x="393" 
d="M248 640h70v-640h-79v549l-157 -101l-36 65l202 127v0z" />
    <glyph glyph-name="two" unicode="2" horiz-adv-x="541" 
d="M171 68h314v-68h-429v56l261 271q34 36 53 68.5t19 73.5q0 48 -34.5 83t-87.5 35q-83 0 -138 -86l-60 41q13 21 29 38.5t40 36t57.5 29t71.5 9.5q95 -1 149.5 -53.5t54.5 -130.5q0 -57 -24 -101.5t-69 -90.5z" />
    <glyph glyph-name="three" unicode="3" horiz-adv-x="555" 
d="M284 376q89 3 152.5 -48.5t62.5 -144.5q-1 -87 -64.5 -141t-171.5 -54q-70 0 -121.5 21t-95.5 61l47 63q22 -23 40.5 -37t53 -27t75.5 -13q69 0 111 36.5t43 91.5q1 38 -18.5 69.5t-52.5 46.5q-34 15 -69 16t-76 -6l-26 42l197 220h-290v68h392v-54z" />
    <glyph glyph-name="four" unicode="4" horiz-adv-x="564" 
d="M528 210v-68h-65v-142h-79v142h-320l-18 56l262 442h86l-257 -430h247v184h79v-184h65z" />
    <glyph glyph-name="five" unicode="5" horiz-adv-x="540" 
d="M273 394q91 1 151 -54t60 -145q0 -85 -60 -146t-165 -61q-125 0 -213 81l44 65q70 -78 164 -78q70 0 108.5 42t38.5 97q0 58 -38 94t-100 37q-34 0 -60 -10.5t-36 -21.5l-9 -11l-66 30l54 327h305v-68h-238l-36 -201q40 22 96 23z" />
    <glyph glyph-name="six" unicode="6" horiz-adv-x="563" 
d="M284 -12q-103 0 -165.5 60.5t-62.5 150.5q0 34 6 63.5t17 58.5t42.5 78.5t64.5 97.5t99 143h87l-179 -260q36 32 104 32q90 0 150 -59t60 -154q0 -89 -62.5 -150t-160.5 -61zM281 56q60 0 101.5 41.5t41.5 102.5t-41.5 102.5t-101.5 41.5q-58 0 -100.5 -42t-42.5 -102
q0 -61 41.5 -102.5t101.5 -41.5z" />
    <glyph glyph-name="seven" unicode="7" horiz-adv-x="523" 
d="M46 640h431v-55l-272 -585h-87l274 572h-346v68z" />
    <glyph glyph-name="eight" unicode="8" horiz-adv-x="566" 
d="M386 346q59 -22 92 -66t33 -102q0 -35 -14 -68.5t-41 -61t-72 -44t-101 -16.5t-101 16.5t-71.5 44t-40.5 61t-14 68.5q0 58 32.5 102t91.5 66q-98 42 -98 143q0 68 56 117t145 49t145 -49t56 -117q0 -101 -98 -143zM283 587q-52 0 -87 -28.5t-35 -74.5q0 -47 35.5 -77
t86.5 -30t86.5 30t35.5 77q0 46 -35 74.5t-87 28.5zM283 56q61 0 103 35.5t42 90.5t-43 90.5t-102 35.5t-102 -35.5t-43 -90.5t42 -90.5t103 -35.5z" />
    <glyph glyph-name="nine" unicode="9" horiz-adv-x="563" 
d="M278 652q104 0 166.5 -60.5t62.5 -150.5q0 -34 -6.5 -63t-17.5 -58.5t-42 -79t-64 -97.5t-100 -143h-87l180 260q-36 -32 -104 -32q-90 0 -150 59t-60 154q0 89 62 150t160 61zM281 584q-60 0 -101.5 -41.5t-41.5 -102.5t41.5 -102.5t101.5 -41.5q59 0 101 42t42 102
q0 61 -41.5 102.5t-101.5 41.5z" />
    <glyph glyph-name="colon" unicode=":" horiz-adv-x="243" 
d="M121.5 352q-23.5 0 -39.5 16t-16 39t16 39.5t39.5 16.5t39.5 -16.5t16 -39.5t-16 -39t-39.5 -16zM121.5 -8q-23.5 0 -39.5 16.5t-16 39.5t16 39t39.5 16t39.5 -16t16 -39t-16 -39.5t-39.5 -16.5z" />
    <glyph glyph-name="semicolon" unicode=";" horiz-adv-x="309" 
d="M150.5 352q-23.5 0 -39.5 16t-16 39t16 39.5t39.5 16.5t39.5 -16.5t16 -39.5t-16 -39t-39.5 -16zM101 -143l-16 40q79 39 80 100q-24 -9 -46.5 5t-22.5 42q1 25 17 41.5t43 16.5q31 0 50 -25t19 -61q0 -47 -30 -91.5t-94 -67.5z" />
    <glyph glyph-name="less" unicode="&#x3c;" horiz-adv-x="518" 
d="M468 487v-76l-332 -123l332 -125v-76l-418 168v64z" />
    <glyph glyph-name="equal" unicode="=" horiz-adv-x="512" 
d="M50 330v68h413v-68h-413zM50 178v68h413v-68h-413z" />
    <glyph glyph-name="greater" unicode="&#x3e;" horiz-adv-x="518" 
d="M50 487l418 -168v-64l-418 -168v76l332 125l-332 123v76z" />
    <glyph glyph-name="question" unicode="?" horiz-adv-x="435" 
d="M145 172v172q73 -1 123 30.5t49 95.5q-1 51 -36.5 84t-88.5 33q-82 0 -130 -67l-56 44q72 91 187 91q87 0 146 -49t60 -130q1 -46 -16 -82.5t-45 -57.5t-57.5 -33t-59.5 -16v-115h-76zM183 -8q-23 0 -39.5 16.5t-16.5 39.5t16.5 39t39.5 16t39 -16t16 -39t-16 -39.5
t-39 -16.5z" />
    <glyph glyph-name="at" unicode="@" horiz-adv-x="761" 
d="M408 608q72 0 129.5 -23.5t93.5 -64t55.5 -92t19.5 -110.5q0 -117 -54 -184t-124 -67q-31 0 -55 17t-31 43q-58 -64 -142 -64q-73 0 -112 54.5t-24 144.5q16 91 75 146t134 55q82 0 116 -76l15 63h76l-53 -250q-9 -42 2 -61t31 -19q37 0 73.5 52.5t36.5 145.5
q0 113 -68.5 184.5t-197.5 71.5q-85 0 -157.5 -49t-114 -129.5t-41.5 -171.5q0 -109 65 -179.5t176 -70.5q97 0 177 45l16 -28q-90 -51 -197 -51q-123 0 -197.5 80.5t-74.5 201.5q0 104 48 193t129.5 141t174.5 52zM328 124q54 0 93.5 37.5t49.5 94.5q9 63 -15.5 105
t-74.5 42q-51 0 -89 -41t-48 -100q-10 -65 12.5 -101.5t71.5 -36.5z" />
    <glyph glyph-name="A" unicode="A" horiz-adv-x="599" 
d="M505 0l-70 185h-271l-70 -185h-88l253 640h82l253 -640h-89zM186 244h227l-113 300z" />
    <glyph glyph-name="B" unicode="B" horiz-adv-x="553" 
d="M327 356q82 -11 126 -56t44 -116q0 -85 -62.5 -134.5t-169.5 -49.5h-179v640h151q95 0 150 -40.5t55 -111.5q0 -106 -115 -132zM244 575h-76v-189h73q54 0 85 26.5t31 72.5q0 43 -29.5 66.5t-83.5 23.5zM261 65q70 0 110 33.5t40 91.5q0 57 -41 89.5t-112 32.5h-90v-247
h93z" />
    <glyph glyph-name="C" unicode="C" horiz-adv-x="622" 
d="M389 -12q-98 0 -174.5 44.5t-117.5 120.5t-41 168q0 143 93 238.5t240 95.5q112 0 198 -60l-45 -66q-65 52 -153 52q-111 0 -179 -75t-68 -184.5t68 -184.5t179 -75q88 0 153 52l45 -66q-86 -60 -198 -60z" />
    <glyph glyph-name="D" unicode="D" horiz-adv-x="661" 
d="M260 640q83 0 149.5 -25t109 -68.5t64.5 -101t22 -125t-22 -125t-64.5 -101.5t-109 -69t-149.5 -25h-174v640h174zM244 66q138 0 206.5 68t68.5 187q0 118 -68.5 185.5t-206.5 67.5h-76v-508h76z" />
    <glyph glyph-name="E" unicode="E" horiz-adv-x="515" 
d="M459 569h-291v-215h241v-68h-241v-215h291v-71h-373v640h373v-71z" />
    <glyph glyph-name="F" unicode="F" horiz-adv-x="465" 
d="M459 569h-291v-215h241v-68h-241v-286h-82v640h53h320v-71z" />
    <glyph glyph-name="G" unicode="G" horiz-adv-x="744" 
d="M428 343h268v-57q0 -58 -19.5 -111t-57 -95t-96.5 -67t-132 -25q-99 0 -176 45t-118 121t-41 168.5t40.5 168t118 120t176.5 44.5q36 0 70.5 -6.5t55 -13.5t40.5 -17.5t24 -14t9 -6.5l-44 -64q-21 18 -61 33t-94 15q-114 0 -181.5 -74.5t-67.5 -183.5q0 -110 68.5 -185.5
t180.5 -75.5q97 0 159.5 57.5t62.5 154.5h-185v69z" />
    <glyph glyph-name="H" unicode="H" horiz-adv-x="656" 
d="M488 640h82v-640h-82v298h-320v-298h-82v640h82v-275h320v275z" />
    <glyph glyph-name="I" unicode="I" horiz-adv-x="253" 
d="M168 640v-640h-82v640h82z" />
    <glyph glyph-name="J" unicode="J" horiz-adv-x="456" 
d="M196 -12q-85 0 -150 61l46 65q45 -52 102 -52q47 0 73 32t26 94v452h82v-448q0 -105 -50.5 -154.5t-128.5 -49.5z" />
    <glyph glyph-name="K" unicode="K" horiz-adv-x="579" 
d="M569 0h-112l-289 306v-306h-82v640h82v-269l273 269h108l-306 -300z" />
    <glyph glyph-name="L" unicode="L" horiz-adv-x="446" 
d="M168 72h252v-72h-334v640h82v-568z" />
    <glyph glyph-name="M" unicode="M" horiz-adv-x="808" 
d="M650 640h72v-640h-82v497l-236 -324l-236 324v-497h-82v640h72l246 -344z" />
    <glyph glyph-name="N" unicode="N" horiz-adv-x="691" 
d="M525 640h80v-640h-78l-361 506v-506h-80v640h78l361 -503v503z" />
    <glyph glyph-name="O" unicode="O" horiz-adv-x="780" 
d="M390 -12q-98 0 -175 45t-118 120.5t-41 168.5q0 142 93 237.5t241 95.5t241.5 -95.5t93.5 -237.5q0 -93 -41.5 -168.5t-118.5 -120.5t-175 -45zM390 62q111 0 180 75t69 185q0 109 -69 184t-180 75t-179.5 -75t-68.5 -184q0 -110 68.5 -185t179.5 -75z" />
    <glyph glyph-name="P" unicode="P" horiz-adv-x="534" 
d="M288 640q50 0 94.5 -20t75 -64t30.5 -104q0 -59 -30.5 -102.5t-75 -63.5t-94.5 -20l-120 -1v-265h-82v640h202zM254 330q72 -1 110 31t38 91t-38 91t-110 31l-86 -1v-241z" />
    <glyph glyph-name="Q" unicode="Q" horiz-adv-x="780" 
d="M725 322q0 -112 -60 -197.5t-161 -119.5l192 -60l-31 -79l-314 124q-132 13 -213.5 106.5t-81.5 225.5q0 142 93 237.5t241 95.5t241.5 -95.5t93.5 -237.5zM142 322q0 -110 68.5 -185t179.5 -75t180 75t69 185q0 109 -68.5 184t-180 75t-180 -75t-68.5 -184z" />
    <glyph glyph-name="R" unicode="R" horiz-adv-x="556" 
d="M430 0l-204 285h-58v-285h-82v640h181q93 0 152 -50.5t59 -129.5q0 -71 -47 -115.5t-115 -56.5l214 -288h-100zM168 573v-221h85q67 0 103 27.5t36 80.5q0 54 -38 83.5t-111 29.5h-75z" />
    <glyph glyph-name="S" unicode="S" horiz-adv-x="525" 
d="M261 -12q-143 0 -225 99l64 57q33 -43 71 -63t88 -20q48 0 86 27.5t38 74.5q0 48 -32 76.5t-89 50.5q-29 12 -41.5 17t-37 17.5t-35.5 21t-27.5 24t-24 31.5t-13 38t-5.5 47q0 73 57.5 121t137.5 48q62 0 105.5 -20t79.5 -56l-58 -55q-33 30 -62.5 44t-66.5 14
q-47 0 -78 -27t-31 -68q0 -43 30.5 -70t106.5 -56q170 -65 170 -191q0 -48 -19 -84.5t-50 -57t-66 -30.5t-73 -10z" />
    <glyph glyph-name="T" unicode="T" horiz-adv-x="472" 
d="M456 640v-72h-179v-568h-82v568h-179v72h440z" />
    <glyph glyph-name="U" unicode="U" horiz-adv-x="635" 
d="M317.5 -12q-109.5 0 -173 63t-63.5 196v393h82v-383q0 -102 41.5 -148.5t113 -46.5t113 46.5t41.5 148.5v383h82v-393q0 -133 -63.5 -196t-173 -63z" />
    <glyph glyph-name="V" unicode="V" horiz-adv-x="599" 
d="M503 640h91l-259 -640h-70l-259 640h90l204 -538z" />
    <glyph glyph-name="W" unicode="W" horiz-adv-x="896" 
d="M795 640h86l-211 -640h-66l-156 530l-155 -530h-66l-211 640h86l158 -522l153 522h70l153 -522z" />
    <glyph glyph-name="X" unicode="X" horiz-adv-x="595" 
d="M569 0h-100l-172 261l-171 -261h-100l223 325l-212 315h97l164 -252l165 252h95l-212 -315z" />
    <glyph glyph-name="Y" unicode="Y" horiz-adv-x="526" 
d="M530 640l-226 -340v-300h-82v300l-226 340h96l171 -262l171 262h96z" />
    <glyph glyph-name="Z" unicode="Z" horiz-adv-x="569" 
d="M157 72h356v-72h-457v61l333 507h-315v72h419v-61z" />
    <glyph glyph-name="bracketleft" unicode="[" horiz-adv-x="281" 
d="M238 760v-60h-81v-800h81v-61h-152v921h152z" />
    <glyph glyph-name="backslash" unicode="\" horiz-adv-x="439" 
d="M433 -120h-67l-360 817h67z" />
    <glyph glyph-name="bracketright" unicode="]" horiz-adv-x="281" 
d="M43 760h153v-921h-153v61h81v800h-81v60z" />
    <glyph glyph-name="asciicircum" unicode="^" horiz-adv-x="522" 
d="M466 326h-79l-126 247l-126 -247h-79l171 317h68z" />
    <glyph glyph-name="underscore" unicode="_" horiz-adv-x="472" 
d="M0 -111v43h472v-43h-472z" />
    <glyph glyph-name="grave" unicode="`" horiz-adv-x="294" 
d="M118 568l-74 79l81 14l125 -151h-35q-22 0 -42 10.5t-55 47.5z" />
    <glyph glyph-name="a" unicode="a" 
d="M419 450h64v-450h-64l-11 68q-57 -80 -161 -80q-91 0 -151 65t-60 172.5t60 172t151 64.5q104 0 161 -80zM264 55q67 0 108.5 48.5t41.5 121.5t-41.5 121.5t-108.5 48.5t-107 -48.5t-40 -121.5t40 -121.5t107 -48.5z" />
    <glyph glyph-name="b" unicode="b" 
d="M307 462q91 0 151 -64.5t60 -172t-60 -172.5t-151 -65q-104 0 -161 80l-11 -68h-64v680h79v-293q56 75 157 75zM290 55q66 0 106.5 48.5t40.5 121.5t-40.5 121.5t-106.5 48.5q-67 0 -109 -48.5t-42 -121.5t42 -121.5t109 -48.5z" />
    <glyph glyph-name="c" unicode="c" horiz-adv-x="439" 
d="M269 -12q-103 0 -168 68.5t-65 168.5t65 168.5t168 68.5q88 0 152 -51l-48 -55q-42 39 -104 39q-70 0 -111 -48t-41 -121.5t41 -122t111 -48.5q62 0 104 40l48 -56q-64 -51 -152 -51z" />
    <glyph glyph-name="d" unicode="d" 
d="M404 680h79v-680h-64l-11 68q-57 -80 -161 -80q-91 0 -151 65t-60 172.5t60 172t151 64.5q100 0 157 -75v293zM263 55q68 0 109.5 48.5t41.5 121.5t-41.5 121.5t-109.5 48.5q-66 0 -106 -48.5t-40 -121.5t40 -121.5t106 -48.5z" />
    <glyph glyph-name="e" unicode="e" horiz-adv-x="514" 
d="M478 240v-29h-359q3 -69 44 -112.5t108 -43.5q82 0 127 56l56 -46q-30 -37 -77.5 -57t-105.5 -20q-105 0 -170 68t-65 169q0 100 64 168.5t162 68.5q96 0 156 -63t60 -159zM262 396q-54 0 -91.5 -36t-47.5 -94h277q-7 61 -43.5 95.5t-94.5 34.5z" />
    <glyph glyph-name="f" unicode="f" horiz-adv-x="291" 
d="M231 627q-53 0 -53 -79v-98h95v-66h-95v-384h-79v384h-60v66h60v96q0 72 34 110.5t92 38.5q46 0 86 -26l-36 -58q-21 16 -44 16z" />
    <glyph glyph-name="g" unicode="g" 
d="M419 451h64v-433q0 -107 -54 -167.5t-159 -60.5q-55 0 -98 15l19 69q35 -16 76 -16q70 0 104 42.5t34 119.5v44q-57 -76 -158 -76q-91 0 -151 65t-60 172.5t60 172t151 64.5q104 0 161 -80zM264 56q67 0 108.5 48t41.5 121t-41.5 121.5t-108.5 48.5q-66 0 -106.5 -48.5
t-40.5 -121.5t40.5 -121t106.5 -48z" />
    <glyph glyph-name="h" unicode="h" horiz-adv-x="525" 
d="M289 462q32 0 61 -9.5t54.5 -29.5t40 -58t14.5 -88v-277h-78v263q0 60 -27 95.5t-82 35.5q-51 0 -86.5 -40.5t-35.5 -129.5v-224h-79v680h79v-285q50 67 139 67z" />
    <glyph glyph-name="i" unicode="i" horiz-adv-x="218" 
d="M109 546q-23 0 -39.5 16.5t-16.5 39.5t16.5 39t39.5 16t39.5 -16t16.5 -39t-16.5 -39.5t-39.5 -16.5zM71 0v451h76v-451h-76z" />
    <glyph glyph-name="j" unicode="j" horiz-adv-x="194" 
d="M102 546q-23 0 -39.5 16.5t-16.5 39.5t16.5 39t39.5 16t39.5 -16t16.5 -39t-16.5 -39.5t-39.5 -16.5zM141 450v-507q0 -40 -9 -69.5t-22 -45t-32 -24.5t-33.5 -11.5t-31.5 -2.5l-33 4l6 68q10 -3 24 -3q21 0 36.5 16.5t15.5 60.5v514h79z" />
    <glyph glyph-name="k" unicode="k" horiz-adv-x="476" 
d="M475 0h-108l-217 215v-215h-79v680h79v-404l190 174h107l-223 -204z" />
    <glyph glyph-name="l" unicode="l" horiz-adv-x="220" 
d="M71 0v680h79v-680h-79z" />
    <glyph glyph-name="m" unicode="m" horiz-adv-x="782" 
d="M556 462q30 0 57 -10t51 -31.5t38 -62t14 -94.5v-264h-79v260q0 62 -23 98t-72 36q-52 0 -80.5 -38.5t-28.5 -110.5v-245h-78v259q0 63 -23.5 99t-72.5 36q-51 0 -80 -38t-29 -107v-249h-79v450h68l9 -56q19 33 52 50.5t73 17.5q92 0 134 -75q23 37 57.5 56t91.5 19z" />
    <glyph glyph-name="n" unicode="n" horiz-adv-x="524" 
d="M288 462q32 0 61 -9.5t54.5 -29.5t40 -58t14.5 -88v-277h-78v263q0 60 -27 95.5t-82 35.5q-47 0 -81.5 -34t-39.5 -109v-251h-79v451h68l10 -55q50 66 139 66z" />
    <glyph glyph-name="o" unicode="o" horiz-adv-x="546" 
d="M273 -12q-104 0 -170.5 68.5t-66.5 168.5t66.5 168.5t170.5 68.5t170.5 -68.5t66.5 -168.5t-66.5 -168.5t-170.5 -68.5zM272.5 56q67.5 0 111 48.5t43.5 120.5t-43.5 120.5t-111 48.5t-110.5 -48.5t-43 -120.5t43 -120.5t110.5 -48.5z" />
    <glyph glyph-name="p" unicode="p" 
d="M307 462q91 0 151 -64.5t60 -172t-60 -172.5t-151 -65q-101 0 -157 75v-273h-79v660h68l8 -66q57 78 160 78zM290 55q66 0 106.5 48.5t40.5 121.5t-40.5 121.5t-106.5 48.5q-67 0 -109 -48.5t-42 -121.5t42 -121.5t109 -48.5z" />
    <glyph glyph-name="q" unicode="q" 
d="M415 450h68v-660h-79v273q-57 -75 -157 -75q-91 0 -151 65t-60 172.5t60 172t151 64.5q103 0 160 -78zM264 55q67 0 108.5 48.5t41.5 121.5t-41.5 121.5t-108.5 48.5t-107 -48.5t-40 -121.5t40 -121.5t107 -48.5z" />
    <glyph glyph-name="r" unicode="r" horiz-adv-x="335" 
d="M264 462q17 0 33.5 -3t23.5 -7l8 -3l-24 -71q-21 8 -44 8q-52 0 -81.5 -41.5t-29.5 -99.5v-245h-79v450h67l12 -65q20 41 46.5 59t67.5 18z" />
    <glyph glyph-name="s" unicode="s" horiz-adv-x="416" 
d="M31 67l58 47q43 -58 116 -58q45 0 69 16.5t24 44.5q0 22 -18 37.5t-44.5 23t-58 18.5t-58 24t-44.5 40t-18 66q0 61 45 98.5t120 37.5q46 0 85 -16.5t63 -42.5l-49 -51q-42 43 -99 42q-41 0 -62.5 -17t-21.5 -46q0 -25 18 -42t45 -25t58.5 -19t58.5 -23t45 -38t18 -63
q0 -61 -47.5 -97t-126.5 -36q-59 0 -106 22t-70 57z" />
    <glyph glyph-name="t" unicode="t" horiz-adv-x="298" 
d="M274 450v-66h-97v-384h-78v384h-60v66h60v129h77l1 -129h97z" />
    <glyph glyph-name="u" unicode="u" horiz-adv-x="518" 
d="M259.5 -12q-37.5 0 -70 10t-61.5 31.5t-45.5 62t-16.5 95.5v263h79v-263q0 -61 30 -96t84.5 -35t84.5 35t30 96v263h78v-263q0 -55 -16.5 -95.5t-45.5 -62t-61 -31.5t-69.5 -10z" />
    <glyph glyph-name="v" unicode="v" horiz-adv-x="454" 
d="M368 450h85l-193 -450h-66l-193 450h85l141 -357z" />
    <glyph glyph-name="w" unicode="w" horiz-adv-x="735" 
d="M630 450h84l-172 -450h-66l-109 358l-108 -358h-66l-172 450h84l121 -347l108 347h67l108 -347z" />
    <glyph glyph-name="x" unicode="x" horiz-adv-x="427" 
d="M426 0h-93l-119 176l-120 -176h-93l169 234l-152 216h91l105 -156l104 156h91l-152 -216z" />
    <glyph glyph-name="y" unicode="y" horiz-adv-x="454" 
d="M368 450h85l-279 -660h-83l97 220l-187 440h85l141 -347z" />
    <glyph glyph-name="z" unicode="z" horiz-adv-x="468" 
d="M143 69h284v-69h-386v57l271 324h-256v69h353v-63z" />
    <glyph glyph-name="braceleft" unicode="{" horiz-adv-x="317" 
d="M203 400q0 -23 -7.5 -42t-19 -29t-22.5 -17t-19 -10l-7 -2q3 -1 8 -2.5t18 -9t23 -17.5t18 -29t8 -42v-250q0 -32 13.5 -41t44.5 -9h25v-61h-58q-42 0 -69 30t-27 76v249q0 20 -8 36t-19 24t-22.5 12.5t-18.5 5.5l-8 2v52q3 1 8 1.5t18 5.5t23 13t18.5 24t8.5 36v249
q0 46 27 75.5t69 29.5h58v-60h-25q-31 0 -44.5 -9.5t-13.5 -40.5v-250z" />
    <glyph glyph-name="bar" unicode="|" horiz-adv-x="235" 
d="M86 710h63v-870h-63v870z" />
    <glyph glyph-name="braceright" unicode="}" horiz-adv-x="317" 
d="M185 406q0 -20 8 -36t19 -24t22.5 -13t18.5 -6l8 -1v-52q-3 -1 -8 -1.5t-18 -5.5t-23 -13t-18.5 -24t-8.5 -36v-249q0 -46 -27 -76t-69 -30h-58v61h25q31 0 44.5 9t13.5 41v250q0 23 7.5 41.5t19 29t22.5 17.5t18 10l8 2q-3 1 -8 2.5t-18 9t-23 17.5t-18 29t-8 42v250
q0 31 -13.5 40.5t-44.5 9.5h-25v60h58q42 0 69 -29.5t27 -75.5v-249z" />
    <glyph glyph-name="asciitilde" unicode="~" horiz-adv-x="459" 
d="M298 229q-27 0 -49 12.5t-41 25t-39 12.5q-22 0 -36 -11.5t-26 -32.5l-57 37q1 1 7 10t8.5 12.5t9.5 12.5t12 13t13.5 10.5t16.5 9.5t19 5.5t23 2.5q28 0 51.5 -12.5t43.5 -25.5t40 -13t31.5 12t21.5 34l62 -32q-8 -14 -13.5 -23t-19.5 -25.5t-34 -25t-44 -8.5z" />
    <glyph glyph-name="uni00A0" unicode="&#xa0;" horiz-adv-x="260" 
 />
    <glyph glyph-name="exclamdown" unicode="&#xa1;" horiz-adv-x="243" 
d="M121 463q23 0 39.5 -16.5t16.5 -39.5t-16.5 -39.5t-39.5 -16.5t-39 16.5t-16 39.5t16 39.5t39 16.5zM75 -185l14 468h65l13 -468h-92z" />
    <glyph glyph-name="cent" unicode="&#xa2;" horiz-adv-x="439" 
d="M269 150q62 0 104 39l48 -55q-64 -51 -152 -51q-14 0 -28 1l-17 -84h-51l19 95q-72 23 -114 84.5t-42 140.5q0 100 65 168.5t168 68.5h17l17 83h51l-19 -91q48 -13 86 -43l-48 -55q-22 20 -52 30l-67 -330q7 -1 15 -1zM117 320q0 -54 23.5 -96t65.5 -61l66 327h-3
q-70 0 -111 -48.5t-41 -121.5z" />
    <glyph glyph-name="sterling" unicode="&#xa3;" horiz-adv-x="562" 
d="M222 294v-226h269v-68h-435v57l87 9v228h-87v63h87v74q0 106 58 165t152 59q87 0 153 -57l-44 -58q-47 46 -109 46q-60 0 -95.5 -39.5t-35.5 -115.5v-74h228v-63h-228z" />
    <glyph glyph-name="currency" unicode="&#xa4;" horiz-adv-x="561" 
d="M472 325q0 -62 -35 -112l68 -63l-46 -49l-69 65q-48 -32 -109 -32q-62 0 -111 34l-67 -67l-47 48l67 67q-33 49 -33 109q0 61 34 110l-68 68l47 47l68 -68q48 34 110 34t110 -33l67 67l47 -47l-67 -67q34 -49 34 -111zM163 325.5q0 -52.5 34 -88.5t84 -36t84 36t34 88.5
t-34 88.5t-84 36t-84 -36t-34 -88.5z" />
    <glyph glyph-name="yen" unicode="&#xa5;" horiz-adv-x="570" 
d="M551 640l-215 -323h138v-60h-150v-54h150v-60h-150v-143h-79v143h-149v60h149v54h-149v60h137l-214 323h91l175 -272l175 272h91z" />
    <glyph glyph-name="brokenbar" unicode="&#xa6;" horiz-adv-x="235" 
d="M86 625h63v-285h-63v285zM86 210h63v-285h-63v285z" />
    <glyph glyph-name="section" unicode="&#xa7;" horiz-adv-x="471" 
d="M415 213q-4 -80 -66 -120q50 -46 46 -115q-3 -68 -53.5 -103t-126.5 -35q-31 0 -61 8t-50.5 20t-36.5 24t-24 20l-7 9l48 53q2 -3 5.5 -7.5t16 -16t26.5 -20t36.5 -16t47.5 -7.5q51 -1 78.5 20t28.5 52q2 34 -21.5 59.5t-86.5 56.5q-3 2 -9 5q-24 14 -38.5 22.5t-39.5 28
t-39.5 37.5t-25.5 45t-11 56q1 84 74 122q-54 47 -54 108q1 56 42 95.5t116 40.5q26 1 51.5 -5t43 -14t31.5 -16.5t21 -14.5l7 -6l-47 -53q-5 5 -13.5 12.5t-35.5 21t-54 13.5q-38 1 -65 -20.5t-27 -52.5q-1 -30 29.5 -57t105.5 -63q69 -35 105 -84.5t33 -102.5zM277 140
l6 -3q58 22 61 80q2 40 -25 69t-104 69q-24 13 -25 13q-31 -8 -49.5 -27.5t-19.5 -45.5q-1 -36 35 -71.5t121 -83.5z" />
    <glyph glyph-name="dieresis" unicode="&#xa8;" horiz-adv-x="363" 
d="M92.5 623q20.5 0 35 -14.5t14.5 -35.5t-14.5 -35.5t-35 -14.5t-34.5 14.5t-14 35.5t14 35.5t34.5 14.5zM269.5 623q20.5 0 35 -14.5t14.5 -35.5t-14.5 -35.5t-35 -14.5t-34.5 14.5t-14 35.5t14 35.5t34.5 14.5z" />
    <glyph glyph-name="copyright" unicode="&#xa9;" horiz-adv-x="778" 
d="M389 -12q-96 0 -173 45t-118.5 121t-41.5 168q0 91 41.5 167t118.5 121t173 45q94 0 171 -45t119.5 -121t42.5 -167q0 -92 -42.5 -168t-119.5 -121t-171 -45zM389 34q124 0 204.5 84t80.5 204q0 119 -80 203t-205 84q-127 0 -206 -83.5t-79 -203.5q0 -121 78.5 -204.5
t206.5 -83.5zM397 121q-89 0 -144.5 57.5t-55.5 143t55.5 143t144.5 57.5q67 0 118 -36l-33 -52q-34 26 -85 26q-59 0 -95 -40.5t-36 -98.5t36 -99t95 -41q51 0 85 26l33 -50q-51 -36 -118 -36z" />
    <glyph glyph-name="ordfeminine" unicode="&#xaa;" horiz-adv-x="409" 
d="M318 651h56v-333h-56l-8 50q-36 -54 -116 -54q-68 0 -113 46.5t-45 124t45 124t113 46.5q77 0 117 -62zM208 375q49 0 78.5 31.5t29.5 78t-29.5 77.5t-78.5 31q-44 0 -71.5 -31t-27.5 -78t27.5 -78t71.5 -31zM51 204v57h322v-57h-322z" />
    <glyph glyph-name="guillemotleft" unicode="&#xab;" horiz-adv-x="440" 
d="M262 420l-151 -178l151 -178h-77l-149 178l149 178h77zM405 420l-152 -178l152 -178h-78l-149 178l149 178h78z" />
    <glyph glyph-name="logicalnot" unicode="&#xac;" horiz-adv-x="461" 
d="M50 299v63h361v-181h-63v118h-298z" />
    <glyph glyph-name="uni00AD" unicode="&#xad;" horiz-adv-x="347" 
d="M50 253v69h247v-69h-247z" />
    <glyph glyph-name="registered" unicode="&#xae;" horiz-adv-x="507" 
d="M254 655q91 0 150 -60.5t59 -147.5q0 -88 -59 -149t-150.5 -61t-150.5 61t-59 149q0 87 59 147.5t151 60.5zM254 269q78 0 127.5 51.5t49.5 126.5q0 74 -49 125t-128 51t-128.5 -51t-49.5 -125q0 -75 49.5 -126.5t128.5 -51.5zM340 490q0 -28 -17 -44.5t-42 -20.5l69 -91
h-60l-64 89h-7v-89h-45v223h35h5h5h46q31 0 53 -17.5t22 -49.5zM254 513h-35v-52h35q33 0 33 26t-33 26z" />
    <glyph glyph-name="macron" unicode="&#xaf;" horiz-adv-x="383" 
d="M44 648v54h295v-54h-295z" />
    <glyph glyph-name="degree" unicode="&#xb0;" horiz-adv-x="367" 
d="M183.5 655q57.5 0 98.5 -41t41 -98.5t-41 -98.5t-98.5 -41t-98.5 41t-41 98.5t41 98.5t98.5 41zM183.5 433q33.5 0 57 24t23.5 58t-23.5 58.5t-57 24.5t-57 -24.5t-23.5 -58.5t23.5 -58t57 -24z" />
    <glyph glyph-name="plusminus" unicode="&#xb1;" horiz-adv-x="514" 
d="M222 123v172h-172v68h172v173h68v-173h173v-68h-173v-172h-68zM51 68h413v-68h-413v68z" />
    <glyph glyph-name="uni00B2" unicode="&#xb2;" horiz-adv-x="368" 
d="M163 419h159v-59h-273v39l156 155q20 20 30 37t10 38q0 27 -16 44.5t-46 17.5q-16 0 -29.5 -5t-25.5 -17t-17 -18t-16 -21l-49 39q19 30 55.5 55.5t82.5 25.5q58 0 95 -32.5t37 -86.5q0 -58 -47 -105z" />
    <glyph glyph-name="uni00B3" unicode="&#xb3;" horiz-adv-x="371" 
d="M188 582q56 2 97 -28.5t40 -84.5q-1 -53 -41 -86t-109 -33q-42 0 -74 13.5t-65 41.5l39 49q13 -13 23 -21t31 -16t45 -8q36 0 57 15.5t23 41.5q3 42 -37 62q-35 17 -91 -4l-26 43l109 114h-150v59h250v-31z" />
    <glyph glyph-name="acute" unicode="&#xb4;" horiz-adv-x="294" 
d="M175 568q-35 -37 -55 -47.5t-42 -10.5h-34l125 151l81 -14z" />
    <glyph glyph-name="uni00B5" unicode="&#xb5;" horiz-adv-x="529" 
d="M380 450h78v-450h-68l-10 55q-50 -67 -129 -67q-53 0 -104 42l-8 -220h-68v640h79v-263q0 -59 27 -95t81 -36q47 0 81.5 34t40.5 109v251z" />
    <glyph glyph-name="paragraph" unicode="&#xb6;" horiz-adv-x="495" 
d="M410 640v-790h-61v736h-88v-736h-60v441h-7q-64 0 -106 50t-42 124q0 75 42 125t106 50h216z" />
    <glyph glyph-name="periodcentered" unicode="&#xb7;" horiz-adv-x="223" 
d="M111 219q-23 0 -39 16.5t-16 39.5t16 39.5t39 16.5t39.5 -16.5t16.5 -39.5t-16.5 -39.5t-39.5 -16.5z" />
    <glyph glyph-name="cedilla" unicode="&#xb8;" horiz-adv-x="332" 
d="M198 -42v-1q30 -3 49 -21.5t19 -51.5q0 -34 -31 -57t-85 -23q-27 0 -50.5 5.5t-33.5 10.5l-10 6l21 43q25 -17 66 -18q30 -2 44 10t13 28q-1 24 -29.5 29t-53.5 -7l-26 23l63 88l38 -1v-14l-43 -58q2 2 5.5 3.5t16.5 4t27 1.5z" />
    <glyph glyph-name="uni00B9" unicode="&#xb9;" horiz-adv-x="246" 
d="M137 740h64l-1 -380h-69v305l-86 -53l-29 52z" />
    <glyph glyph-name="ordmasculine" unicode="&#xba;" horiz-adv-x="418" 
d="M209 313q-76 0 -124.5 49.5t-48.5 121.5q0 71 48.5 121t124.5 50t124.5 -50t48.5 -121q0 -72 -48.5 -121.5t-124.5 -49.5zM209 375q45 0 72.5 32t27.5 77.5t-27.5 77t-72.5 31.5t-72.5 -31.5t-27.5 -77t27.5 -77.5t72.5 -32zM43 204v57h332v-57h-332z" />
    <glyph glyph-name="guillemotright" unicode="&#xbb;" horiz-adv-x="440" 
d="M113 420l149 -178l-149 -178h-77l151 178l-151 178h77zM256 420l149 -178l-149 -178h-78l151 178l-151 178h78z" />
    <glyph glyph-name="questiondown" unicode="&#xbf;" horiz-adv-x="479" 
d="M272.5 464q23.5 0 39.5 -16.5t16 -39.5t-16 -39.5t-39.5 -16.5t-39.5 16.5t-16 39.5t16 39.5t39.5 16.5zM310 284v-173q-73 2 -123 -30t-48 -95q1 -51 36 -84t88 -33q82 0 130 67l56 -45q-72 -91 -187 -91q-87 0 -146 49.5t-60 129.5q-1 47 16 83t45 57.5t57.5 33.5
t60.5 16v115h75z" />
    <glyph glyph-name="Agrave" unicode="&#xc0;" horiz-adv-x="599" 
d="M360 690q-23 0 -43 10.5t-54 47.5l-75 79l81 14l125 -151h-34zM505 0l-70 185h-271l-70 -185h-88l253 640h82l253 -640h-89zM186 244h227l-113 300z" />
    <glyph glyph-name="Aacute" unicode="&#xc1;" horiz-adv-x="599" 
d="M355 748q-35 -37 -55 -47.5t-42 -10.5h-34l125 151l81 -14zM505 0l-70 185h-271l-70 -185h-88l253 640h82l253 -640h-89zM186 244h227l-113 300z" />
    <glyph glyph-name="Acircumflex" unicode="&#xc2;" horiz-adv-x="599" 
d="M256 712q-12 -13 -21.5 -17.5t-25.5 -4.5h-53l107 117h73l108 -117h-53q-17 0 -26.5 4.5t-21.5 17.5l-43 43zM505 0l-70 185h-271l-70 -185h-88l253 640h82l253 -640h-89zM186 244h227l-113 300z" />
    <glyph glyph-name="Atilde" unicode="&#xc3;" horiz-adv-x="599" 
d="M250 734q-30 0 -52 -37l-47 31q1 1 6 8.5l7 10.5t8 10t10 10.5t11 9t14 8t16 4.5t19 2q29 0 61.5 -21t50.5 -21q17 0 26.5 10t17.5 28l51 -27q-35 -68 -92 -68q-28 0 -58.5 21t-48.5 21zM505 0l-70 185h-271l-70 -185h-88l253 640h82l253 -640h-89zM186 244h227l-113 300
z" />
    <glyph glyph-name="Adieresis" unicode="&#xc4;" horiz-adv-x="599" 
d="M210.5 702q-20.5 0 -34.5 14.5t-14 36.5q0 20 14 34.5t34.5 14.5t35 -14.5t14.5 -34.5q0 -21 -14.5 -36t-35 -15zM387.5 702q-20.5 0 -34.5 14.5t-14 36.5q0 20 14 34.5t34.5 14.5t35 -14.5t14.5 -34.5q0 -21 -14.5 -36t-35 -15zM505 0l-70 185h-271l-70 -185h-88
l253 640h82l253 -640h-89zM186 244h227l-113 300z" />
    <glyph glyph-name="Aring" unicode="&#xc5;" horiz-adv-x="599" 
d="M300 671q-45 0 -77 31t-32 74.5t32 74.5t77 31t76.5 -31t31.5 -74.5t-31.5 -74.5t-76.5 -31zM300 829q-23 0 -39.5 -15.5t-16.5 -37t16.5 -37t39.5 -15.5t39 15.5t16 37t-16 37t-39 15.5zM505 0l-70 185h-271l-70 -185h-88l253 640h82l253 -640h-89zM186 244h227
l-113 300z" />
    <glyph glyph-name="AE" unicode="&#xc6;" horiz-adv-x="787" 
d="M732 571h-373l61 -217h262v-68h-242l61 -215h231v-71h-298l-45 178h-231l-64 -178h-88l253 643h473v-72zM183 247h188l-78 307z" />
    <glyph glyph-name="Ccedilla" unicode="&#xc7;" horiz-adv-x="622" 
d="M389 -12h-6l-29 -39q2 1 5.5 3t16.5 4.5t27 0.5q29 -3 48.5 -21.5t19.5 -51.5q0 -34 -31 -57t-86 -23q-26 0 -49.5 5.5t-34.5 10.5l-10 6l22 42q25 -16 66 -18q29 -1 43 11t14 28q-1 24 -30 29t-53 -8l-27 24l42 57q-127 18 -204 110t-77 220q0 143 93 238.5t240 95.5
q112 0 198 -60l-45 -66q-65 52 -153 52q-111 0 -179 -75t-68 -184.5t68 -184.5t179 -75q88 0 153 52l45 -66q-86 -60 -198 -60z" />
    <glyph glyph-name="Egrave" unicode="&#xc8;" horiz-adv-x="515" 
d="M330 690q-22 0 -42 10.5t-55 47.5l-75 79l81 14l125 -151h-34zM459 569h-291v-215h241v-68h-241v-215h291v-71h-373v640h373v-71z" />
    <glyph glyph-name="Eacute" unicode="&#xc9;" horiz-adv-x="515" 
d="M325 748q-35 -37 -55 -47.5t-42 -10.5h-34l125 151l81 -14zM459 569h-291v-215h241v-68h-241v-215h291v-71h-373v640h373v-71z" />
    <glyph glyph-name="Ecircumflex" unicode="&#xca;" horiz-adv-x="515" 
d="M226 712q-12 -13 -21.5 -17.5t-25.5 -4.5h-53l107 117h73l108 -117h-53q-17 0 -26.5 4.5t-21.5 17.5l-43 43zM459 568l-291 1v-215h241v-68h-241v-215h291v-71h-373v640h373v-72z" />
    <glyph glyph-name="Edieresis" unicode="&#xcb;" horiz-adv-x="515" 
d="M180.5 702q-20.5 0 -34.5 14.5t-14 36.5q0 20 14 34.5t34.5 14.5t35.5 -14.5t15 -34.5q0 -21 -15 -36t-35.5 -15zM357.5 702q-20.5 0 -34.5 14.5t-14 36.5q0 20 14 34.5t34.5 14.5t35 -14.5t14.5 -34.5q0 -21 -14.5 -36t-35 -15zM459 569h-291v-215h241v-68h-241v-215
h291v-71h-373v640h373v-71z" />
    <glyph glyph-name="Igrave" unicode="&#xcc;" horiz-adv-x="253" 
d="M90 748l-75 79l81 14l125 -151h-34q-22 0 -42 10.5t-55 47.5zM168 640v-640h-82v640h82z" />
    <glyph glyph-name="Iacute" unicode="&#xcd;" horiz-adv-x="253" 
d="M182 748q-35 -37 -55 -47.5t-42 -10.5h-34l125 151l81 -14zM168 640v-640h-82v640h82z" />
    <glyph glyph-name="Icircumflex" unicode="&#xce;" horiz-adv-x="253" 
d="M163 807l108 -117h-53q-17 0 -26.5 4.5t-21.5 17.5l-43 43l-44 -43q-12 -13 -21.5 -17.5t-25.5 -4.5h-53l107 117h73zM86 0v640h82v-640h-82z" />
    <glyph glyph-name="Idieresis" unicode="&#xcf;" horiz-adv-x="253" 
d="M37.5 802q20.5 0 35.5 -14.5t15 -34.5q0 -21 -15 -36t-35.5 -15t-34.5 14.5t-14 36.5q0 20 14 34.5t34.5 14.5zM214.5 802q20.5 0 35 -14.5t14.5 -34.5q0 -21 -14.5 -36t-35 -15t-34.5 14.5t-14 36.5q0 20 14 34.5t34.5 14.5zM168 640v-640h-82v640h82z" />
    <glyph glyph-name="Eth" unicode="&#xd0;" horiz-adv-x="661" 
d="M260 640q83 0 149.5 -25t109 -68.5t64.5 -101t22 -125t-22 -125t-64.5 -101.5t-109 -69t-149.5 -25h-174v295h-66v54h66v291h174zM244 66q138 0 206.5 68t68.5 187q0 118 -68.5 185.5t-206.5 67.5h-76v-225h147v-54h-147v-229h76z" />
    <glyph glyph-name="Ntilde" unicode="&#xd1;" horiz-adv-x="691" 
d="M296 734q-31 0 -52 -37l-47 31q1 1 6 8.5l7 10.5t7.5 10t10 10.5t11.5 9t14 8t16 4.5t19 2q29 0 61.5 -21t50.5 -21q16 0 26 10t18 28l51 -27q-35 -68 -92 -68q-28 0 -58.5 21t-48.5 21zM525 640h80v-640h-78l-361 506v-506h-80v640h78l361 -503v503z" />
    <glyph glyph-name="Ograve" unicode="&#xd2;" horiz-adv-x="780" 
d="M353 748l-74 79l80 14l125 -151h-34q-22 0 -42 10.5t-55 47.5zM390 -12q-98 0 -175 45t-118 120.5t-41 168.5q0 142 93 237.5t241 95.5t241.5 -95.5t93.5 -237.5q0 -93 -41.5 -168.5t-118.5 -120.5t-175 -45zM390 62q111 0 180 75t69 185q0 109 -69 184t-180 75
t-179.5 -75t-68.5 -184q0 -110 68.5 -185t179.5 -75z" />
    <glyph glyph-name="Oacute" unicode="&#xd3;" horiz-adv-x="780" 
d="M446 748q-35 -37 -55 -47.5t-42 -10.5h-35l125 151l81 -14zM390 -12q-98 0 -175 44.5t-118 120.5t-41 169q0 142 93 237.5t241 95.5t241.5 -95.5t93.5 -237.5q0 -93 -41.5 -169t-118.5 -120.5t-175 -44.5zM390 62q111 0 180 75t69 185q0 109 -69 184t-180 75t-179.5 -75
t-68.5 -184q0 -110 68.5 -185t179.5 -75z" />
    <glyph glyph-name="Ocircumflex" unicode="&#xd4;" horiz-adv-x="780" 
d="M347 712q-13 -13 -22.5 -17.5t-25.5 -4.5h-53l108 117h72l108 -117h-53q-16 0 -25.5 4.5t-21.5 17.5l-44 43zM390 655q148 0 241.5 -95.5t93.5 -237.5q0 -93 -41.5 -168.5t-118.5 -120.5t-175 -45t-175 45t-118 120.5t-41 168.5q0 142 93 237.5t241 95.5zM390 62
q111 0 180 75t69 185q0 109 -69 184t-180 75t-179.5 -75t-68.5 -184q0 -110 68.5 -185t179.5 -75z" />
    <glyph glyph-name="Otilde" unicode="&#xd5;" horiz-adv-x="780" 
d="M448 692q-28 0 -58.5 21t-48.5 21q-31 0 -52 -37l-47 31q0 1 5 8.5t7.5 10.5t8 10t9.5 10.5t11.5 9t14 8t16 4.5t18.5 2q29 0 61.5 -21t51.5 -21q16 0 25.5 10t18.5 28l51 -27q-36 -68 -92 -68zM390 -12q-98 0 -175 44.5t-118 120.5t-41 169q0 142 93 237.5t241 95.5
t241.5 -95.5t93.5 -237.5q0 -93 -41.5 -169t-118.5 -120.5t-175 -44.5zM390 62q111 0 180 75t69 185q0 109 -69 184t-180 75t-179.5 -75t-68.5 -184q0 -110 68.5 -185t179.5 -75z" />
    <glyph glyph-name="Odieresis" unicode="&#xd6;" horiz-adv-x="780" 
d="M301.5 802q20.5 0 35 -14.5t14.5 -34.5q0 -21 -14.5 -36t-35 -15t-34.5 14.5t-14 36.5q0 20 14 34.5t34.5 14.5zM478.5 802q20.5 0 35 -14.5t14.5 -34.5q0 -21 -14.5 -36t-35 -15t-35 14.5t-14.5 36.5q0 20 14.5 34.5t35 14.5zM390 -12q-98 0 -175 45t-118 120.5
t-41 168.5q0 142 93 237.5t241 95.5t241.5 -95.5t93.5 -237.5q0 -93 -41.5 -168.5t-118.5 -120.5t-175 -45zM390 62q111 0 180 75t69 185q0 109 -69 184t-180 75t-179.5 -75t-68.5 -184q0 -110 68.5 -185t179.5 -75z" />
    <glyph glyph-name="multiply" unicode="&#xd7;" horiz-adv-x="440" 
d="M390 410l-122 -122l122 -122l-48 -48l-122 122l-122 -122l-48 48l122 122l-122 122l48 48l122 -122l122 122z" />
    <glyph glyph-name="Oslash" unicode="&#xd8;" horiz-adv-x="780" 
d="M636 555q89 -94 89 -233q0 -93 -41.5 -168.5t-118.5 -120.5t-175 -45q-119 0 -206 66l-73 -80l-39 35l72 80q-88 94 -88 233q0 142 93 237.5t241 95.5q119 0 206 -65l73 80l40 -35zM142 322q0 -100 57 -172l344 381q-64 50 -153 50q-111 0 -179.5 -75t-68.5 -184zM390 62
q111 0 180 75t69 185q0 100 -58 172l-344 -381q64 -51 153 -51z" />
    <glyph glyph-name="Ugrave" unicode="&#xd9;" horiz-adv-x="635" 
d="M280 748l-74 79l81 14l125 -151h-35q-22 0 -42 10.5t-55 47.5zM317.5 -12q-109.5 0 -173 63t-63.5 196v393h82v-383q0 -102 41.5 -148.5t113 -46.5t113 46.5t41.5 148.5v383h82v-393q0 -133 -63.5 -196t-173 -63z" />
    <glyph glyph-name="Uacute" unicode="&#xda;" horiz-adv-x="635" 
d="M373 748q-35 -37 -55 -47.5t-42 -10.5h-34l125 151l81 -14zM317.5 -12q-109.5 0 -173 63t-63.5 196v393h82v-383q0 -102 41.5 -148.5t113 -46.5t113 46.5t41.5 148.5v383h82v-393q0 -133 -63.5 -196t-173 -63z" />
    <glyph glyph-name="Ucircumflex" unicode="&#xdb;" horiz-adv-x="635" 
d="M274 712q-12 -13 -21.5 -17.5t-25.5 -4.5h-54l108 117h73l108 -117h-54q-16 0 -25.5 4.5t-21.5 17.5l-44 43zM472 640h82v-393q0 -133 -63.5 -196t-173 -63t-173 63t-63.5 196v393h82v-383q0 -102 41.5 -148.5t113 -46.5t113 46.5t41.5 148.5v383z" />
    <glyph glyph-name="Udieresis" unicode="&#xdc;" horiz-adv-x="635" 
d="M228.5 802q20.5 0 35 -14.5t14.5 -34.5q0 -21 -14.5 -36t-35 -15t-34.5 14.5t-14 36.5q0 20 14 34.5t34.5 14.5zM405.5 802q20.5 0 35 -14.5t14.5 -34.5q0 -21 -14.5 -36t-35 -15t-34.5 14.5t-14 36.5q0 20 14 34.5t34.5 14.5zM317.5 -12q-109.5 0 -173 63t-63.5 196v393
h82v-383q0 -102 41.5 -148.5t113 -46.5t113 46.5t41.5 148.5v383h82v-393q0 -133 -63.5 -196t-173 -63z" />
    <glyph glyph-name="Yacute" unicode="&#xdd;" horiz-adv-x="526" 
d="M318 748q-34 -37 -54 -47.5t-42 -10.5h-35l125 151l81 -14zM530 640l-226 -340v-300h-82v300l-226 340h96l171 -262l171 262h96z" />
    <glyph glyph-name="Thorn" unicode="&#xde;" horiz-adv-x="514" 
d="M278 519q33 0 66 -12t61 -34t46 -58.5t18 -81.5t-18 -81.5t-46 -58.5t-61 -34t-66 -13l-110 -1v-145h-82v639l82 1v-120zM244 211q65 -1 102 31t37 91q0 58 -37 90.5t-102 31.5l-76 -1v-242z" />
    <glyph glyph-name="germandbls" unicode="&#xdf;" horiz-adv-x="553" 
d="M240 -4l-12 74q85 -10 134.5 19t50.5 97q1 67 -48 100.5t-120 33.5h-17v65h21q57 0 92 33.5t35 89.5q0 45 -31 71t-68 26q-55 0 -83.5 -43t-28.5 -114v-448h-79v448q0 62 16 107.5t44.5 71.5t62.5 38t75 12q71 0 121.5 -46.5t50.5 -117.5q0 -63 -31 -102.5t-69 -53.5
q61 -14 101 -56.5t40 -113.5q0 -104 -72 -154.5t-185 -36.5z" />
    <glyph glyph-name="agrave" unicode="&#xe0;" 
d="M338 530q-22 0 -42 10.5t-55 48.5l-74 79l81 14l124 -152h-34zM419 450h64v-450h-64l-11 68q-57 -80 -161 -80q-91 0 -151 65t-60 172.5t60 172t151 64.5q104 0 161 -80zM264 55q67 0 108.5 48.5t41.5 121.5t-41.5 121.5t-108.5 48.5t-107 -48.5t-40 -121.5t40 -121.5
t107 -48.5z" />
    <glyph glyph-name="aacute" unicode="&#xe1;" 
d="M334 589q-35 -38 -55 -48.5t-42 -10.5h-34l124 152l81 -14zM419 450h64v-450h-64l-11 68q-57 -80 -161 -80q-91 0 -151 65t-60 172.5t60 172t151 64.5q104 0 161 -80zM264 55q67 0 108.5 48.5t41.5 121.5t-41.5 121.5t-108.5 48.5t-107 -48.5t-40 -121.5t40 -121.5
t107 -48.5z" />
    <glyph glyph-name="acircumflex" unicode="&#xe2;" 
d="M235 552q-13 -12 -22.5 -16.5t-25.5 -4.5h-53l108 116h72l108 -116h-53q-16 0 -25.5 4.5t-21.5 16.5l-44 43zM419 450h64v-450h-64l-11 68q-57 -80 -161 -80q-91 0 -151 65t-60 172.5t60 172t151 64.5q104 0 161 -80zM264 55q67 0 108.5 48.5t41.5 121.5t-41.5 121.5
t-108.5 48.5t-107 -48.5t-40 -121.5t40 -121.5t107 -48.5z" />
    <glyph glyph-name="atilde" unicode="&#xe3;" 
d="M229 574q-31 0 -52 -37l-47 31q0 1 5 8.5t7.5 10.5t8 10t9.5 11t11.5 9t14 7.5t16 4.5t18.5 2q29 0 61.5 -21t51.5 -21q16 0 25.5 10t18.5 28l51 -26q-36 -69 -92 -69q-28 0 -58.5 21t-48.5 21zM419 450h64v-450h-64l-11 68q-57 -80 -161 -80q-91 0 -151 65t-60 172.5
t60 172t151 64.5q104 0 161 -80zM264 55q67 0 108.5 48.5t41.5 121.5t-41.5 121.5t-108.5 48.5t-107 -48.5t-40 -121.5t40 -121.5t107 -48.5z" />
    <glyph glyph-name="adieresis" unicode="&#xe4;" 
d="M189.5 542q-20.5 0 -34.5 15t-14 36q0 20 14 34.5t34.5 14.5t35 -14.5t14.5 -34.5q0 -21 -14.5 -36t-35 -15zM366.5 542q-20.5 0 -35 15t-14.5 36q0 20 14.5 34.5t35 14.5t35 -14.5t14.5 -34.5q0 -21 -14.5 -36t-35 -15zM419 450h64v-450h-64l-11 68q-57 -80 -161 -80
q-91 0 -151 65t-60 172.5t60 172t151 64.5q104 0 161 -80zM264 55q67 0 108.5 48.5t41.5 121.5t-41.5 121.5t-108.5 48.5t-107 -48.5t-40 -121.5t40 -121.5t107 -48.5z" />
    <glyph glyph-name="aring" unicode="&#xe5;" 
d="M278 511q-45 0 -76.5 31t-31.5 74.5t31.5 74.5t76.5 31t77 -31t32 -74.5t-32 -74.5t-77 -31zM278 669q-23 0 -39 -15.5t-16 -37t16 -37t39 -15.5t39.5 15.5t16.5 37t-16.5 37t-39.5 15.5zM419 450h64v-450h-64l-11 68q-57 -80 -161 -80q-91 0 -151 65t-60 172.5t60 172
t151 64.5q104 0 161 -80zM264 55q67 0 108.5 48.5t41.5 121.5t-41.5 121.5t-108.5 48.5t-107 -48.5t-40 -121.5t40 -121.5t107 -48.5z" />
    <glyph glyph-name="ae" unicode="&#xe6;" horiz-adv-x="894" 
d="M864 240v-29h-360q4 -69 44.5 -112.5t107.5 -43.5q82 0 128 56l56 -46q-30 -37 -78 -57t-105 -20q-103 0 -169 66v-54h-64l-11 68q-57 -80 -161 -80q-91 0 -151 65t-60 172.5t60 172t151 64.5q104 0 161 -80l11 68h64v-53q64 65 159 65q96 0 156.5 -63t60.5 -159z
M647 396q-54 0 -91 -36t-48 -94h277q-7 61 -43.5 95.5t-94.5 34.5zM269 55q67 0 108.5 48.5t41.5 121.5t-41.5 121.5t-108.5 48.5t-107 -48.5t-40 -121.5t40 -121.5t107 -48.5z" />
    <glyph glyph-name="ccedilla" unicode="&#xe7;" horiz-adv-x="439" 
d="M421 39q-60 -48 -142 -51l-29 -39q1 1 5 3t16.5 4.5t27.5 0.5q29 -3 48.5 -21.5t19.5 -51.5q0 -34 -31.5 -57t-85.5 -23q-27 0 -50.5 5.5t-33.5 10.5l-10 6l22 43q24 -17 66 -18q29 -2 43 10t13 28q-1 24 -29.5 29t-52.5 -7l-27 23l41 57q-88 12 -142 78t-54 156
q0 100 65 168.5t168 68.5q88 0 152 -51l-48 -55q-42 39 -104 39q-70 0 -111 -48t-41 -121.5t41 -122t111 -48.5q62 0 104 40z" />
    <glyph glyph-name="egrave" unicode="&#xe8;" horiz-adv-x="514" 
d="M322 530q-22 0 -42 10.5t-55 48.5l-75 79l81 14l125 -152h-34zM478 240v-29h-359q3 -69 44 -112.5t108 -43.5q82 0 127 56l56 -46q-30 -37 -77.5 -57t-105.5 -20q-105 0 -170 68t-65 169q0 100 64 168.5t162 68.5q96 0 156 -63t60 -159zM262 396q-54 0 -91.5 -36
t-47.5 -94h277q-7 61 -43.5 95.5t-94.5 34.5z" />
    <glyph glyph-name="eacute" unicode="&#xe9;" horiz-adv-x="514" 
d="M318 589q-35 -38 -55 -48.5t-42 -10.5h-35l125 152l81 -14zM478 240v-29h-359q3 -69 44 -112.5t108 -43.5q82 0 127 56l56 -46q-30 -37 -77.5 -57t-105.5 -20q-105 0 -170 68t-65 169q0 100 64 168.5t162 68.5q96 0 156 -63t60 -159zM262 396q-54 0 -91.5 -36t-47.5 -94
h277q-7 61 -43.5 95.5t-94.5 34.5z" />
    <glyph glyph-name="ecircumflex" unicode="&#xea;" horiz-adv-x="514" 
d="M219 552q-13 -12 -22.5 -16.5t-25.5 -4.5h-53l108 116h72l108 -116h-53q-16 0 -25.5 4.5t-22.5 16.5l-43 43zM478 240v-29h-359q3 -69 44 -112.5t108 -43.5q82 0 127 56l56 -46q-30 -37 -77.5 -57t-105.5 -20q-105 0 -170 68t-65 169q0 100 64 168.5t162 68.5
q96 0 156 -63t60 -159zM262 396q-54 0 -91.5 -36t-47.5 -94h277q-7 61 -43.5 95.5t-94.5 34.5z" />
    <glyph glyph-name="edieresis" unicode="&#xeb;" horiz-adv-x="514" 
d="M173.5 542q-20.5 0 -35 15t-14.5 36q0 20 14.5 34.5t35 14.5t35 -14.5t14.5 -34.5q0 -21 -14.5 -36t-35 -15zM350 542q-20 0 -34.5 15t-14.5 36q0 20 14.5 34.5t34.5 14.5t35 -14.5t15 -34.5q0 -21 -15 -36t-35 -15zM478 240v-29h-359q3 -69 44 -112.5t108 -43.5
q82 0 127 56l56 -46q-30 -37 -77.5 -57t-105.5 -20q-105 0 -170 68t-65 169q0 100 64 168.5t162 68.5q96 0 156 -63t60 -159zM262 396q-54 0 -91.5 -36t-47.5 -94h277q-7 61 -43.5 95.5t-94.5 34.5z" />
    <glyph glyph-name="igrave" unicode="&#xec;" horiz-adv-x="218" 
d="M72 589l-74 79l80 14l125 -152h-34q-22 0 -42 10.5t-55 48.5zM71 0v451h76v-451h-76z" />
    <glyph glyph-name="iacute" unicode="&#xed;" horiz-adv-x="218" 
d="M165 589q-35 -38 -55 -48.5t-42 -10.5h-35l125 152l81 -14zM71 0v451h76v-451h-76z" />
    <glyph glyph-name="icircumflex" unicode="&#xee;" horiz-adv-x="218" 
d="M145 647l108 -116h-53q-16 0 -25.5 4.5t-22.5 16.5l-43 43l-43 -43q-13 -12 -22.5 -16.5t-25.5 -4.5h-53l108 116h72zM71 0v451h76v-451h-76z" />
    <glyph glyph-name="idieresis" unicode="&#xef;" horiz-adv-x="218" 
d="M20.5 642q20.5 0 35 -14.5t14.5 -34.5q0 -21 -14.5 -36t-35 -15t-35 15t-14.5 36q0 20 14.5 34.5t35 14.5zM197 642q20 0 35 -14.5t15 -34.5q0 -21 -15 -36t-35 -15t-34.5 15t-14.5 36q0 20 14.5 34.5t34.5 14.5zM71 0v451h76v-451h-76z" />
    <glyph glyph-name="eth" unicode="&#xf0;" horiz-adv-x="537" 
d="M317 571q94 -97 139.5 -183t45.5 -170q0 -97 -65.5 -163.5t-167.5 -66.5t-167.5 66.5t-65.5 163.5t65 163.5t167 66.5q39 1 66 -11q-35 44 -91 99l-102 -47l-40 39l101 48q-26 25 -62 59l69 39q37 -33 68 -63l95 44l45 -37zM269 56q69 0 110.5 46t41.5 116t-41.5 116.5
t-110.5 46.5t-111 -46.5t-42 -116.5q0 -69 42 -115.5t111 -46.5z" />
    <glyph glyph-name="ntilde" unicode="&#xf1;" horiz-adv-x="524" 
d="M216 574q-30 0 -52 -37l-47 31q1 1 6 8.5l7 10.5t7.5 10t10 11t11.5 9t14 7.5t16 4.5t19 2q29 0 61.5 -21t50.5 -21q16 0 26 10t18 28l51 -26q-35 -69 -92 -69q-28 0 -58.5 21t-48.5 21zM288 462q32 0 61 -9.5t54.5 -29.5t40 -58t14.5 -88v-277h-78v263q0 60 -27 95.5
t-82 35.5q-47 0 -81.5 -34t-39.5 -109v-251h-79v451h68l10 -55q50 66 139 66z" />
    <glyph glyph-name="ograve" unicode="&#xf2;" horiz-adv-x="546" 
d="M236 589l-75 79l81 14l125 -152h-34q-22 0 -42 10.5t-55 48.5zM273 -12q-104 0 -170.5 68.5t-66.5 168.5t66.5 168.5t170.5 68.5t170.5 -68.5t66.5 -168.5t-66.5 -168.5t-170.5 -68.5zM272.5 56q67.5 0 111 48.5t43.5 120.5t-43.5 120.5t-111 48.5t-110.5 -48.5
t-43 -120.5t43 -120.5t110.5 -48.5z" />
    <glyph glyph-name="oacute" unicode="&#xf3;" horiz-adv-x="546" 
d="M328 589q-34 -38 -54 -48.5t-43 -10.5h-34l125 152l81 -14zM273 -12q-104 0 -170.5 68.5t-66.5 168.5t66.5 168.5t170.5 68.5t170.5 -68.5t66.5 -168.5t-66.5 -168.5t-170.5 -68.5zM272.5 56q67.5 0 111 48.5t43.5 120.5t-43.5 120.5t-111 48.5t-110.5 -48.5t-43 -120.5
t43 -120.5t110.5 -48.5z" />
    <glyph glyph-name="ocircumflex" unicode="&#xf4;" horiz-adv-x="546" 
d="M229 552q-12 -12 -21.5 -16.5t-25.5 -4.5h-53l108 116h72l108 -116h-53q-16 0 -25.5 4.5t-22.5 16.5l-43 43zM273 462q104 0 170.5 -68.5t66.5 -168.5t-66.5 -168.5t-170.5 -68.5t-170.5 68.5t-66.5 168.5t66.5 168.5t170.5 68.5zM272.5 56q67.5 0 111 48.5t43.5 120.5
t-43.5 120.5t-111 48.5t-110.5 -48.5t-43 -120.5t43 -120.5t110.5 -48.5z" />
    <glyph glyph-name="otilde" unicode="&#xf5;" horiz-adv-x="546" 
d="M330 532q-28 0 -58 21t-49 21q-30 0 -52 -37l-47 31q1 1 6 8.5l7 10.5t8 10t10 11t11 9t14 7.5t16 4.5t19 2q29 0 61.5 -21t50.5 -21q17 0 26.5 10t17.5 28l51 -26q-35 -69 -92 -69zM273 -12q-104 0 -170.5 68.5t-66.5 168.5t66.5 168.5t170.5 68.5t170.5 -68.5
t66.5 -168.5t-66.5 -168.5t-170.5 -68.5zM272.5 56q67.5 0 111 48.5t43.5 120.5t-43.5 120.5t-111 48.5t-110.5 -48.5t-43 -120.5t43 -120.5t110.5 -48.5z" />
    <glyph glyph-name="odieresis" unicode="&#xf6;" horiz-adv-x="546" 
d="M184 642q20 0 35 -14.5t15 -34.5q0 -21 -15 -36t-35 -15t-34.5 15t-14.5 36q0 20 14.5 34.5t34.5 14.5zM360.5 642q20.5 0 35 -14.5t14.5 -34.5q0 -21 -14.5 -36t-35 -15t-34.5 15t-14 36q0 20 14 34.5t34.5 14.5zM273 -12q-104 0 -170.5 68.5t-66.5 168.5t66.5 168.5
t170.5 68.5t170.5 -68.5t66.5 -168.5t-66.5 -168.5t-170.5 -68.5zM272.5 56q67.5 0 111 48.5t43.5 120.5t-43.5 120.5t-111 48.5t-110.5 -48.5t-43 -120.5t43 -120.5t110.5 -48.5z" />
    <glyph glyph-name="divide" unicode="&#xf7;" horiz-adv-x="512" 
d="M256 388q-21 0 -36 15t-15 36t15 36t36 15t36 -15t15 -36t-15 -36t-36 -15zM50 253v69h413v-69h-413zM256 85q-21 0 -36 15t-15 36t15 36t36 15t36 -15t15 -36t-15 -36t-36 -15z" />
    <glyph glyph-name="oslash" unicode="&#xf8;" horiz-adv-x="546" 
d="M449 389q61 -67 61 -164q0 -100 -66 -168.5t-171 -68.5q-84 0 -145 45l-52 -57l-31 28l52 57q-61 67 -61 164q0 101 65.5 169t171.5 68q83 0 145 -45l51 57l32 -28zM116 225q0 -62 32 -107l220 244q-39 32 -95 32q-70 0 -113.5 -48t-43.5 -121zM273 56q70 0 112.5 48
t42.5 121q0 62 -31 106l-220 -243q40 -32 96 -32z" />
    <glyph glyph-name="ugrave" unicode="&#xf9;" horiz-adv-x="518" 
d="M222 589l-74 79l80 14l125 -152h-34q-22 0 -42 10.5t-55 48.5zM259.5 -12q-37.5 0 -70 10t-61.5 31.5t-45.5 62t-16.5 95.5v263h79v-263q0 -61 30 -96t84.5 -35t84.5 35t30 96v263h78v-263q0 -55 -16.5 -95.5t-45.5 -62t-61 -31.5t-69.5 -10z" />
    <glyph glyph-name="uacute" unicode="&#xfa;" horiz-adv-x="518" 
d="M315 589q-35 -38 -55 -48.5t-42 -10.5h-35l125 152l81 -14zM259.5 -12q-37.5 0 -70 10t-61.5 31.5t-45.5 62t-16.5 95.5v263h79v-263q0 -61 30 -96t84.5 -35t84.5 35t30 96v263h78v-263q0 -55 -16.5 -95.5t-45.5 -62t-61 -31.5t-69.5 -10z" />
    <glyph glyph-name="ucircumflex" unicode="&#xfb;" horiz-adv-x="518" 
d="M216 552q-13 -12 -22.5 -16.5t-25.5 -4.5h-53l108 116h72l108 -116h-53q-16 0 -25.5 4.5t-21.5 16.5l-44 43zM374 450h78v-263q0 -55 -16.5 -95.5t-45.5 -62t-61 -31.5t-69.5 -10t-70 10t-61.5 31.5t-45.5 62t-16.5 95.5v263h79v-263q0 -61 30 -96t84.5 -35t84.5 35
t30 96v263z" />
    <glyph glyph-name="udieresis" unicode="&#xfc;" horiz-adv-x="518" 
d="M170.5 642q20.5 0 35 -14.5t14.5 -34.5q0 -21 -14.5 -36t-35 -15t-34.5 15t-14 36q0 20 14 34.5t34.5 14.5zM347.5 642q20.5 0 35 -14.5t14.5 -34.5q0 -21 -14.5 -36t-35 -15t-35 15t-14.5 36q0 20 14.5 34.5t35 14.5zM259.5 -12q-37.5 0 -70 10t-61.5 31.5t-45.5 62
t-16.5 95.5v263h79v-263q0 -61 30 -96t84.5 -35t84.5 35t30 96v263h78v-263q0 -55 -16.5 -95.5t-45.5 -62t-61 -31.5t-69.5 -10z" />
    <glyph glyph-name="yacute" unicode="&#xfd;" horiz-adv-x="454" 
d="M282 589q-34 -38 -54 -48.5t-43 -10.5h-34l125 152l81 -14zM368 450h85l-279 -660h-83l97 220l-187 440h85l141 -347z" />
    <glyph glyph-name="thorn" unicode="&#xfe;" 
d="M307 462q91 0 151 -64.5t60 -172t-60 -172.5t-151 -65q-101 0 -157 75v-253h-79v830h79v-253q56 75 157 75zM290 55q66 0 106.5 48.5t40.5 121.5t-40.5 121.5t-106.5 48.5q-67 0 -109 -48.5t-42 -121.5t42 -121.5t109 -48.5z" />
    <glyph glyph-name="ydieresis" unicode="&#xff;" horiz-adv-x="454" 
d="M138 542q-20 0 -34.5 15t-14.5 36q0 20 14.5 34.5t34.5 14.5t35 -14.5t15 -34.5q0 -21 -15 -36t-35 -15zM314.5 542q-20.5 0 -34.5 15t-14 36q0 20 14 34.5t34.5 14.5t35 -14.5t14.5 -34.5q0 -21 -14.5 -36t-35 -15zM368 450h85l-279 -660h-83l97 220l-187 440h85
l141 -347z" />
    <glyph glyph-name="Amacron" unicode="&#x100;" horiz-adv-x="599" 
d="M433 773v-52h-267v52h267zM505 0l-70 185h-271l-70 -185h-88l253 640h82l253 -640h-89zM186 244h227l-113 300z" />
    <glyph glyph-name="amacron" unicode="&#x101;" 
d="M412 614v-53h-267v53h267zM419 450h64v-450h-64l-11 68q-57 -80 -161 -80q-91 0 -151 65t-60 172.5t60 172t151 64.5q104 0 161 -80zM264 55q67 0 108.5 48.5t41.5 121.5t-41.5 121.5t-108.5 48.5t-107 -48.5t-40 -121.5t40 -121.5t107 -48.5z" />
    <glyph glyph-name="Abreve" unicode="&#x102;" horiz-adv-x="599" 
d="M299.5 690q-64.5 0 -101.5 32t-40 84h57q3 -26 24.5 -44.5t60.5 -18.5t60 18.5t24 44.5h57q-2 -52 -39.5 -84t-102 -32zM505 0l-70 185h-271l-70 -185h-88l253 640h82l253 -640h-89zM186 244h227l-113 300z" />
    <glyph glyph-name="abreve" unicode="&#x103;" 
d="M278 530q-65 0 -102 32t-39 84h56q4 -26 25 -44.5t60 -18.5t60.5 18.5t24.5 44.5h56q-2 -52 -39 -84t-102 -32zM419 450h64v-450h-64l-11 68q-57 -80 -161 -80q-91 0 -151 65t-60 172.5t60 172t151 64.5q104 0 161 -80zM264 55q67 0 108.5 48.5t41.5 121.5t-41.5 121.5
t-108.5 48.5t-107 -48.5t-40 -121.5t40 -121.5t107 -48.5z" />
    <glyph glyph-name="Aogonek" unicode="&#x104;" horiz-adv-x="599" 
d="M556 -12q-60 -33 -64 -76q-2 -33 29 -41q24 -5 57 9l15 -44q-36 -27 -86 -20.5t-68 44.5q-17 37 2.5 74.5t63.5 65.5l-70 185h-271l-70 -185h-88l253 640h82l253 -640h-17zM186 244h227l-113 300z" />
    <glyph glyph-name="aogonek" unicode="&#x105;" 
d="M481 -120l15 -44q-36 -27 -86 -20.5t-67 44.5q-18 39 4 78t71 68l-10 62q-57 -80 -161 -80q-91 0 -151 65t-60 172.5t60 172t151 64.5q104 0 161 -80l11 68h64v-450h-2l-22 -12q-59 -33 -63 -76q-3 -33 29 -41q23 -5 56 9zM264 55q67 0 108.5 48.5t41.5 121.5
t-41.5 121.5t-108.5 48.5t-107 -48.5t-40 -121.5t40 -121.5t107 -48.5z" />
    <glyph glyph-name="Cacute" unicode="&#x106;" horiz-adv-x="622" 
d="M428 748q-35 -37 -55 -47.5t-42 -10.5h-34l125 151l81 -14zM389 -12q-98 0 -174.5 44.5t-117.5 120.5t-41 169q0 142 93 237.5t240 95.5q112 0 198 -60l-45 -66q-65 52 -153 52q-111 0 -179 -75t-68 -184.5t68 -184.5t179 -75q88 0 153 52l45 -66q-86 -60 -198 -60z" />
    <glyph glyph-name="cacute" unicode="&#x107;" horiz-adv-x="439" 
d="M317 589q-35 -38 -55 -48.5t-42 -10.5h-34l125 152l80 -14zM269 -12q-103 0 -168 68.5t-65 168.5t65 168.5t168 68.5q88 0 152 -51l-48 -55q-42 39 -104 39q-70 0 -111 -48t-41 -121.5t41 -122t111 -48.5q62 0 104 40l48 -56q-64 -51 -152 -51z" />
    <glyph glyph-name="Ccircumflex" unicode="&#x108;" horiz-adv-x="622" 
d="M329 712q-12 -13 -21.5 -17.5t-25.5 -4.5h-54l108 117h73l108 -117h-54q-16 0 -25.5 4.5t-21.5 17.5l-44 43zM389 62q88 0 153 52l45 -66q-86 -60 -198 -60q-98 0 -174.5 44.5t-117.5 120.5t-41 168q0 143 93 238.5t240 95.5q112 0 198 -60l-45 -66q-65 52 -153 52
q-111 0 -179 -75t-68 -184.5t68 -184.5t179 -75z" />
    <glyph glyph-name="ccircumflex" unicode="&#x109;" horiz-adv-x="439" 
d="M218 552q-12 -12 -21.5 -16.5t-26.5 -4.5h-53l108 116h73l107 -116h-53q-16 0 -25.5 4.5t-21.5 16.5l-44 43zM269 55q62 0 104 40l48 -56q-64 -51 -152 -51q-103 0 -168 68.5t-65 168.5t65 168.5t168 68.5q88 0 152 -51l-48 -55q-42 39 -104 39q-70 0 -111 -48
t-41 -121.5t41 -122t111 -48.5z" />
    <glyph glyph-name="Cdotaccent" unicode="&#x10a;" horiz-adv-x="622" 
d="M373 704q-23 0 -39.5 16t-16.5 39t16.5 39t39.5 16t39 -16t16 -39t-16 -39t-39 -16zM389 -12q-98 0 -174.5 44.5t-117.5 120.5t-41 168q0 143 93 238.5t240 95.5q112 0 198 -60l-45 -66q-65 52 -153 52q-111 0 -179 -75t-68 -184.5t68 -184.5t179 -75q88 0 153 52l45 -66
q-86 -60 -198 -60z" />
    <glyph glyph-name="cdotaccent" unicode="&#x10b;" horiz-adv-x="439" 
d="M261 544q-23 0 -39 16t-16 39t16 39.5t39 16.5t39.5 -16.5t16.5 -39.5t-16.5 -39t-39.5 -16zM269 -12q-103 0 -168 68.5t-65 168.5t65 168.5t168 68.5q88 0 152 -51l-48 -55q-42 39 -104 39q-70 0 -111 -48t-41 -121.5t41 -122t111 -48.5q62 0 104 40l48 -56
q-64 -51 -152 -51z" />
    <glyph glyph-name="Ccaron" unicode="&#x10c;" horiz-adv-x="622" 
d="M409 691h-73l-108 116h54q16 0 25.5 -4.5t21.5 -16.5l43 -43l44 43q12 12 21.5 16.5t25.5 4.5h53zM389 62q88 0 153 52l45 -66q-86 -60 -198 -60q-98 0 -174.5 44.5t-117.5 120.5t-41 169q0 142 93 237.5t240 95.5q112 0 198 -60l-45 -66q-65 52 -153 52q-111 0 -179 -75
t-68 -184.5t68 -184.5t179 -75z" />
    <glyph glyph-name="ccaron" unicode="&#x10d;" horiz-adv-x="439" 
d="M298 531h-73l-108 116h53q17 0 26.5 -4.5t21.5 -16.5l43 -43l44 43q12 12 21.5 16.5t25.5 4.5h53zM269 55q62 0 104 40l48 -56q-64 -51 -152 -51q-103 0 -168 68.5t-65 168.5t65 168.5t168 68.5q88 0 152 -51l-48 -55q-42 39 -104 39q-70 0 -111 -48t-41 -121.5t41 -122
t111 -48.5z" />
    <glyph glyph-name="Dcaron" unicode="&#x10e;" horiz-adv-x="661" 
d="M332 691h-72l-108 116h53q16 0 25.5 -4.5t22.5 -16.5l43 -43l44 43q12 12 21.5 16.5t25.5 4.5h53zM260 640q83 0 149.5 -25t109 -68.5t64.5 -101t22 -125t-22 -125t-64.5 -101.5t-109 -69t-149.5 -25h-174v640h174zM244 66q138 0 206.5 68t68.5 187q0 118 -68.5 185.5
t-206.5 67.5h-76v-508h76z" />
    <glyph glyph-name="dcaron" unicode="&#x10f;" horiz-adv-x="577" 
d="M404 387v293h79v-680h-64l-11 68q-57 -80 -161 -80q-91 0 -151 65t-60 172.5t60 172t151 64.5q100 0 157 -75zM592 676q25 -1 40 -21t15 -48q0 -38 -24 -73.5t-75 -53.5l-13 32q64 31 64 79q-19 -6 -37 5t-18 34q1 20 14 33t34 13zM264 55q67 0 108.5 48.5t41.5 121.5
t-41.5 121.5t-108.5 48.5q-66 0 -106.5 -48.5t-40.5 -121.5t40.5 -121.5t106.5 -48.5z" />
    <glyph glyph-name="Dcroat" unicode="&#x110;" horiz-adv-x="661" 
d="M260 640q83 0 149.5 -25t109 -68.5t64.5 -101t22 -125t-22 -125t-64.5 -101.5t-109 -69t-149.5 -25h-174v295h-66v54h66v291h174zM244 66q138 0 206.5 68t68.5 187q0 118 -68.5 185.5t-206.5 67.5h-76v-225h147v-54h-147v-229h76z" />
    <glyph glyph-name="dcroat" unicode="&#x111;" 
d="M538 577v-54h-55v-523h-64l-11 68q-57 -80 -161 -80q-91 0 -151 65t-60 172.5t60 172t151 64.5q100 0 157 -75v136h-161v54h161v103h79v-103h55zM263 55q68 0 109.5 48.5t41.5 121.5t-41.5 121.5t-109.5 48.5q-66 0 -106 -48.5t-40 -121.5t40 -121.5t106 -48.5z" />
    <glyph glyph-name="Emacron" unicode="&#x112;" horiz-adv-x="515" 
d="M403 773v-52h-267v52h267zM459 569h-291v-215h241v-68h-241v-215h291v-71h-373v640h373v-71z" />
    <glyph glyph-name="emacron" unicode="&#x113;" horiz-adv-x="514" 
d="M396 614v-53h-268v53h268zM478 240v-29h-359q3 -69 44 -112.5t108 -43.5q82 0 127 56l56 -46q-30 -37 -77.5 -57t-105.5 -20q-105 0 -170 68t-65 169q0 100 64 168.5t162 68.5q96 0 156 -63t60 -159zM262 396q-54 0 -91.5 -36t-47.5 -94h277q-7 61 -43.5 95.5t-94.5 34.5
z" />
    <glyph glyph-name="Ebreve" unicode="&#x114;" horiz-adv-x="515" 
d="M270 690q-65 0 -102 32t-40 84h57q3 -26 24.5 -44.5t60.5 -18.5t60 18.5t25 44.5h56q-2 -52 -39 -84t-102 -32zM459 569h-291v-215h241v-68h-241v-214h291v-72h-373v640h373v-71z" />
    <glyph glyph-name="ebreve" unicode="&#x115;" horiz-adv-x="514" 
d="M262 530q-65 0 -102 32t-39 84h56q4 -26 25 -44.5t60 -18.5t60 18.5t25 44.5h56q-2 -52 -39 -84t-102 -32zM478 240v-29h-359q3 -69 44 -112.5t108 -43.5q82 0 127 56l56 -46q-30 -37 -77.5 -57t-105.5 -20q-105 0 -170 68t-65 169q0 100 64 168.5t162 68.5q96 0 156 -63
t60 -159zM262 396q-54 0 -91.5 -36t-47.5 -94h277q-7 61 -43.5 95.5t-94.5 34.5z" />
    <glyph glyph-name="Edotaccent" unicode="&#x116;" horiz-adv-x="515" 
d="M270 704q-23 0 -39.5 16t-16.5 39t16.5 39t39.5 16t39 -16t16 -39t-16 -39t-39 -16zM459 569h-291v-215h241v-68h-241v-215h291v-71h-373v640h373v-71z" />
    <glyph glyph-name="edotaccent" unicode="&#x117;" horiz-adv-x="514" 
d="M262 544q-23 0 -39 16t-16 39t16 39.5t39 16.5t39.5 -16.5t16.5 -39.5t-16.5 -39t-39.5 -16zM478 240v-29h-359q3 -69 44 -112.5t108 -43.5q82 0 127 56l56 -46q-30 -37 -77.5 -57t-105.5 -20q-105 0 -170 68t-65 169q0 100 64 168.5t162 68.5q96 0 156 -63t60 -159z
M262 396q-54 0 -91.5 -36t-47.5 -94h277q-7 61 -43.5 95.5t-94.5 34.5z" />
    <glyph glyph-name="Eogonek" unicode="&#x118;" horiz-adv-x="515" 
d="M458 -120l16 -44q-37 -27 -87 -20.5t-67 44.5q-17 37 2 74.5t64 65.5h-300v640h373v-71h-291v-215h241v-68h-241v-215h291v-71h-1l-22 -12q-59 -33 -63 -76q-3 -33 29 -41q23 -5 56 9z" />
    <glyph glyph-name="eogonek" unicode="&#x119;" horiz-adv-x="514" 
d="M478 240v-29h-359q3 -69 44 -112.5t108 -43.5q82 0 127 56l56 -46q-40 -49 -109 -68l-17 -9q-59 -33 -63 -76q-3 -33 29 -41q23 -5 56 9l15 -44q-36 -27 -86 -20.5t-67 44.5q-14 36 -0.5 68.5t49.5 59.5q-101 4 -163 71.5t-62 165.5q0 100 64 168.5t162 68.5
q96 0 156 -63t60 -159zM262 396q-54 0 -91.5 -36t-47.5 -94h277q-7 61 -43.5 95.5t-94.5 34.5z" />
    <glyph glyph-name="Ecaron" unicode="&#x11a;" horiz-adv-x="515" 
d="M306 691h-73l-107 116h53q16 0 25.5 -4.5t21.5 -16.5l44 -43l43 43q12 12 21.5 16.5t26.5 4.5h53zM459 569h-291v-215h241v-68h-241v-214h291v-72h-373v640h373v-71z" />
    <glyph glyph-name="ecaron" unicode="&#x11b;" horiz-adv-x="514" 
d="M298 531h-72l-108 116h53q16 0 25.5 -4.5t21.5 -16.5l44 -43l43 43q13 12 22.5 16.5t25.5 4.5h53zM478 240v-29h-359q3 -69 44 -112.5t108 -43.5q82 0 127 56l56 -46q-30 -37 -77.5 -57t-105.5 -20q-105 0 -170 68t-65 169q0 100 64 168.5t162 68.5q96 0 156 -63t60 -159
zM262 396q-54 0 -91.5 -36t-47.5 -94h277q-7 61 -43.5 95.5t-94.5 34.5z" />
    <glyph glyph-name="Gcircumflex" unicode="&#x11c;" horiz-adv-x="744" 
d="M333 712q-13 -13 -22.5 -17.5t-25.5 -4.5h-53l108 117h72l108 -117h-53q-16 0 -25.5 4.5t-21.5 17.5l-44 43zM428 343h268v-57q0 -58 -19.5 -111t-57 -95t-96.5 -67t-132 -25q-99 0 -176 45t-118 121t-41 168.5t40.5 168t118 120t176.5 44.5q36 0 70.5 -6.5t55 -13.5
t40.5 -18t24 -14t9 -6l-44 -64q-21 18 -61 33t-94 15q-114 0 -181.5 -74.5t-67.5 -184.5q0 -109 68.5 -184.5t180.5 -75.5q97 0 159.5 57.5t62.5 154.5h-185v69z" />
    <glyph glyph-name="gcircumflex" unicode="&#x11d;" 
d="M237 553q-13 -12 -22 -16.5t-26 -4.5h-53l108 116h73l107 -116h-53q-16 0 -25.5 4.5t-21.5 16.5l-44 44zM419 451h64v-433q0 -107 -54 -167.5t-160 -60.5q-54 0 -97 15l19 69q35 -16 76 -16q70 0 104 42.5t34 119.5v44q-57 -76 -158 -76q-91 0 -151 65t-60 172.5t60 172
t151 64.5q104 0 161 -80zM264 56q67 0 108.5 48t41.5 121t-41.5 121.5t-108.5 48.5q-66 0 -106.5 -48.5t-40.5 -121.5t40.5 -121t106.5 -48z" />
    <glyph glyph-name="Gbreve" unicode="&#x11e;" horiz-adv-x="744" 
d="M376 690q-65 0 -102 32t-39 84h56q4 -26 25 -44.5t60 -18.5t60 18.5t25 44.5h56q-2 -52 -39 -84t-102 -32zM428 343h268v-57q0 -58 -19.5 -111t-57 -95t-96.5 -67t-132 -25q-99 0 -176 45t-118 121t-41 168.5t40.5 168t117.5 120t177 44.5q36 0 70.5 -6.5t55 -13.5
t40.5 -17.5t24 -14t9 -6.5l-44 -64q-21 18 -61 33t-94 15q-114 0 -181.5 -74.5t-67.5 -183.5q0 -110 68.5 -185.5t180.5 -75.5q96 0 159 57.5t63 154.5h-185v69z" />
    <glyph glyph-name="gbreve" unicode="&#x11f;" 
d="M280 532q-65 0 -102 32t-39 84h56q4 -26 25 -44.5t60 -18.5t60.5 18.5t24.5 44.5h57q-3 -52 -40 -84t-102 -32zM419 451h64v-433q0 -107 -54 -167.5t-160 -60.5q-54 0 -97 15l19 69q35 -16 76 -16q70 0 104 42.5t34 119.5v44q-57 -76 -158 -76q-91 0 -151 65t-60 172.5
t60 172t151 64.5q104 0 161 -80zM264 56q67 0 108.5 48t41.5 121t-41.5 121.5t-108.5 48.5q-66 0 -106.5 -48.5t-40.5 -121.5t40.5 -121t106.5 -48z" />
    <glyph glyph-name="Gdotaccent" unicode="&#x120;" horiz-adv-x="744" 
d="M376 704q-23 0 -39 16t-16 39t16 39t39 16t39.5 -16t16.5 -39t-16.5 -39t-39.5 -16zM428 343h268v-57q0 -58 -19.5 -111t-57 -95t-96.5 -67t-132 -25q-99 0 -176 45t-118 121t-41 168.5t40.5 168t118 120t176.5 44.5q36 0 70.5 -6.5t55 -13.5t40.5 -18t24 -14t9 -6
l-44 -64q-21 18 -61 33t-94 15q-114 0 -181.5 -74.5t-67.5 -184.5q0 -109 68.5 -184.5t180.5 -75.5q97 0 159.5 57.5t62.5 154.5h-185v69z" />
    <glyph glyph-name="gdotaccent" unicode="&#x121;" 
d="M280 546q-23 0 -39 16t-16 39t16 39t39 16t39.5 -16t16.5 -39t-16.5 -39t-39.5 -16zM419 451h64v-433q0 -107 -54 -167.5t-159 -60.5q-55 0 -98 15l19 69q35 -16 76 -16q70 0 104 42.5t34 119.5v44q-57 -76 -158 -76q-91 0 -151 65t-60 172.5t60 172t151 64.5
q104 0 161 -80zM264 56q67 0 108.5 48t41.5 121t-41.5 121.5t-108.5 48.5q-66 0 -106.5 -48.5t-40.5 -121.5t40.5 -121t106.5 -48z" />
    <glyph glyph-name="Gcommaaccent" unicode="&#x122;" horiz-adv-x="744" 
d="M428 343h268v-57q0 -58 -19.5 -111t-57 -95t-96.5 -67t-132 -25q-99 0 -176 45t-118 121t-41 168.5t40.5 168t118 120t176.5 44.5q36 0 70.5 -6.5t55 -13.5t40.5 -17.5t24 -14t9 -6.5l-44 -64q-21 18 -61 33t-94 15q-114 0 -181.5 -74.5t-67.5 -183.5q0 -110 68.5 -185.5
t180.5 -75.5q97 0 159.5 57.5t62.5 154.5h-185v69zM377 -61q25 0 40 -20t15 -49q-1 -37 -25 -73t-74 -54l-13 32q63 31 64 80q-19 -7 -37 4t-18 34q0 20 13 33t35 13z" />
    <glyph glyph-name="gcommaaccent" unicode="&#x123;" 
d="M275 549q-24 0 -39 20.5t-15 48.5q0 38 24 73.5t75 53.5l12 -32q-63 -31 -64 -79q19 6 37 -5t18 -34q0 -20 -13 -33t-35 -13zM419 451h64v-433q0 -107 -54 -167.5t-159 -60.5q-55 0 -98 15l19 69q35 -16 76 -16q70 0 104 42.5t34 119.5v44q-57 -76 -158 -76
q-91 0 -151 65t-60 172.5t60 172t151 64.5q104 0 161 -80zM264 56q67 0 108.5 48t41.5 121t-41.5 121.5t-108.5 48.5q-66 0 -106.5 -48.5t-40.5 -121.5t40.5 -121t106.5 -48z" />
    <glyph glyph-name="Hcircumflex" unicode="&#x124;" horiz-adv-x="656" 
d="M284 712q-12 -13 -21.5 -17.5t-25.5 -4.5h-53l107 117h73l108 -117h-54q-16 0 -25.5 4.5t-21.5 17.5l-43 43zM488 640h82v-640h-82v298h-320v-298h-82v640h82v-275h320v275z" />
    <glyph glyph-name="hcircumflex" unicode="&#x125;" horiz-adv-x="525" 
d="M151 732l-43 43l-44 -43q-12 -13 -21.5 -17.5t-25.5 -4.5h-53l107 117h73l108 -117h-53q-17 0 -26.5 4.5t-21.5 17.5zM289 462q32 0 61 -9.5t54.5 -29.5t40 -58t14.5 -88v-277h-78v263q0 60 -27 95.5t-82 35.5q-51 0 -86.5 -40.5t-35.5 -129.5v-224h-79v680h79v-285
q50 67 139 67z" />
    <glyph glyph-name="Hbar" unicode="&#x126;" horiz-adv-x="656" 
d="M488 640h82v-640h-82v298h-320v-298h-82v640h82v-123h320v123zM168 365h320v99h-320v-99z" />
    <glyph glyph-name="hbar" unicode="&#x127;" horiz-adv-x="525" 
d="M289 462q32 0 61 -9.5t54.5 -29.5t40 -58t14.5 -88v-277h-78v263q0 60 -27 95.5t-82 35.5q-51 0 -86.5 -40.5t-35.5 -129.5v-224h-79v523h-97v54h97v103h79v-103h119v-54h-119v-128q50 67 139 67z" />
    <glyph glyph-name="Itilde" unicode="&#x128;" horiz-adv-x="253" 
d="M184 692q-28 0 -58 21t-49 21q-30 0 -52 -37l-47 31q1 1 6 8.5l7 10.5t8 10t10 10.5t11 9t14 8t16 4.5t19 2q29 0 61.5 -21t50.5 -21q17 0 26.5 10t17.5 28l51 -27q-35 -68 -92 -68zM168 640v-640h-82v640h82z" />
    <glyph glyph-name="itilde" unicode="&#x129;" horiz-adv-x="218" 
d="M167 532q-28 0 -58.5 21t-49.5 21q-30 0 -51 -37l-48 31q1 1 6 8.5l7 10.5t8 10t10 11t11.5 9t14 7.5t15.5 4.5t19 2q29 0 61.5 -21t51.5 -21q16 0 25.5 10t18.5 28l51 -26q-36 -69 -92 -69zM71 0v451h76v-451h-76z" />
    <glyph glyph-name="Imacron" unicode="&#x12a;" horiz-adv-x="253" 
d="M-7 721v52h267v-52h-267zM168 640v-640h-82v640h82z" />
    <glyph glyph-name="imacron" unicode="&#x12b;" horiz-adv-x="218" 
d="M-25 561v53h268v-53h-268zM71 0v451h76v-451h-76z" />
    <glyph glyph-name="Ibreve" unicode="&#x12c;" horiz-adv-x="253" 
d="M127 690q-65 0 -102 32t-40 84h57q3 -26 24.5 -44.5t60.5 -18.5t60 18.5t25 44.5h56q-2 -52 -39 -84t-102 -32zM168 640v-640h-82v640h82z" />
    <glyph glyph-name="ibreve" unicode="&#x12d;" horiz-adv-x="218" 
d="M109 530q-65 0 -102 32t-39 84h56q4 -26 25 -44.5t60 -18.5t60 18.5t25 44.5h56q-2 -52 -39 -84t-102 -32zM71 0v451h76v-451h-76z" />
    <glyph glyph-name="Iogonek" unicode="&#x12e;" horiz-adv-x="253" 
d="M168 -120l16 -44q-37 -27 -87 -20.5t-67 44.5q-17 37 2 74.5t64 65.5h-10v640h82v-640l-22 -12q-59 -33 -63 -76q-3 -33 29 -41q23 -5 56 9z" />
    <glyph glyph-name="iogonek" unicode="&#x12f;" horiz-adv-x="218" 
d="M109 544q-23 0 -39 16t-16 39t16 39.5t39 16.5t39.5 -16.5t16.5 -39.5t-16.5 -39t-39.5 -16zM124 -12q-59 -33 -63 -76q-3 -33 29 -41q23 -5 56 9l16 -44q-37 -27 -87 -20.5t-67 44.5q-17 37 2 74.5t64 65.5h-3v451h76v-451h-1z" />
    <glyph glyph-name="Idotaccent" unicode="&#x130;" horiz-adv-x="253" 
d="M127 704q-23 0 -39.5 16t-16.5 39t16.5 39t39.5 16t39 -16t16 -39t-16 -39t-39 -16zM168 640v-640h-82v640h82z" />
    <glyph glyph-name="dotlessi" unicode="&#x131;" horiz-adv-x="218" 
d="M71 0v451h76v-451h-76z" />
    <glyph glyph-name="ij" unicode="&#x133;" horiz-adv-x="412" 
d="M109 546q-23 0 -39.5 16.5t-16.5 39.5t16.5 39t39.5 16t39.5 -16t16.5 -39t-16.5 -39.5t-39.5 -16.5zM320 546q-23 0 -39.5 16.5t-16.5 39.5t16.5 39t39.5 16t39.5 -16t16.5 -39t-16.5 -39.5t-39.5 -16.5zM71 0v451h76v-451h-76zM359 450v-507q0 -40 -9 -69.5t-22 -45
t-32 -24.5t-33.5 -11.5t-31.5 -2.5l-33 4l6 68q10 -3 24 -3q21 0 36.5 16.5t15.5 60.5v514h79z" />
    <glyph glyph-name="Jcircumflex" unicode="&#x134;" horiz-adv-x="456" 
d="M370 797l108 -117h-53q-17 0 -26.5 4.5t-21.5 17.5l-43 43l-44 -43q-12 -13 -21.5 -17.5t-25.5 -4.5h-53l107 117h73zM293 188v452h82v-448q0 -105 -50.5 -154.5t-128.5 -49.5q-85 0 -150 61l46 65q45 -52 102 -52q47 0 73 32t26 94z" />
    <glyph glyph-name="jcircumflex" unicode="&#x135;" horiz-adv-x="204" 
d="M148 637l108 -116h-53q-17 0 -26.5 4.5t-21.5 16.5l-43 43l-44 -43q-12 -12 -21.5 -16.5t-25.5 -4.5h-53l107 116h73zM72 -64v514h79v-507q0 -40 -9 -69.5t-22 -45t-32 -24.5t-33.5 -11.5t-31.5 -2.5l-33 4l6 68q10 -3 24 -3q21 0 36.5 16.5t15.5 60.5z" />
    <glyph glyph-name="Kcommaaccent" unicode="&#x136;" horiz-adv-x="579" 
d="M243 340l326 -340h-112l-289 306v-306h-82v640h82v-269l273 269h108zM304 -61q24 0 39 -20t15 -49q0 -37 -24 -72.5t-75 -54.5l-12 32q63 31 64 80q-19 -7 -37 4t-18 34q0 20 13 33t35 13z" />
    <glyph glyph-name="kcommaaccent" unicode="&#x137;" horiz-adv-x="476" 
d="M224 246l251 -246h-108l-217 215v-215h-79v680h79v-404l190 174h107zM247 -61q25 0 40 -20t15 -49q-1 -37 -24.5 -72.5t-74.5 -54.5l-13 32q63 31 64 80q-19 -7 -37 4t-18 34q0 20 13 33t35 13z" />
    <glyph glyph-name="kgreenlandic" unicode="&#x138;" horiz-adv-x="476" 
d="M475 0h-104l-221 215v-215h-79v450h79v-174l195 175h102l-229 -205z" />
    <glyph glyph-name="Lacute" unicode="&#x139;" horiz-adv-x="446" 
d="M190 748q-34 -37 -54 -47.5t-43 -10.5h-34l125 151l81 -14zM168 72h252v-72h-334v640h82v-568z" />
    <glyph glyph-name="lacute" unicode="&#x13a;" horiz-adv-x="220" 
d="M166 789q-35 -37 -55 -47.5t-42 -10.5h-35l125 151l81 -14zM71 0v680h79v-680h-79z" />
    <glyph glyph-name="Lcommaaccent" unicode="&#x13b;" horiz-adv-x="446" 
d="M168 72h252v-72h-334v640h82v-568zM246 -61q24 0 39 -20t15 -49q0 -37 -24 -72.5t-74 -54.5l-13 32q63 31 64 80q-19 -7 -37 4t-18 34q0 20 13 33t35 13z" />
    <glyph glyph-name="lcommaaccent" unicode="&#x13c;" horiz-adv-x="220" 
d="M71 0v680h79v-680h-79zM67 -257l-13 32q63 31 64 80q-19 -7 -37 4t-18 34q0 20 13 33t35 13q25 0 40 -20t15 -49q-1 -37 -25 -72.5t-74 -54.5z" />
    <glyph glyph-name="Lcaron" unicode="&#x13d;" horiz-adv-x="446" 
d="M251 479q63 31 64 79q-19 -6 -37 5t-18 34q0 20 13 33t35 13q25 -1 40 -21t15 -48q-1 -38 -25 -73.5t-74 -53.5zM168 72h252v-72h-334v640h82v-568z" />
    <glyph glyph-name="lcaron" unicode="&#x13e;" horiz-adv-x="220" 
d="M216 488l-13 32q63 31 64 79q-19 -7 -37 4t-18 34q0 20 13 33t35 13q25 0 40 -20t14 -48q0 -38 -24 -73.5t-74 -53.5zM71 0v680h79v-680h-79z" />
    <glyph glyph-name="Ldot" unicode="&#x13f;" horiz-adv-x="446" 
d="M168 72h252v-72h-334v640h82v-568zM323 319q-23 0 -39 16t-16 39t16 39.5t39 16.5t39.5 -16.5t16.5 -39.5t-16.5 -39t-39.5 -16z" />
    <glyph glyph-name="ldot" unicode="&#x140;" horiz-adv-x="362" 
d="M71 0v680h79v-680h-79zM271 289q-23 0 -39.5 16t-16.5 39t16.5 39.5t39.5 16.5t39 -16.5t16 -39.5t-16 -39t-39 -16z" />
    <glyph glyph-name="Lslash" unicode="&#x141;" horiz-adv-x="446" 
d="M168 72h252v-72h-334v255l-65 -50v70l65 50v315h82v-251l65 50v-70l-65 -51v-246z" />
    <glyph glyph-name="lslash" unicode="&#x142;" horiz-adv-x="220" 
d="M216 453v-70l-66 -52v-331h-79v271l-67 -52v70l67 52v339h79v-279z" />
    <glyph glyph-name="Nacute" unicode="&#x143;" horiz-adv-x="691" 
d="M401 748q-35 -37 -55 -47.5t-42 -10.5h-34l125 151l81 -14zM525 640h80v-640h-78l-361 506v-506h-80v640h78l361 -503v503z" />
    <glyph glyph-name="nacute" unicode="&#x144;" horiz-adv-x="524" 
d="M321 589q-35 -38 -55 -48.5t-42 -10.5h-34l125 152l81 -14zM288 462q32 0 61 -9.5t54.5 -29.5t40 -58t14.5 -88v-277h-78v263q0 60 -27 95.5t-82 35.5q-47 0 -81.5 -34t-39.5 -109v-251h-79v451h68l10 -55q50 66 139 66z" />
    <glyph glyph-name="Ncommaaccent" unicode="&#x145;" horiz-adv-x="691" 
d="M525 640h80v-640h-78l-361 506v-506h-80v640h78l361 -503v503zM346 -61q25 0 40 -20t15 -49q0 -37 -24 -72.5t-75 -54.5l-13 32q63 31 64 80q-19 -7 -37 4t-18 34q0 20 13.5 33t34.5 13z" />
    <glyph glyph-name="ncommaaccent" unicode="&#x146;" horiz-adv-x="524" 
d="M288 462q32 0 61 -9.5t54.5 -29.5t40 -58t14.5 -88v-277h-78v263q0 60 -27 95.5t-82 35.5q-47 0 -81.5 -34t-39.5 -109v-251h-79v451h68l10 -55q50 66 139 66zM266 -61q25 0 40 -20t15 -49q0 -37 -24 -72.5t-75 -54.5l-13 32q63 31 64 80q-19 -7 -37 4t-18 34q1 20 14 33
t34 13z" />
    <glyph glyph-name="Ncaron" unicode="&#x147;" horiz-adv-x="691" 
d="M382 691h-73l-108 116h54q16 0 25.5 -4.5t21.5 -16.5l43 -43l44 43q12 12 21.5 16.5t25.5 4.5h53zM525 640h80v-640h-78l-361 506v-506h-80v640h78l361 -503v503z" />
    <glyph glyph-name="ncaron" unicode="&#x148;" horiz-adv-x="524" 
d="M302 531h-73l-108 116h54q16 0 25.5 -4.5t21.5 -16.5l43 -43l44 43q12 12 21.5 16.5t25.5 4.5h54zM288 462q32 0 61 -9.5t54.5 -29.5t40 -58t14.5 -88v-277h-78v263q0 60 -27 95.5t-82 35.5q-47 0 -81.5 -34t-39.5 -109v-251h-79v451h68l10 -55q50 66 139 66z" />
    <glyph glyph-name="napostrophe" unicode="&#x149;" horiz-adv-x="613" 
d="M87 656q31 -1 50 -26t19 -60q0 -47 -30 -91.5t-94 -67.5l-16 40q79 39 80 99q-24 -8 -46.5 5.5t-22.5 42.5q1 25 17 41.5t43 16.5zM377 462q32 0 60.5 -9.5t54 -29.5t40.5 -58t15 -88v-277h-79v263q0 60 -27 95.5t-81 35.5q-47 0 -81.5 -34t-40.5 -109v-251h-79v451h69
l10 -55q50 66 139 66z" />
    <glyph glyph-name="Eng" unicode="&#x14a;" horiz-adv-x="691" 
d="M525 640h80v-640v-34q0 -44 -11.5 -76t-29.5 -48t-40 -25.5t-44.5 -10t-40.5 1t-30 4.5l-11 3l10 73q3 0 7 -1.5t16 -3t23 -1.5t24.5 3.5t23 11.5t16.5 23.5t7 36.5v43l-359 503v-503h-80v640h78l361 -503v503zM166 504l9 -11l-9 13v-2z" />
    <glyph glyph-name="eng" unicode="&#x14b;" horiz-adv-x="524" 
d="M288 462q32 0 61 -9.5t54.5 -29.5t40 -58t14.5 -88v-327q0 -71 -37 -105t-103 -22v64q34 -5 48 10.5t14 45.5v320q0 60 -27 95.5t-82 35.5q-47 0 -81.5 -34t-39.5 -109v-251h-79v451h68l10 -55q50 66 139 66z" />
    <glyph glyph-name="Omacron" unicode="&#x14c;" horiz-adv-x="780" 
d="M257 721v52h267v-52h-267zM390 -12q-98 0 -175 45t-118 120.5t-41 168.5q0 142 93 237.5t241 95.5t241.5 -95.5t93.5 -237.5q0 -93 -41.5 -168.5t-118.5 -120.5t-175 -45zM390 62q111 0 180 75t69 185q0 109 -69 184t-180 75t-179.5 -75t-68.5 -184q0 -110 68.5 -185
t179.5 -75z" />
    <glyph glyph-name="omacron" unicode="&#x14d;" horiz-adv-x="546" 
d="M139 561v53h267v-53h-267zM273 -12q-104 0 -170.5 68.5t-66.5 168.5t66.5 168.5t170.5 68.5t170.5 -68.5t66.5 -168.5t-66.5 -168.5t-170.5 -68.5zM272.5 56q67.5 0 111 48.5t43.5 120.5t-43.5 120.5t-111 48.5t-110.5 -48.5t-43 -120.5t43 -120.5t110.5 -48.5z" />
    <glyph glyph-name="Obreve" unicode="&#x14e;" horiz-adv-x="780" 
d="M390 690q-65 0 -102 32t-39 84h56q4 -26 25 -44.5t60 -18.5t60 18.5t25 44.5h56q-2 -52 -39 -84t-102 -32zM390 -12q-98 0 -175 45t-118 120.5t-41 168.5q0 142 93 237.5t241 95.5t241.5 -95.5t93.5 -237.5q0 -93 -41.5 -168.5t-118.5 -120.5t-175 -45zM390 62
q111 0 180 75t69 185q0 109 -69 184t-180 75t-179.5 -75t-68.5 -184q0 -110 68.5 -185t179.5 -75z" />
    <glyph glyph-name="obreve" unicode="&#x14f;" horiz-adv-x="546" 
d="M273 530q-65 0 -102 32t-39 84h56q4 -26 25 -44.5t60 -18.5t60 18.5t25 44.5h56q-2 -52 -39 -84t-102 -32zM273 -12q-104 0 -170.5 68.5t-66.5 168.5t66.5 168.5t170.5 68.5t170.5 -68.5t66.5 -168.5t-66.5 -168.5t-170.5 -68.5zM272.5 56q67.5 0 111 48.5t43.5 120.5
t-43.5 120.5t-111 48.5t-110.5 -48.5t-43 -120.5t43 -120.5t110.5 -48.5z" />
    <glyph glyph-name="Ohungarumlaut" unicode="&#x150;" horiz-adv-x="780" 
d="M379 748q-35 -37 -55 -47.5t-42 -10.5h-34l124 151l81 -14zM522 748q-35 -37 -55 -47.5t-42 -10.5h-34l125 151l80 -14zM390 -12q-98 0 -175 44.5t-118 120.5t-41 169q0 142 93 237.5t241 95.5t241.5 -95.5t93.5 -237.5q0 -93 -41.5 -169t-118.5 -120.5t-175 -44.5z
M390 62q111 0 180 75t69 185q0 109 -69 184t-180 75t-179.5 -75t-68.5 -184q0 -110 68.5 -185t179.5 -75z" />
    <glyph glyph-name="ohungarumlaut" unicode="&#x151;" horiz-adv-x="546" 
d="M262 589q-35 -38 -55 -48.5t-42 -10.5h-35l125 152l81 -14zM405 589q-35 -38 -55 -48.5t-42 -10.5h-35l125 152l81 -14zM273 -12q-104 0 -170.5 68.5t-66.5 168.5t66.5 168.5t170.5 68.5t170.5 -68.5t66.5 -168.5t-66.5 -168.5t-170.5 -68.5zM272.5 56q67.5 0 111 48.5
t43.5 120.5t-43.5 120.5t-111 48.5t-110.5 -48.5t-43 -120.5t43 -120.5t110.5 -48.5z" />
    <glyph glyph-name="OE" unicode="&#x152;" horiz-adv-x="1076" 
d="M1020 569h-292v-215h242v-68h-242v-214h292v-72h-374v101q-45 -54 -110.5 -83.5t-145.5 -29.5q-98 0 -175 45t-118 120.5t-41 168.5q0 142 93 237.5t241 95.5q80 0 145.5 -29.5t110.5 -82.5v97h374v-71zM390 62q111 0 180 75t69 185q0 109 -69 184t-180 75t-179.5 -75
t-68.5 -184q0 -110 68.5 -185t179.5 -75z" />
    <glyph glyph-name="oe" unicode="&#x153;" horiz-adv-x="907" 
d="M872 240v-29h-360q4 -69 44.5 -112.5t108.5 -43.5q82 0 127 56l56 -46q-30 -37 -78 -57t-105 -20q-64 0 -114.5 26.5t-81.5 73.5q-32 -47 -82.5 -73.5t-113.5 -26.5q-104 0 -170.5 68.5t-66.5 168.5t66.5 168.5t170.5 68.5q63 0 113.5 -26.5t82.5 -72.5q30 46 78.5 72.5
t107.5 26.5q96 0 156.5 -63t60.5 -159zM655 396q-54 0 -91 -36t-48 -94h277q-7 61 -43.5 95.5t-94.5 34.5zM272.5 56q67.5 0 111 48.5t43.5 120.5t-43.5 120.5t-111 48.5t-110.5 -48.5t-43 -120.5t43 -120.5t110.5 -48.5z" />
    <glyph glyph-name="Racute" unicode="&#x154;" horiz-adv-x="556" 
d="M325 748q-34 -37 -54 -47.5t-42 -10.5h-35l125 151l81 -14zM430 0l-204 285h-58v-285h-82v640h181q93 0 152 -50.5t59 -129.5q0 -71 -47 -115.5t-115 -56.5l214 -288h-100zM168 573v-221h85q67 0 103 27.5t36 80.5q0 54 -38 83.5t-111 29.5h-75z" />
    <glyph glyph-name="racute" unicode="&#x155;" horiz-adv-x="335" 
d="M243 589q-34 -38 -54 -48.5t-43 -10.5h-34l125 152l81 -14zM264 462q17 0 33.5 -3t23.5 -7l8 -3l-24 -71q-21 8 -44 8q-52 0 -81.5 -41.5t-29.5 -99.5v-245h-79v450h67l12 -65q20 41 46.5 59t67.5 18z" />
    <glyph glyph-name="Rcommaaccent" unicode="&#x156;" horiz-adv-x="556" 
d="M316 288l214 -288h-100l-204 285h-58v-285h-82v640h181q93 0 152 -50.5t59 -129.5q0 -71 -47 -115.5t-115 -56.5zM168 573v-221h85q67 0 103 27.5t36 80.5q0 54 -38 83.5t-111 29.5h-75zM281 -61q24 0 39 -20t15 -49q0 -37 -24 -72.5t-75 -54.5l-12 32q63 31 64 80
q-19 -7 -37 4t-18 34q0 20 13 33t35 13z" />
    <glyph glyph-name="rcommaaccent" unicode="&#x157;" horiz-adv-x="335" 
d="M264 462q17 0 33.5 -3t23.5 -7l8 -3l-24 -71q-21 8 -44 8q-52 0 -81.5 -41.5t-29.5 -99.5v-245h-79v450h67l12 -65q20 41 46.5 59t67.5 18zM112 -61q24 0 39 -20t15 -49q0 -37 -24 -72.5t-75 -54.5l-13 32q64 31 64 80q-18 -7 -36.5 4t-17.5 34q0 20 13 33t35 13z" />
    <glyph glyph-name="Rcaron" unicode="&#x158;" horiz-adv-x="556" 
d="M306 691h-72l-108 116h53q16 0 25.5 -4.5t21.5 -16.5l44 -43l43 43q13 12 22.5 16.5t25.5 4.5h53zM430 0l-204 285h-58v-285h-82v640h181q93 0 152 -50.5t59 -129.5q0 -71 -47 -115.5t-115 -56.5l214 -288h-100zM168 573v-221h85q67 0 103 27.5t36 80.5q0 54 -38 83.5
t-111 29.5h-75z" />
    <glyph glyph-name="rcaron" unicode="&#x159;" horiz-adv-x="335" 
d="M224 531h-73l-107 116h53q16 0 25.5 -4.5t21.5 -16.5l44 -43l43 43q13 12 22 16.5t26 4.5h53zM150 385q20 41 46.5 59t67.5 18q17 0 33.5 -3t23.5 -7l8 -3l-24 -71q-21 8 -44 8q-52 0 -81.5 -41.5t-29.5 -99.5v-245h-79v450h67z" />
    <glyph glyph-name="Sacute" unicode="&#x15a;" horiz-adv-x="525" 
d="M319 748q-35 -37 -55 -47.5t-42 -10.5h-34l125 151l81 -14zM261 -12q-143 0 -225 99l64 57q33 -43 71 -63t88 -20q48 0 86 27.5t38 74.5q0 48 -32 76.5t-89 50.5q-29 12 -41.5 17t-37 17.5t-35.5 21t-27.5 24t-24 31.5t-13 38t-5.5 47q0 73 57.5 121t137.5 48
q62 0 105.5 -20t79.5 -56l-58 -55q-33 30 -62.5 44t-66.5 14q-47 0 -78 -27t-31 -68q0 -43 30.5 -70t106.5 -56q170 -65 170 -191q0 -48 -19 -84.5t-50 -57t-66 -30.5t-73 -10z" />
    <glyph glyph-name="sacute" unicode="&#x15b;" horiz-adv-x="416" 
d="M271 589q-34 -38 -54 -48.5t-42 -10.5h-35l125 152l81 -14zM31 67l58 47q43 -58 116 -58q45 0 69 16.5t24 44.5q0 22 -18 37.5t-44.5 23t-58 18.5t-58 24t-44.5 40t-18 66q0 61 45 98.5t120 37.5q46 0 85 -16.5t63 -42.5l-49 -51q-42 43 -99 42q-41 0 -62.5 -17
t-21.5 -46q0 -25 18 -42t45 -25t58.5 -19t58.5 -23t45 -38t18 -63q0 -61 -47.5 -97t-126.5 -36q-59 0 -106 22t-70 57z" />
    <glyph glyph-name="Scircumflex" unicode="&#x15c;" horiz-adv-x="525" 
d="M220 712q-12 -13 -21.5 -17.5t-25.5 -4.5h-54l108 117h73l108 -117h-54q-16 0 -25.5 4.5t-21.5 17.5l-43 43zM299 361q170 -65 170 -191q0 -48 -19 -84.5t-50 -57t-66 -30.5t-73 -10q-143 0 -225 99l64 57q33 -43 71 -63t88 -20q48 0 86 27.5t38 74.5q0 48 -32 76.5
t-89 50.5q-29 12 -41.5 17t-37 17.5t-35.5 21t-27.5 24t-24 31.5t-13 38t-5.5 47q0 73 57.5 121t137.5 48q62 0 105.5 -20t79.5 -56l-58 -55q-33 30 -62.5 44t-66.5 14q-47 0 -78 -27t-31 -68q0 -43 30.5 -70t106.5 -56z" />
    <glyph glyph-name="scircumflex" unicode="&#x15d;" horiz-adv-x="416" 
d="M172 552q-12 -12 -21.5 -16.5t-25.5 -4.5h-53l108 116h72l108 -116h-53q-16 0 -25.5 4.5t-22.5 16.5l-43 43zM138 331q0 -25 18 -42t45 -25t58.5 -19t58.5 -23t45 -38t18 -63q0 -61 -47.5 -97t-126.5 -36q-59 0 -106 22t-70 57l58 47q43 -58 116 -58q45 0 69 16.5
t24 44.5q0 22 -18 37.5t-44.5 23t-58 18.5t-58 24t-44.5 40t-18 66q0 61 45 98.5t120 37.5q46 0 85 -16.5t63 -42.5l-49 -51q-42 43 -99 42q-41 0 -62.5 -17t-21.5 -46z" />
    <glyph glyph-name="Scedilla" unicode="&#x15e;" horiz-adv-x="525" 
d="M469 170v-1q0 -44 -16.5 -79t-44 -55.5t-59.5 -32t-68 -13.5l-29 -40q2 1 5.5 3t16 4.5t27.5 0.5q29 -3 48.5 -21.5t19.5 -51.5q0 -34 -31 -57t-86 -23q-27 0 -50.5 5.5t-33.5 10.5l-10 6l22 42q24 -16 66 -18q29 -1 43 11t14 28q-1 24 -30 29t-53 -8l-27 23l40 56
q-123 8 -197 98l64 57q33 -43 71 -63t88 -20q48 0 86 27.5t38 74.5q0 48 -32 76.5t-89 50.5q-29 12 -41.5 17t-37 17.5t-35.5 21t-27.5 24t-24 31.5t-13 38t-5.5 47q0 73 57.5 121t137.5 48q62 0 105.5 -20t79.5 -56l-58 -55q-33 30 -62.5 44t-66.5 14q-47 0 -78 -27
t-31 -68q0 -43 30.5 -70t106.5 -56q170 -65 170 -191z" />
    <glyph glyph-name="scedilla" unicode="&#x15f;" horiz-adv-x="416" 
d="M381 121q0 -55 -40 -90.5t-107 -41.5l-30 -40q2 1 5.5 3t16.5 4.5t27 0.5q29 -3 48.5 -21.5t19.5 -51.5q0 -34 -31 -57t-86 -23q-26 0 -49.5 5.5t-33.5 10.5l-10 6l21 43q25 -17 66 -18q30 -2 44 10t13 28q-1 24 -30 29t-53 -7l-27 23l40 55q-52 4 -93 25t-61 53l58 47
q43 -58 116 -58q45 0 69 16.5t24 44.5q0 22 -18 37.5t-44.5 23t-58 18.5t-58 24t-44.5 40t-18 66q0 61 45 98.5t120 37.5q46 0 85 -16.5t63 -42.5l-49 -51q-42 43 -99 42q-41 0 -62.5 -17t-21.5 -46q0 -25 18 -42t45 -25t58.5 -19t58.5 -23t45 -38t18 -63z" />
    <glyph glyph-name="Scaron" unicode="&#x160;" horiz-adv-x="525" 
d="M300 691h-73l-108 116h54q16 0 25.5 -4.5t21.5 -16.5l43 -43l44 43q12 12 21.5 16.5t25.5 4.5h54zM299 361q170 -65 170 -191q0 -48 -19 -84.5t-50 -57t-66 -30.5t-73 -10q-143 0 -225 99l64 57q33 -43 71 -63t88 -20q48 0 86 27.5t38 74.5q0 48 -32 76.5t-89 50.5
q-29 12 -41.5 17t-37 17.5t-35.5 21t-27.5 24t-24 31.5t-13 38t-5.5 47q0 73 57.5 121t137.5 48q62 0 105.5 -20t79.5 -56l-58 -55q-33 30 -62.5 44t-66.5 14q-46 0 -77.5 -27t-31.5 -68q0 -43 30.5 -70t106.5 -56z" />
    <glyph glyph-name="scaron" unicode="&#x161;" horiz-adv-x="416" 
d="M252 531h-72l-108 116h53q16 0 25.5 -4.5t21.5 -16.5l44 -43l43 43q13 12 22.5 16.5t25.5 4.5h53zM138 331q0 -25 18 -42t45 -25t58.5 -19t58.5 -23t45 -38t18 -63q0 -61 -47.5 -97t-126.5 -36q-59 0 -106 22t-70 57l58 47q43 -58 116 -58q45 0 69 16.5t24 44.5
q0 22 -18 37.5t-44.5 23t-58 18.5t-58 24t-44.5 40t-18 66q0 61 45 98.5t120 37.5q46 0 85 -16.5t63 -42.5l-49 -51q-42 43 -99 42q-41 0 -62.5 -17t-21.5 -46z" />
    <glyph glyph-name="uni0162" unicode="&#x162;" horiz-adv-x="472" 
d="M277 0h-15l-38 -51q2 1 5.5 3t16.5 4.5t27 0.5q30 -3 49 -21.5t19 -51.5q0 -34 -31 -57t-85 -23q-27 0 -50.5 5.5t-33.5 10.5l-10 6l21 43q25 -17 66 -18q30 -2 44 10t13 28q-1 24 -30 29t-53 -7l-26 23l47 66h-18v568h-179v72h440v-72h-179v-568z" />
    <glyph glyph-name="uni0163" unicode="&#x163;" horiz-adv-x="298" 
d="M274 450v-66h-97v-384h-13l-38 -51q2 1 5.5 3t16.5 4.5t27 0.5q30 -3 49 -21.5t19 -51.5q0 -34 -31 -57t-85 -23q-27 0 -50.5 5.5t-33.5 10.5l-10 6l21 43q25 -17 66 -18q30 -2 44 10t13 28q-1 24 -29.5 29t-53.5 -7l-26 23l47 66h-16v384h-60v66h60v129h77l1 -129h97z
" />
    <glyph glyph-name="Tcaron" unicode="&#x164;" horiz-adv-x="472" 
d="M272 691h-72l-108 116h53q16 0 25.5 -4.5t21.5 -16.5l44 -43l43 43q13 12 22.5 16.5t25.5 4.5h53zM456 640v-72h-179v-568h-82v568h-179v72h440z" />
    <glyph glyph-name="tcaron" unicode="&#x165;" horiz-adv-x="298" 
d="M284 670q25 0 40 -20t15 -49q0 -37 -24 -72.5t-75 -54.5l-13 32q64 31 64 80q-18 -7 -36.5 4t-17.5 34q0 20 13 33t34 13zM176 579l1 -129h97v-66h-97v-384h-78v384h-60v66h60v129h77z" />
    <glyph glyph-name="Tbar" unicode="&#x166;" horiz-adv-x="472" 
d="M456 568h-179v-219h106v-54h-106v-295h-82v295h-107v54h107v219h-179v72h440v-72z" />
    <glyph glyph-name="tbar" unicode="&#x167;" horiz-adv-x="298" 
d="M274 384h-97v-70h90v-54h-90v-260h-78v260h-51v54h51v70h-60v66h60v129h77l1 -129h97v-66z" />
    <glyph glyph-name="Utilde" unicode="&#x168;" horiz-adv-x="635" 
d="M375 692q-28 0 -58.5 21t-48.5 21q-31 0 -52 -37l-47 31q1 1 6 8.5l7 10.5t7.5 10t10 10.5t11.5 9t14 8t16 4.5t19 2q29 0 61.5 -21t50.5 -21q16 0 26 10t18 28l51 -27q-35 -68 -92 -68zM317.5 -12q-109.5 0 -173 63t-63.5 196v393h82v-383q0 -102 41.5 -148.5t113 -46.5
t113 46.5t41.5 148.5v383h82v-393q0 -133 -63.5 -196t-173 -63z" />
    <glyph glyph-name="utilde" unicode="&#x169;" horiz-adv-x="518" 
d="M317 532q-28 0 -58.5 21t-49.5 21q-30 0 -51 -37l-48 31q1 1 6 8.5t7.5 10.5t8 10t9.5 11t11.5 9t14 7.5t16 4.5t18.5 2q29 0 61.5 -21t51.5 -21q16 0 25.5 10t18.5 28l51 -26q-36 -69 -92 -69zM259.5 -12q-37.5 0 -70 10t-61.5 31.5t-45.5 62t-16.5 95.5v263h79v-263
q0 -61 30 -96t84.5 -35t84.5 35t30 96v263h78v-263q0 -55 -16.5 -95.5t-45.5 -62t-61 -31.5t-69.5 -10z" />
    <glyph glyph-name="Umacron" unicode="&#x16a;" horiz-adv-x="635" 
d="M184 721v52h267v-52h-267zM317.5 -12q-109.5 0 -173 63t-63.5 196v393h82v-383q0 -102 41.5 -148.5t113 -46.5t113 46.5t41.5 148.5v383h82v-393q0 -133 -63.5 -196t-173 -63z" />
    <glyph glyph-name="umacron" unicode="&#x16b;" horiz-adv-x="518" 
d="M125 561v53h268v-53h-268zM259.5 -12q-37.5 0 -70 10t-61.5 31.5t-45.5 62t-16.5 95.5v263h79v-263q0 -61 30 -96t84.5 -35t84.5 35t30 96v263h78v-263q0 -55 -16.5 -95.5t-45.5 -62t-61 -31.5t-69.5 -10z" />
    <glyph glyph-name="Ubreve" unicode="&#x16c;" horiz-adv-x="635" 
d="M317.5 690q-64.5 0 -102 32t-39.5 84h57q3 -26 24 -44.5t60.5 -18.5t60.5 18.5t24 44.5h57q-2 -52 -39.5 -84t-102 -32zM317.5 -12q-109.5 0 -173 63t-63.5 196v393h82v-383q0 -102 41.5 -148.5t113 -46.5t113 46.5t41.5 148.5v383h82v-393q0 -133 -63.5 -196t-173 -63z
" />
    <glyph glyph-name="ubreve" unicode="&#x16d;" horiz-adv-x="518" 
d="M259 530q-65 0 -102 32t-39 84h56q4 -26 25 -44.5t60 -18.5t60 18.5t25 44.5h56q-2 -52 -39 -84t-102 -32zM259.5 -12q-37.5 0 -70 10t-61.5 31.5t-45.5 62t-16.5 95.5v263h79v-263q0 -61 30 -96t84.5 -35t84.5 35t30 96v263h78v-263q0 -55 -16.5 -95.5t-45.5 -62
t-61 -31.5t-69.5 -10z" />
    <glyph glyph-name="Uring" unicode="&#x16e;" horiz-adv-x="635" 
d="M318 882q45 0 76.5 -31t31.5 -74.5t-31.5 -74.5t-76.5 -31t-77 31t-32 74.5t32 74.5t77 31zM317.5 724q23.5 0 39.5 15.5t16 37t-16 37t-39.5 15.5t-39.5 -15.5t-16 -37t16 -37t39.5 -15.5zM317.5 -12q-109.5 0 -173 63t-63.5 196v393h82v-383q0 -102 41.5 -148.5
t113 -46.5t113 46.5t41.5 148.5v383h82v-393q0 -133 -63.5 -196t-173 -63z" />
    <glyph glyph-name="uring" unicode="&#x16f;" horiz-adv-x="518" 
d="M259 722q45 0 77 -31t32 -74.5t-32 -74.5t-77 -31t-76.5 31t-31.5 74.5t31.5 74.5t76.5 31zM259 564q23 0 39.5 15.5t16.5 37t-16.5 37t-39.5 15.5t-39 -15.5t-16 -37t16 -37t39 -15.5zM259.5 -12q-37.5 0 -70 10t-61.5 31.5t-45.5 62t-16.5 95.5v263h79v-263
q0 -61 30 -96t84.5 -35t84.5 35t30 96v263h78v-263q0 -55 -16.5 -95.5t-45.5 -62t-61 -31.5t-69.5 -10z" />
    <glyph glyph-name="Uhungarumlaut" unicode="&#x170;" horiz-adv-x="635" 
d="M306 748q-35 -37 -55 -47.5t-42 -10.5h-34l125 151l81 -14zM449 748q-35 -37 -55 -47.5t-42 -10.5h-34l125 151l81 -14zM317.5 -12q-109.5 0 -173 63t-63.5 196v393h82v-383q0 -102 41.5 -148.5t113 -46.5t113 46.5t41.5 148.5v383h82v-393q0 -133 -63.5 -196t-173 -63z
" />
    <glyph glyph-name="uhungarumlaut" unicode="&#x171;" horiz-adv-x="518" 
d="M248 589q-35 -38 -55 -48.5t-42 -10.5h-34l124 152l81 -14zM391 589q-35 -38 -55 -48.5t-42 -10.5h-34l125 152l80 -14zM259.5 -12q-37.5 0 -70 10t-61.5 31.5t-45.5 62t-16.5 95.5v263h79v-263q0 -61 30 -96t84.5 -35t84.5 35t30 96v263h78v-263q0 -55 -16.5 -95.5
t-45.5 -62t-61 -31.5t-69.5 -10z" />
    <glyph glyph-name="Uogonek" unicode="&#x172;" horiz-adv-x="635" 
d="M472 640h82v-393q0 -204 -152 -248l-20 -11q-60 -33 -64 -76q-2 -33 29 -41q24 -5 57 9l15 -44q-36 -27 -86 -20.5t-68 44.5q-14 36 -0.5 68t49.5 60q-108 1 -170.5 64t-62.5 195v393h82v-383q0 -102 41.5 -148.5t113 -46.5t113 46.5t41.5 148.5v383z" />
    <glyph glyph-name="uogonek" unicode="&#x173;" horiz-adv-x="518" 
d="M374 450h78v-263q0 -150 -120 -188l-19 -11q-59 -33 -63 -76q-3 -33 29 -41q23 -5 56 9l16 -44q-37 -27 -87 -20.5t-67 44.5q-14 36 -0.5 68.5t49.5 59.5q-36 2 -66.5 13t-57 33t-41.5 61t-15 92v263h79v-263q0 -61 30 -96t84.5 -35t84.5 35t30 96v263z" />
    <glyph glyph-name="Wcircumflex" unicode="&#x174;" horiz-adv-x="896" 
d="M405 712q-13 -13 -22.5 -17.5t-25.5 -4.5h-53l108 117h72l108 -117h-53q-16 0 -25.5 4.5t-21.5 17.5l-44 43zM795 640h86l-211 -640h-66l-156 530l-155 -530h-66l-211 640h86l158 -522l153 522h70l153 -522z" />
    <glyph glyph-name="wcircumflex" unicode="&#x175;" horiz-adv-x="735" 
d="M324 552q-12 -12 -21.5 -16.5t-26.5 -4.5h-53l108 116h73l107 -116h-53q-16 0 -25.5 4.5t-21.5 16.5l-44 43zM630 450h84l-172 -450h-66l-109 358l-109 -358h-65l-172 450h84l121 -347l108 347h67l108 -347z" />
    <glyph glyph-name="Ycircumflex" unicode="&#x176;" horiz-adv-x="526" 
d="M219 712q-12 -13 -21.5 -17.5t-25.5 -4.5h-53l108 117h72l108 -117h-53q-16 0 -25.5 4.5t-22.5 17.5l-43 43zM530 640l-226 -340v-300h-82v300l-226 340h96l171 -262l171 262h96z" />
    <glyph glyph-name="ycircumflex" unicode="&#x177;" horiz-adv-x="454" 
d="M183 552q-12 -12 -21.5 -16.5t-25.5 -4.5h-53l107 116h73l108 -116h-53q-16 0 -25.5 4.5t-22.5 16.5l-43 43zM368 450h85l-279 -660h-83l97 220l-187 440h85l141 -347z" />
    <glyph glyph-name="Ydieresis" unicode="&#x178;" horiz-adv-x="526" 
d="M174.5 702q-20.5 0 -35 14.5t-14.5 36.5q0 20 14.5 34.5t34.5 14.5t35 -14.5t15 -34.5q0 -21 -14.5 -36t-35 -15zM350.5 702q-20.5 0 -34.5 14.5t-14 36.5q0 20 14.5 34.5t34.5 14.5t35 -14.5t15 -34.5q0 -21 -15 -36t-35.5 -15zM530 640l-226 -340v-300h-82v300
l-226 340h96l171 -262l171 262h96z" />
    <glyph glyph-name="Zacute" unicode="&#x179;" horiz-adv-x="569" 
d="M333 748q-35 -37 -55 -47.5t-42 -10.5h-34l125 151l81 -14zM157 72h356v-72h-457v61l333 507h-315v72h419v-61z" />
    <glyph glyph-name="zacute" unicode="&#x17a;" horiz-adv-x="468" 
d="M290 589q-35 -38 -55 -48.5t-42 -10.5h-34l124 152l81 -14zM143 69h284v-69h-386v57l271 324h-256v69h353v-63z" />
    <glyph glyph-name="Zdotaccent" unicode="&#x17b;" horiz-adv-x="569" 
d="M278 704q-23 0 -39.5 16t-16.5 39t16.5 39t39.5 16t39 -16t16 -39t-16 -39t-39 -16zM157 72h356v-72h-457v61l333 507h-315v72h419v-61z" />
    <glyph glyph-name="zdotaccent" unicode="&#x17c;" horiz-adv-x="468" 
d="M234 544q-23 0 -39 16t-16 39t16 39.5t39 16.5t39.5 -16.5t16.5 -39.5t-16.5 -39t-39.5 -16zM143 69h284v-69h-386v57l271 324h-256v69h353v-63z" />
    <glyph glyph-name="Zcaron" unicode="&#x17d;" horiz-adv-x="569" 
d="M314 691h-73l-108 116h54q16 0 25.5 -4.5t21.5 -16.5l44 -43l43 43q12 12 21.5 16.5t25.5 4.5h54zM157 72h356v-72h-457v61l333 507h-315v72h419v-61z" />
    <glyph glyph-name="zcaron" unicode="&#x17e;" horiz-adv-x="468" 
d="M270 531h-72l-108 116h53q16 0 25.5 -4.5t22.5 -16.5l43 -43l44 43q12 12 21.5 16.5t25.5 4.5h53zM143 69h284v-69h-386v57l271 324h-256v69h353v-63z" />
    <glyph glyph-name="uni0189" unicode="&#x189;" horiz-adv-x="661" 
d="M260 640q83 0 149.5 -25t109 -68.5t64.5 -101t22 -125t-22 -125t-64.5 -101.5t-109 -69t-149.5 -25h-174v295h-66v54h66v291h174zM244 66q138 0 206.5 68t68.5 187q0 118 -68.5 185.5t-206.5 67.5h-76v-225h147v-54h-147v-229h76z" />
    <glyph glyph-name="uni018F" unicode="&#x18f;" horiz-adv-x="728" 
d="M350 655q94 0 168.5 -45t114.5 -121t40 -167q0 -92 -40 -168t-113 -121t-163 -45q-135 0 -218 89.5t-83 234.5v40h530q-8 100 -72 164.5t-164 64.5q-116 0 -189 -87l-65 52q43 52 108.5 80.5t145.5 28.5zM357 61q93 0 154.5 62t72.5 160h-442q5 -103 62.5 -162.5
t152.5 -59.5z" />
    <glyph glyph-name="florin" unicode="&#x192;" horiz-adv-x="470" 
d="M375 586q-54 0 -72 -96l-18 -95h105v-63h-116l-61 -320q-14 -76 -49.5 -119t-93.5 -43q-60 0 -100 37l42 54q25 -22 54 -22q51 0 70 97l60 316h-81v63h93l19 98q15 76 52 119t95 43q63 0 116 -46l-43 -54q-35 31 -72 31z" />
    <glyph glyph-name="uni0197" unicode="&#x197;" horiz-adv-x="253" 
d="M275 402v-54h-107v-348h-82v348h-106v54h106v238h82v-238h107z" />
    <glyph glyph-name="uni019D" unicode="&#x19d;" horiz-adv-x="691" 
d="M525 640h80v-640h-78l-361 506v-540q0 -44 -11.5 -76t-29.5 -48t-39.5 -25.5t-43.5 -10t-40 1t-29 4.5l-12 3l12 73q2 0 6 -1.5t15.5 -3t22.5 -1.5t24 3.5t22 11.5t16 23.5t7 36.5v43v640h78l361 -503v503z" />
    <glyph glyph-name="uni01C3" unicode="&#x1c3;" horiz-adv-x="243" 
d="M167 640l-13 -468h-65l-14 468h92zM121 -8q-23 0 -39 16.5t-16 39.5t16 39t39 16t39.5 -16t16.5 -39t-16.5 -39.5t-39.5 -16.5z" />
    <glyph glyph-name="uni01CD" unicode="&#x1cd;" horiz-adv-x="599" 
d="M336 691h-73l-107 116h53q16 0 25.5 -4.5t21.5 -16.5l44 -43l43 43q12 12 21.5 16.5t25.5 4.5h54zM505 0l-70 185h-271l-70 -185h-88l253 640h82l253 -640h-89zM186 244h227l-113 300z" />
    <glyph glyph-name="uni01CE" unicode="&#x1ce;" 
d="M314 531h-72l-108 116h53q16 0 25.5 -4.5t22.5 -16.5l43 -43l44 43q12 12 21.5 16.5t25.5 4.5h53zM419 450h64v-450h-64l-11 68q-57 -80 -161 -80q-91 0 -151 65t-60 172.5t60 172t151 64.5q104 0 161 -80zM264 55q67 0 108.5 48.5t41.5 121.5t-41.5 121.5t-108.5 48.5
q-66 0 -106.5 -48.5t-40.5 -121.5t40.5 -121.5t106.5 -48.5z" />
    <glyph glyph-name="uni01CF" unicode="&#x1cf;" horiz-adv-x="253" 
d="M163 691h-73l-107 116h53q16 0 25.5 -4.5t21.5 -16.5l44 -43l43 43q12 12 21.5 16.5t26.5 4.5h53zM86 0v640h82v-640h-82z" />
    <glyph glyph-name="uni01D0" unicode="&#x1d0;" horiz-adv-x="218" 
d="M145 531h-72l-108 116h53q16 0 25.5 -4.5t22.5 -16.5l43 -43l43 43q13 12 22.5 16.5t25.5 4.5h53zM71 0v451h76v-451h-76z" />
    <glyph glyph-name="uni01D1" unicode="&#x1d1;" horiz-adv-x="780" 
d="M426 691h-72l-108 116h53q16 0 25.5 -4.5t22.5 -16.5l43 -43l44 43q12 12 21.5 16.5t25.5 4.5h53zM390 655q148 0 241.5 -95.5t93.5 -237.5q0 -93 -41.5 -168.5t-118.5 -120.5t-175 -45t-175 45t-118 120.5t-41 168.5q0 142 93 237.5t241 95.5zM390 62q111 0 180 75
t69 185q0 109 -69 184t-180 75t-179.5 -75t-68.5 -184q0 -110 68.5 -185t179.5 -75z" />
    <glyph glyph-name="uni01D2" unicode="&#x1d2;" horiz-adv-x="546" 
d="M309 531h-72l-108 116h53q16 0 25.5 -4.5t21.5 -16.5l44 -43l43 43q13 12 22.5 16.5t25.5 4.5h53zM273 462q104 0 170.5 -68.5t66.5 -168.5t-66.5 -168.5t-170.5 -68.5t-170.5 68.5t-66.5 168.5t66.5 168.5t170.5 68.5zM273 56q67 0 110.5 48.5t43.5 120.5t-43.5 120.5
t-110.5 48.5t-110.5 -48.5t-43.5 -120.5t43.5 -120.5t110.5 -48.5z" />
    <glyph glyph-name="uni01D3" unicode="&#x1d3;" horiz-adv-x="635" 
d="M354 691h-73l-108 116h54q16 0 25.5 -4.5t21.5 -16.5l43 -43l44 43q12 12 21.5 16.5t25.5 4.5h53zM472 640h82v-393q0 -133 -63.5 -196t-173 -63t-173 63t-63.5 196v393h82v-383q0 -102 41.5 -148.5t113 -46.5t113 46.5t41.5 148.5v383z" />
    <glyph glyph-name="uni01D4" unicode="&#x1d4;" horiz-adv-x="518" 
d="M295 531h-72l-108 116h53q16 0 25.5 -4.5t22.5 -16.5l43 -43l43 43q13 12 22.5 16.5t25.5 4.5h53zM374 450h78v-263q0 -55 -16.5 -95.5t-45.5 -62t-61 -31.5t-69.5 -10t-70 10t-61.5 31.5t-45.5 62t-16.5 95.5v263h79v-263q0 -61 30 -96t84.5 -35t84.5 35t30 96v263z" />
    <glyph glyph-name="uni01D5" unicode="&#x1d5;" horiz-adv-x="635" 
d="M184 840v52h267v-52h-267zM228.5 792q20.5 0 35 -14.5t14.5 -35.5t-14.5 -35.5t-35 -14.5t-34.5 14.5t-14 35.5t14 35.5t34.5 14.5zM405.5 792q20.5 0 35 -14.5t14.5 -35.5t-14.5 -35.5t-35 -14.5t-34.5 14.5t-14 35.5t14 35.5t34.5 14.5zM317.5 -12q-109.5 0 -173 63
t-63.5 196v393h82v-383q0 -102 41.5 -148.5t113 -46.5t113 46.5t41.5 148.5v383h82v-393q0 -133 -63.5 -196t-173 -63z" />
    <glyph glyph-name="uni01D6" unicode="&#x1d6;" horiz-adv-x="518" 
d="M125 696v53h268v-53h-268zM170.5 642q20.5 0 35 -14.5t14.5 -34.5q0 -21 -14.5 -36t-35 -15t-34.5 15t-14 36q0 20 14 34.5t34.5 14.5zM347.5 642q20.5 0 35 -14.5t14.5 -34.5q0 -21 -14.5 -36t-35 -15t-35 15t-14.5 36q0 20 14.5 34.5t35 14.5zM259.5 -12
q-37.5 0 -70 10t-61.5 31.5t-45.5 62t-16.5 95.5v263h79v-263q0 -61 30 -96t84.5 -35t84.5 35t30 96v263h78v-263q0 -55 -16.5 -95.5t-45.5 -62t-61 -31.5t-69.5 -10z" />
    <glyph glyph-name="uni01D7" unicode="&#x1d7;" horiz-adv-x="635" 
d="M271 809l99 123l78 -16l-84 -85q-22 -22 -50 -22h-43zM228.5 792q20.5 0 35 -14.5t14.5 -35.5t-14.5 -35.5t-35 -14.5t-34.5 14.5t-14 35.5t14 35.5t34.5 14.5zM405.5 792q20.5 0 35 -14.5t14.5 -35.5t-14.5 -35.5t-35 -14.5t-34.5 14.5t-14 35.5t14 35.5t34.5 14.5z
M317.5 -12q-109.5 0 -173 63t-63.5 196v393h82v-383q0 -102 41.5 -148.5t113 -46.5t113 46.5t41.5 148.5v383h82v-393q0 -133 -63.5 -196t-173 -63z" />
    <glyph glyph-name="uni01D8" unicode="&#x1d8;" horiz-adv-x="518" 
d="M213 665l98 123l79 -16l-85 -84q-22 -23 -50 -23h-42zM170.5 642q20.5 0 35 -14.5t14.5 -34.5q0 -21 -14.5 -36t-35 -15t-34.5 15t-14 36q0 20 14 34.5t34.5 14.5zM347 642q20 0 35 -14.5t15 -34.5q0 -21 -14.5 -36t-35 -15t-35 15t-14.5 36q0 20 14.5 34.5t34.5 14.5z
M259.5 -12q-37.5 0 -70 10t-61.5 31.5t-45.5 62t-16.5 95.5v263h79v-263q0 -61 30 -96t84.5 -35t84.5 35t30 96v263h78v-263q0 -55 -16.5 -95.5t-45.5 -62t-61 -31.5t-69.5 -10z" />
    <glyph glyph-name="uni01D9" unicode="&#x1d9;" horiz-adv-x="635" 
d="M354 810h-73l-108 116h54q16 0 25.5 -4.5t21.5 -16.5l43 -44l44 44q12 12 21.5 16.5t25.5 4.5h53zM180 742q0 21 14 35.5t34.5 14.5t35 -14.5t14.5 -35.5t-14.5 -35.5t-35 -14.5t-34.5 14.5t-14 35.5zM357 742q0 21 14 35.5t34.5 14.5t35 -14.5t14.5 -35.5t-14.5 -35.5
t-35 -14.5t-34.5 14.5t-14 35.5zM472 640h82v-393q0 -133 -63.5 -196t-173 -63t-173 63t-63.5 196v393h82v-383q0 -102 41.5 -148.5t113 -46.5t113 46.5t41.5 148.5v383z" />
    <glyph glyph-name="uni01DA" unicode="&#x1da;" horiz-adv-x="518" 
d="M295 666h-72l-108 116h53q16 0 25.5 -4.5t22.5 -16.5l43 -43l43 43q13 12 22.5 16.5t25.5 4.5h53zM122 593q0 20 14 34.5t34.5 14.5t35 -14.5t14.5 -34.5q0 -21 -14.5 -36t-35 -15t-34.5 15t-14 36zM298 593q0 20 14.5 34.5t35 14.5t35 -14.5t14.5 -34.5q0 -21 -14.5 -36
t-35 -15t-35 15t-14.5 36zM374 450h78v-263q0 -55 -16.5 -95.5t-45.5 -62t-61 -31.5t-69.5 -10t-70 10t-61.5 31.5t-45.5 62t-16.5 95.5v263h79v-263q0 -61 30 -96t84.5 -35t84.5 35t30 96v263z" />
    <glyph glyph-name="uni01DB" unicode="&#x1db;" horiz-adv-x="635" 
d="M360 809h-43q-27 0 -50 22l-84 85l78 16zM228.5 792q20.5 0 35 -14.5t14.5 -35.5t-14.5 -35.5t-35 -14.5t-34.5 14.5t-14 35.5t14 35.5t34.5 14.5zM405.5 792q20.5 0 35 -14.5t14.5 -35.5t-14.5 -35.5t-35 -14.5t-34.5 14.5t-14 35.5t14 35.5t34.5 14.5zM317.5 -12
q-109.5 0 -173 63t-63.5 196v393h82v-383q0 -102 41.5 -148.5t113 -46.5t113 46.5t41.5 148.5v383h82v-393q0 -133 -63.5 -196t-173 -63z" />
    <glyph glyph-name="uni01DC" unicode="&#x1dc;" horiz-adv-x="518" 
d="M301 665h-42q-28 0 -50 23l-85 84l79 16zM170.5 642q20.5 0 35 -14.5t14.5 -34.5q0 -21 -14.5 -36t-35 -15t-34.5 15t-14 36q0 20 14 34.5t34.5 14.5zM347.5 642q20.5 0 35 -14.5t14.5 -34.5q0 -21 -14.5 -36t-35 -15t-35 15t-14.5 36q0 20 14.5 34.5t35 14.5zM259.5 -12
q-37.5 0 -70 10t-61.5 31.5t-45.5 62t-16.5 95.5v263h79v-263q0 -61 30 -96t84.5 -35t84.5 35t30 96v263h78v-263q0 -55 -16.5 -95.5t-45.5 -62t-61 -31.5t-69.5 -10z" />
    <glyph glyph-name="uni01DD" unicode="&#x1dd;" horiz-adv-x="514" 
d="M243 462q105 0 170 -68t65 -169q0 -99 -64 -168t-162 -69q-96 0 -156 63t-60 160v29h359q-3 68 -44 111.5t-108 43.5q-82 0 -127 -56l-57 46q31 37 78.5 57t105.5 20zM252 54q54 0 91 36t48 94h-277q7 -61 43.5 -95.5t94.5 -34.5z" />
    <glyph glyph-name="uni01DE" unicode="&#x1de;" horiz-adv-x="599" 
d="M433 892v-52h-267v52h267zM210.5 692q-20.5 0 -34.5 14.5t-14 35.5t14 35.5t34.5 14.5t35 -14.5t14.5 -35.5t-14.5 -35.5t-35 -14.5zM387.5 792q20.5 0 35 -14.5t14.5 -35.5t-14.5 -35.5t-35 -14.5t-34.5 14.5t-14 35.5t14 35.5t34.5 14.5zM505 0l-70 185h-271l-70 -185
h-88l253 640h82l253 -640h-89zM186 244h227l-113 300z" />
    <glyph glyph-name="uni01DF" unicode="&#x1df;" 
d="M412 749v-53h-267v53h267zM189.5 542q-20.5 0 -34.5 15t-14 36q0 20 14 34.5t34.5 14.5t35 -14.5t14.5 -34.5q0 -21 -14.5 -36t-35 -15zM366.5 642q20.5 0 35 -14.5t14.5 -34.5q0 -21 -14.5 -36t-35 -15t-35 15t-14.5 36q0 20 14.5 34.5t35 14.5zM419 450h64v-450h-64
l-11 68q-57 -80 -161 -80q-91 0 -151 65t-60 172.5t60 172t151 64.5q104 0 161 -80zM264 55q67 0 108.5 48.5t41.5 121.5t-41.5 121.5t-108.5 48.5t-107 -48.5t-40 -121.5t40 -121.5t107 -48.5z" />
    <glyph glyph-name="Gcaron" unicode="&#x1e6;" horiz-adv-x="744" 
d="M412 691h-72l-108 116h53q16 0 25.5 -4.5t22.5 -16.5l43 -43l43 43q13 12 22.5 16.5t25.5 4.5h53zM428 343h268v-57q0 -58 -19.5 -111t-57 -95t-96.5 -67t-132 -25q-99 0 -176 45t-118 121t-41 168.5t40.5 168t117.5 120t177 44.5q36 0 70.5 -6.5t55 -13.5t40.5 -17.5
t24 -14t9 -6.5l-44 -64q-21 18 -61 33t-94 15q-114 0 -181.5 -74.5t-67.5 -183.5q0 -110 68.5 -185.5t180.5 -75.5q96 0 159 57.5t63 154.5h-185v69z" />
    <glyph glyph-name="gcaron" unicode="&#x1e7;" 
d="M316 533h-72l-108 116h53q16 0 25.5 -4.5t22.5 -16.5l43 -44l44 44q12 12 21.5 16.5t25.5 4.5h53zM419 451h64v-433q0 -107 -54 -167.5t-159 -60.5q-55 0 -98 15l19 69q35 -16 76 -16q70 0 104 42.5t34 119.5v44q-57 -76 -158 -76q-91 0 -151 65t-60 172.5t60 172
t151 64.5q104 0 161 -80zM264 56q67 0 108.5 48t41.5 121t-41.5 121.5t-108.5 48.5q-66 0 -106.5 -48.5t-40.5 -121.5t40.5 -121t106.5 -48z" />
    <glyph glyph-name="uni01EA" unicode="&#x1ea;" horiz-adv-x="780" 
d="M459 -12q-60 -33 -63 -76q-3 -33 29 -41q23 -5 56 9l15 -44q-36 -27 -86 -20.5t-67 44.5q-15 36 -1.5 68t49.5 60h-1q-98 0 -175 45t-118 120.5t-41 168.5q0 142 93 237.5t241 95.5t241.5 -95.5t93.5 -237.5q0 -119 -67.5 -208t-180.5 -116zM142 321q0 -109 68.5 -184
t179.5 -75t180 75t69 184q0 110 -69 185t-180 75t-179.5 -75t-68.5 -185z" />
    <glyph glyph-name="uni01EB" unicode="&#x1eb;" horiz-adv-x="546" 
d="M324 -12q-59 -33 -63 -76q-3 -33 29 -40q24 -6 56 8l16 -44q-37 -27 -86.5 -20t-67.5 44q-14 36 -0.5 68.5t49.5 59.5q-98 6 -159.5 73.5t-61.5 163.5q0 100 66.5 168.5t170.5 68.5t170.5 -68.5t66.5 -168.5q0 -82 -46.5 -145t-123.5 -84zM119 225q0 -72 43 -120.5
t110.5 -48.5t111 48.5t43.5 120.5t-43.5 120.5t-111 48.5t-110.5 -48.5t-43 -120.5z" />
    <glyph glyph-name="Aringacute" unicode="&#x1fa;" horiz-adv-x="599" 
d="M346 834q-22 -22 -50 -22h-43l99 123l78 -16zM300 574q-45 0 -77 31t-32 74.5t32 74.5t77 31t76.5 -31t31.5 -74.5t-31.5 -74.5t-76.5 -31zM300 732q-23 0 -39.5 -15.5t-16.5 -37t16.5 -37t39.5 -15.5t39 15.5t16 37t-16 37t-39 15.5zM505 0l-70 159h-271l-70 -159h-88
l253 550h82l253 -550h-89zM186 210h227l-113 258z" />
    <glyph glyph-name="aringacute" unicode="&#x1fb;" 
d="M324 771q-22 -22 -50 -22h-42l98 123l79 -16zM278 511q-45 0 -76.5 31t-31.5 74.5t31.5 74.5t76.5 31t77 -31t32 -74.5t-32 -74.5t-77 -31zM278 669q-23 0 -39 -15.5t-16 -37t16 -37t39 -15.5t39.5 15.5t16.5 37t-16.5 37t-39.5 15.5zM419 450h64v-450h-64l-11 68
q-57 -80 -161 -80q-91 0 -151 65t-60 172.5t60 172t151 64.5q104 0 161 -80zM264 55q67 0 108.5 48.5t41.5 121.5t-41.5 121.5t-108.5 48.5t-107 -48.5t-40 -121.5t40 -121.5t107 -48.5z" />
    <glyph glyph-name="AEacute" unicode="&#x1fc;" horiz-adv-x="787" 
d="M484 738q-35 -37 -55 -47.5t-42 -10.5h-34l125 151l80 -14zM732 571h-373l61 -217h262v-68h-242l61 -215h231v-71h-298l-45 178h-231l-64 -178h-88l253 643h473v-72zM183 247h188l-78 307z" />
    <glyph glyph-name="aeacute" unicode="&#x1fd;" horiz-adv-x="894" 
d="M514 579q-35 -38 -55 -48.5t-42 -10.5h-34l125 152l81 -14zM864 240v-29h-360q4 -69 44.5 -112.5t107.5 -43.5q82 0 128 56l56 -46q-30 -37 -78 -57t-105 -20q-103 0 -169 66v-54h-64l-11 68q-57 -80 -161 -80q-91 0 -151 65t-60 172.5t60 172t151 64.5q104 0 161 -80
l11 68h64v-53q64 65 159 65q96 0 156.5 -63t60.5 -159zM647 396q-54 0 -91 -36t-48 -94h277q-7 61 -43.5 95.5t-94.5 34.5zM269 55q67 0 108.5 48.5t41.5 121.5t-41.5 121.5t-108.5 48.5t-107 -48.5t-40 -121.5t40 -121.5t107 -48.5z" />
    <glyph glyph-name="Oslashacute" unicode="&#x1fe;" horiz-adv-x="780" 
d="M442 748q-35 -37 -55 -47.5t-42 -10.5h-35l125 151l81 -14zM636 555q89 -94 89 -233q0 -93 -41.5 -168.5t-118.5 -120.5t-175 -45q-119 0 -206 66l-73 -80l-39 35l72 80q-88 94 -88 233q0 142 93 237.5t241 95.5q119 0 206 -65l73 80l40 -35zM142 322q0 -100 57 -172
l344 381q-64 50 -153 50q-111 0 -179.5 -75t-68.5 -184zM390 62q111 0 180 75t69 185q0 100 -58 172l-344 -381q64 -51 153 -51z" />
    <glyph glyph-name="oslashacute" unicode="&#x1ff;" horiz-adv-x="546" 
d="M328 589q-34 -38 -54 -48.5t-43 -10.5h-34l125 152l81 -14zM449 389q61 -67 61 -164q0 -100 -66 -168.5t-171 -68.5q-84 0 -145 45l-52 -57l-31 28l52 57q-61 67 -61 164q0 101 65.5 169t171.5 68q83 0 145 -45l51 57l32 -28zM116 225q0 -62 32 -107l220 244
q-39 33 -95 33q-70 0 -113.5 -48.5t-43.5 -121.5zM273 56q70 0 112.5 48t42.5 121q0 62 -31 106l-220 -243q40 -32 96 -32z" />
    <glyph glyph-name="Scommaaccent" unicode="&#x218;" horiz-adv-x="525" 
d="M261 -12q-143 0 -225 99l64 57q33 -43 71 -63t88 -20q48 0 86 27.5t38 74.5q0 48 -32 76.5t-89 50.5q-29 12 -41.5 17t-37 17.5t-35.5 21t-27.5 24t-24 31.5t-13 38t-5.5 47q0 73 57.5 121t137.5 48q62 0 105.5 -20t79.5 -56l-58 -55q-33 30 -62.5 44t-66.5 14
q-47 0 -78 -27t-31 -68q0 -43 30.5 -70t106.5 -56q170 -65 170 -191q0 -48 -19 -84.5t-50 -57t-66 -30.5t-73 -10zM220 -257l-13 32q63 31 64 79q-19 -6 -37 5t-18 34q1 20 14 33t34 13q25 0 40 -20.5t15 -48.5q0 -38 -24 -73.5t-75 -53.5z" />
    <glyph glyph-name="scommaaccent" unicode="&#x219;" horiz-adv-x="416" 
d="M31 67l58 47q43 -58 116 -58q45 0 69 16.5t24 44.5q0 22 -18 37.5t-44.5 23t-58 18.5t-58 24t-44.5 40t-18 66q0 61 45 98.5t120 37.5q46 0 85 -16.5t63 -42.5l-49 -51q-42 43 -99 42q-41 0 -62.5 -17t-21.5 -46q0 -25 18 -42t45 -25t58.5 -19t58.5 -23t45 -38t18 -63
q0 -61 -47.5 -97t-126.5 -36q-59 0 -106 22t-70 57zM172 -257l-12 32q63 31 64 80q-19 -7 -37 4t-18 34q0 20 13 33t35 13q24 0 39 -20t15 -49q0 -37 -24 -73t-75 -54z" />
    <glyph glyph-name="uni021A" unicode="&#x21a;" horiz-adv-x="472" 
d="M456 640v-72h-179v-568h-82v568h-179v72h440zM237 -61q24 0 39 -20t15 -49q0 -37 -24 -72.5t-75 -54.5l-12 32q63 31 64 80q-19 -7 -37 4t-18 34q0 20 13 33t35 13z" />
    <glyph glyph-name="uni021B" unicode="&#x21b;" horiz-adv-x="298" 
d="M177 450h97v-66h-97v-384h-78v384h-60v66h60v129h77zM139 -61q25 0 40 -20t14 -49q0 -37 -24 -72.5t-74 -54.5l-13 32q63 31 64 80q-19 -7 -37 4t-18 34q0 20 13 33t35 13z" />
    <glyph glyph-name="uni0228" unicode="&#x228;" horiz-adv-x="515" 
d="M459 569l-291 -1v-215h241v-67h-241v-215h291v-71h-163l-38 -51q2 1 5.5 3t16.5 4.5t27 0.5q29 -3 48.5 -21.5t19.5 -51.5q0 -34 -31 -57t-86 -23q-26 0 -49.5 5.5t-34.5 10.5l-10 6l22 43q25 -17 66 -18q29 -2 43.5 10t13.5 28q-1 24 -30 29t-53 -7l-27 23l48 66h-161
v640h373v-71z" />
    <glyph glyph-name="uni0229" unicode="&#x229;" horiz-adv-x="514" 
d="M478 240v-30h-359q3 -68 44 -111.5t108 -43.5q82 0 127 56l56 -46q-29 -35 -74.5 -55.5t-100.5 -21.5l-29 -39q2 1 5.5 3t16.5 4.5t27 0.5q30 -3 49 -21.5t19 -51.5q0 -34 -31 -57t-85 -23q-27 0 -50.5 5.5t-33.5 10.5l-10 6l21 43q25 -17 66 -18q30 -2 44 10t13 28
q-1 24 -29.5 29t-53.5 -7l-26 23l40 57q-89 12 -142.5 78t-53.5 156q0 100 64 168.5t162 68.5q96 0 156 -63t60 -159zM262 396q-54 0 -91.5 -36t-48.5 -94h278q-7 61 -43.5 95.5t-94.5 34.5z" />
    <glyph glyph-name="uni022A" unicode="&#x22a;" horiz-adv-x="780" 
d="M257 840v52h267v-52h-267zM301.5 792q20.5 0 35 -14.5t14.5 -35.5t-14.5 -35.5t-35 -14.5t-34.5 14.5t-14 35.5t14 35.5t34.5 14.5zM478.5 792q20.5 0 35 -14.5t14.5 -35.5t-14.5 -35.5t-35 -14.5t-35 14.5t-14.5 35.5t14.5 35.5t35 14.5zM390 -12q-98 0 -175 44.5
t-118 120.5t-41 169q0 142 93 237.5t241 95.5t241.5 -95.5t93.5 -237.5q0 -93 -41.5 -169t-118.5 -120.5t-175 -44.5zM390 62q111 0 180 75t69 185q0 109 -69 184t-180 75t-179.5 -75t-68.5 -184q0 -110 68.5 -185t179.5 -75z" />
    <glyph glyph-name="uni022B" unicode="&#x22b;" horiz-adv-x="546" 
d="M139 696v53h267v-53h-267zM184 642q20 0 35 -14.5t15 -34.5q0 -21 -15 -36t-35 -15t-34.5 15t-14.5 36q0 20 14.5 34.5t34.5 14.5zM360.5 642q20.5 0 35 -14.5t14.5 -34.5q0 -21 -14.5 -36t-35 -15t-34.5 15t-14 36q0 20 14 34.5t34.5 14.5zM273 -12q-104 0 -170.5 68.5
t-66.5 168.5t66.5 168.5t170.5 68.5t170.5 -68.5t66.5 -168.5t-66.5 -168.5t-170.5 -68.5zM273 56q67 0 110.5 48.5t43.5 120.5t-43.5 120.5t-110.5 48.5t-110.5 -48.5t-43.5 -120.5t43.5 -120.5t110.5 -48.5z" />
    <glyph glyph-name="uni0232" unicode="&#x232;" horiz-adv-x="526" 
d="M397 773v-52h-268v52h268zM530 640l-226 -340v-300h-82v300l-226 340h96l171 -262l171 262h96z" />
    <glyph glyph-name="uni0233" unicode="&#x233;" horiz-adv-x="454" 
d="M360 614v-53h-267v53h267zM368 450h85l-279 -660h-83l97 220l-187 440h85l141 -347z" />
    <glyph glyph-name="uni0237" unicode="&#x237;" horiz-adv-x="204" 
d="M151 450v-507q0 -40 -9 -69.5t-22 -45t-32 -24.5t-33.5 -11.5t-31.5 -2.5l-33 4l6 68q10 -3 24 -3q21 0 36.5 16.5t15.5 60.5v514h79z" />
    <glyph glyph-name="uni0243" unicode="&#x243;" horiz-adv-x="553" 
d="M327 356q82 -11 126 -56t44 -116q0 -85 -62.5 -134.5t-169.5 -49.5h-179v164h-66v54h66v422h151q95 0 150 -40.5t55 -111.5q0 -106 -115 -132zM244 575h-76v-189h73q54 0 85 26.5t31 72.5q0 43 -29.5 66.5t-83.5 23.5zM261 65q70 0 110 33.5t40 91.5q0 57 -41 89.5
t-112 32.5h-90v-94h147v-54h-147v-99h93z" />
    <glyph glyph-name="uni0244" unicode="&#x244;" horiz-adv-x="635" 
d="M472 640h82v-393q0 -133 -63.5 -196t-173 -63t-173 63t-63.5 196v393h82v-123h309v123zM317.5 62q71.5 0 113 46.5t41.5 148.5v207h-309v-207q0 -102 41.5 -148.5t113 -46.5z" />
    <glyph glyph-name="uni0245" unicode="&#x245;" horiz-adv-x="599" 
d="M594 0h-91l-203 538l-204 -538h-90l259 640h70z" />
    <glyph glyph-name="uni024C" unicode="&#x24c;" horiz-adv-x="556" 
d="M430 0l-204 285h-58v-285h-82v285h-70v67h70v288h181q93 0 152 -50.5t59 -129.5q0 -71 -47 -115.5t-115 -56.5l214 -288h-100zM168 573v-221h98q61 3 93.5 30t32.5 78q0 54 -38 83.5t-111 29.5h-75z" />
    <glyph glyph-name="uni0250" unicode="&#x250;" 
d="M307 462q91 0 151 -64.5t60 -172t-60 -172.5t-151 -65q-104 0 -161 80l-11 -68h-64v450h64l11 -68q57 80 161 80zM290 55q66 0 106.5 48.5t40.5 121.5t-40.5 121.5t-106.5 48.5q-67 0 -109 -48.5t-42 -121.5t42 -121.5t109 -48.5z" />
    <glyph glyph-name="uni0251" unicode="&#x251;" horiz-adv-x="516" 
d="M381 450h64v-450h-64l-11 67q-51 -79 -144 -79q-82 0 -136 65t-54 172.5t54 172t136 64.5q93 0 144 -79zM241 55q61 0 98.5 48.5t37.5 121.5t-37.5 121.5t-98.5 48.5q-60 0 -96.5 -48.5t-36.5 -121.5t36.5 -121.5t96.5 -48.5z" />
    <glyph glyph-name="uni0252" unicode="&#x252;" horiz-adv-x="516" 
d="M290 462q82 0 136 -64.5t54 -172t-54 -172.5t-136 -65q-93 0 -144 79l-11 -67h-64v450h64l11 -67q51 79 144 79zM275 55q60 0 96 48.5t36 121.5t-36 121.5t-96 48.5q-61 0 -98.5 -48.5t-37.5 -121.5t37.5 -121.5t98.5 -48.5z" />
    <glyph glyph-name="uni0258" unicode="&#x258;" horiz-adv-x="514" 
d="M252 462q98 0 162 -68.5t64 -168.5q0 -101 -65 -169t-170 -68q-58 0 -105.5 20t-78.5 57l57 46q45 -56 127 -56q67 0 108 43.5t44 112.5h-359v29q0 96 60 159t156 63zM252 396q-58 0 -94.5 -34.5t-43.5 -95.5h277q-11 58 -48 94t-91 36z" />
    <glyph glyph-name="uni0259" unicode="&#x259;" horiz-adv-x="514" 
d="M243 462q105 0 170 -68t65 -169q0 -99 -64 -168t-162 -69q-96 0 -156 63t-60 160v29h359q-3 68 -44 111.5t-108 43.5q-82 0 -127 -56l-57 46q31 37 78.5 57t105.5 20zM252 54q54 0 91 36t48 94h-277q7 -61 43.5 -95.5t94.5 -34.5z" />
    <glyph glyph-name="uni0265" unicode="&#x265;" horiz-adv-x="525" 
d="M376 450h78v-680h-78v285q-51 -67 -140 -67q-32 0 -61 9.5t-54 30t-40 58t-15 88.5v276h78v-263q0 -59 27 -95t82 -36q51 0 87 40.5t36 129.5v224z" />
    <glyph glyph-name="uni0268" unicode="&#x268;" horiz-adv-x="218" 
d="M109 544q-23 0 -39 16t-16 39t16 39.5t39 16.5t39.5 -16.5t16.5 -39.5t-16.5 -39t-39.5 -16zM256 354v-54h-109v-300h-76v300h-109v54h109v97h76v-97h109z" />
    <glyph glyph-name="uni026F" unicode="&#x26f;" horiz-adv-x="782" 
d="M632 450h79v-450h-68l-9 57q-19 -33 -52 -51t-73 -18q-92 0 -134 75q-23 -37 -57.5 -56t-91.5 -19q-30 0 -57 10t-51 31.5t-38 62t-14 95.5v263h79v-259q0 -63 23 -99t72 -36q51 0 79.5 38.5t28.5 110.5v245h79v-259q0 -62 23.5 -98.5t72.5 -36.5q51 0 80 38t29 108v248z
" />
    <glyph glyph-name="uni0272" unicode="&#x272;" horiz-adv-x="524" 
d="M288 462q32 0 61 -9.5t54.5 -29.5t40 -58t14.5 -88v-277h-78v263q0 60 -27 95.5t-82 35.5q-47 0 -81.5 -34t-39.5 -109v-301q0 -71 -37.5 -105t-103.5 -22v64q35 -5 48.5 10.5t13.5 45.5v508h68l10 -55q50 66 139 66z" />
    <glyph glyph-name="uni0275" unicode="&#x275;" horiz-adv-x="546" 
d="M272.5 462q105.5 0 171.5 -68t66 -168.5t-66 -169t-171.5 -68.5t-171 68.5t-65.5 169t65.5 168.5t171 68zM273 394q-63 0 -105 -40t-50 -103h308q-8 64 -49 103.5t-104 39.5zM273 56q63 0 104 40t49 103h-308q8 -63 50 -103t105 -40z" />
    <glyph glyph-name="uni0279" unicode="&#x279;" horiz-adv-x="375" 
d="M225 450h79v-450h-68l-11 65q-20 -40 -47 -58.5t-67 -18.5q-11 0 -22 1.5t-18.5 3.5t-13.5 4t-8 3l-3 2l24 71q20 -9 44 -9q52 0 81.5 41.5t29.5 99.5v245z" />
    <glyph glyph-name="uni0289" unicode="&#x289;" horiz-adv-x="518" 
d="M374 450h78v-263q0 -55 -16.5 -95.5t-45.5 -62t-61 -31.5t-69.5 -10t-70 10t-61.5 31.5t-45.5 62t-16.5 95.5v263h79v-134h229v134zM259.5 56q54.5 0 84.5 35t30 96v76h-229v-76q0 -61 30 -96t84.5 -35z" />
    <glyph glyph-name="uni028C" unicode="&#x28c;" horiz-adv-x="454" 
d="M453 0h-85l-141 358l-141 -358h-85l193 450h66z" />
    <glyph glyph-name="uni028D" unicode="&#x28d;" horiz-adv-x="735" 
d="M714 0h-84l-121 347l-108 -347h-67l-108 347l-121 -347h-84l172 450h65l109 -358l109 358h66z" />
    <glyph glyph-name="uni028E" unicode="&#x28e;" horiz-adv-x="464" 
d="M458 1h-85l-141 347l-141 -347h-85l279 660h83l-97 -221z" />
    <glyph glyph-name="circumflex" unicode="&#x2c6;" horiz-adv-x="376" 
d="M224 634l108 -116h-53q-16 0 -25.5 4.5t-22.5 16.5l-43 43l-43 -43q-13 -12 -22.5 -16.5t-25.5 -4.5h-53l108 116h72z" />
    <glyph glyph-name="caron" unicode="&#x2c7;" horiz-adv-x="376" 
d="M279 636h53l-108 -116h-72l-108 116h53q16 0 25.5 -4.5t22.5 -16.5l43 -43l43 43q13 12 22.5 16.5t25.5 4.5z" />
    <glyph glyph-name="uni02C9" unicode="&#x2c9;" horiz-adv-x="324" 
d="M0 568v47h324v-47h-324z" />
    <glyph glyph-name="breve" unicode="&#x2d8;" horiz-adv-x="371" 
d="M185 512q-65 0 -102 32t-39 84h56q4 -27 25 -45t60 -18t60.5 18t24.5 45h57q-3 -52 -40 -84t-102 -32z" />
    <glyph glyph-name="dotaccent" unicode="&#x2d9;" horiz-adv-x="199" 
d="M99 537q-23 0 -39 16t-16 39t16 39t39 16t39.5 -16t16.5 -39t-16.5 -39t-39.5 -16z" />
    <glyph glyph-name="ring" unicode="&#x2da;" horiz-adv-x="305" 
d="M152 703q45 0 77 -31t32 -74.5t-32 -74.5t-77 -31t-76.5 31t-31.5 74.5t31.5 74.5t76.5 31zM152.5 545q23.5 0 39.5 15.5t16 37.5t-16 37t-39.5 15t-39.5 -15t-16 -37t16 -37.5t39.5 -15.5z" />
    <glyph glyph-name="ogonek" unicode="&#x2db;" horiz-adv-x="283" 
d="M217 -164q-36 -28 -86 -21t-67 45q-21 43 8.5 86.5t89.5 70.5l40 -17l-22 -13q-60 -33 -63 -76q-3 -33 29 -40q23 -5 56 9z" />
    <glyph glyph-name="tilde" unicode="&#x2dc;" horiz-adv-x="386" 
d="M250 562q-28 0 -58.5 21t-48.5 21q-30 0 -52 -37l-47 30q1 2 6 9.5l7 10.5t8 10t10 10.5t11 9t14 8t16 4.5t19 2q29 0 61.5 -21t50.5 -21q17 0 26.5 10t17.5 28l51 -27q-35 -68 -92 -68z" />
    <glyph glyph-name="hungarumlaut" unicode="&#x2dd;" horiz-adv-x="437" 
d="M175 568q-35 -37 -55 -47.5t-42 -10.5h-34l125 151l81 -14zM318 568q-35 -37 -55 -47.5t-42 -10.5h-34l125 151l81 -14z" />
    <glyph glyph-name="gravecomb" unicode="&#x300;" horiz-adv-x="0" 
d="M-216 568l-74 79l80 14l125 -151h-34q-22 0 -42 10.5t-55 47.5z" />
    <glyph glyph-name="acutecomb" unicode="&#x301;" horiz-adv-x="0" 
d="M-159 568q-35 -37 -55 -47.5t-42 -10.5h-34l124 151l81 -14z" />
    <glyph glyph-name="uni0302" unicode="&#x302;" horiz-adv-x="0" 
d="M-192 634l107 -116h-53q-16 0 -25.5 4.5t-21.5 16.5l-44 43l-43 -43q-13 -12 -22 -16.5t-26 -4.5h-53l108 116h73z" />
    <glyph glyph-name="tildecomb" unicode="&#x303;" horiz-adv-x="0" 
d="M-178 527q-28 0 -58.5 21t-48.5 21q-30 0 -52 -37l-47 31q1 1 6 8.5l7 10.5t8 10t10 10.5t11 9t14 8t16 4.5t19 2q29 0 61.5 -21t50.5 -21q17 0 26.5 10t17.5 28l51 -27q-35 -68 -92 -68z" />
    <glyph glyph-name="uni0304" unicode="&#x304;" horiz-adv-x="0" 
d="M-352 520v52h267v-52h-267z" />
    <glyph glyph-name="uni0306" unicode="&#x306;" horiz-adv-x="0" 
d="M-227 512q-65 0 -102 32t-39 84h56q4 -27 25 -45t60 -18t60 18t25 45h56q-2 -52 -39 -84t-102 -32z" />
    <glyph glyph-name="uni0307" unicode="&#x307;" horiz-adv-x="0" 
d="M-141 537q-23 0 -39.5 16t-16.5 39t16.5 39t39.5 16t39 -16t16 -39t-16 -39t-39 -16z" />
    <glyph glyph-name="uni0308" unicode="&#x308;" horiz-adv-x="0" 
d="M-311.5 623q20.5 0 35 -14.5t14.5 -35.5t-14.5 -35.5t-35 -14.5t-34.5 14.5t-14 35.5t14 35.5t34.5 14.5zM-134.5 623q20.5 0 35 -14.5t14.5 -35.5t-14.5 -35.5t-35 -14.5t-34.5 14.5t-14 35.5t14 35.5t34.5 14.5z" />
    <glyph glyph-name="uni030A" unicode="&#x30a;" horiz-adv-x="0" 
d="M-96 703q45 0 76.5 -31t31.5 -74.5t-31.5 -74.5t-76.5 -31t-77 31t-32 74.5t32 74.5t77 31zM-96 545q23 0 39 15.5t16 37.5t-16 37t-39 15t-39.5 -15t-16.5 -37t16.5 -37.5t39.5 -15.5z" />
    <glyph glyph-name="uni030B" unicode="&#x30b;" horiz-adv-x="0" 
d="M-289 568q-35 -37 -55 -47.5t-42 -10.5h-34l124 151l81 -14zM-146 568q-35 -37 -55 -47.5t-42 -10.5h-34l125 151l80 -14z" />
    <glyph glyph-name="uni030C" unicode="&#x30c;" horiz-adv-x="0" 
d="M-139 636h53l-107 -116h-73l-108 116h53q17 0 26 -4.5t22 -16.5l43 -43l44 43q12 12 21.5 16.5t25.5 4.5z" />
    <glyph glyph-name="uni0312" unicode="&#x312;" horiz-adv-x="0" 
d="M-98 672l13 -32q-63 -31 -64 -80q19 7 37 -4t18 -34q0 -20 -13 -33t-35 -13q-25 0 -40 20t-15 49q1 37 25 72.5t74 54.5z" />
    <glyph glyph-name="dotbelowcomb" unicode="&#x323;" horiz-adv-x="0" 
d="M-140 -173q-23 0 -39.5 16.5t-16.5 39.5t16.5 39t39.5 16t39 -16t16 -39t-16 -39.5t-39 -16.5z" />
    <glyph glyph-name="uni0326" unicode="&#x326;" horiz-adv-x="0" 
d="M-184 -257l-12 32q63 31 64 80q-19 -7 -37 4t-18 34q0 20 13 33t35 13q24 0 39 -20t15 -49q0 -37 -24 -72.5t-75 -54.5z" />
    <glyph glyph-name="uni0327" unicode="&#x327;" horiz-adv-x="0" 
d="M-154 -42v-1q30 -3 49 -21.5t19 -51.5q0 -34 -31 -57t-85 -23q-27 0 -50.5 5.5t-33.5 10.5l-10 6l21 43q25 -17 66 -18q30 -2 44 10t13 28q-1 24 -29.5 29t-53.5 -7l-26 23l63 88l38 -1v-14l-43 -58q2 2 5.5 3.5t16.5 4t27 1.5z" />
    <glyph glyph-name="uni0328" unicode="&#x328;" horiz-adv-x="0" 
d="M-86 -164q-36 -28 -86 -21t-67 45q-21 43 8.5 86.5t89.5 70.5l40 -17l-22 -13q-60 -33 -63 -76q-3 -33 29 -40q23 -5 56 9z" />
    <glyph glyph-name="uni0331" unicode="&#x331;" horiz-adv-x="0" 
d="M-352 -130v53h267v-53h-267z" />
    <glyph glyph-name="uni0335" unicode="&#x335;" horiz-adv-x="0" 
d="M-381 267v54h295v-54h-295z" />
    <glyph glyph-name="uni0336" unicode="&#x336;" horiz-adv-x="0" 
d="M-506 267v53h411v-53h-411z" />
    <glyph glyph-name="uni0337" unicode="&#x337;" horiz-adv-x="0" 
d="M-298 286l212 164v-70l-212 -164v70z" />
    <glyph glyph-name="uni0338" unicode="&#x338;" horiz-adv-x="0" 
d="M-16 667l40 -35l-598 -662l-39 35z" />
    <glyph glyph-name="uni0394" unicode="&#x394;" horiz-adv-x="589" 
d="M335 640l248 -584v-56h-577v56l247 584h82zM294 548l-197 -481h394z" />
    <glyph glyph-name="uni03A9" unicode="&#x3a9;" horiz-adv-x="798" 
d="M524 110v-42h175v-68h-250v149v10q83 8 132 65t49 134q0 96 -63.5 162.5t-167 66.5t-167 -66.5t-63.5 -162.5q0 -77 48.5 -134t131.5 -65v-10v-149h-249v68h175v42q-87 27 -138 98t-51 161q0 122 87.5 204t226 82t226 -82t87.5 -204q0 -90 -51.5 -161t-137.5 -98z" />
    <glyph glyph-name="uni03BC" unicode="&#x3bc;" horiz-adv-x="529" 
d="M380 450h78v-450h-68l-10 55q-50 -67 -129 -67q-53 0 -104 42l-8 -220h-68v640h79v-263q0 -59 27 -95t81 -36q47 0 81.5 34t40.5 109v251z" />
    <glyph glyph-name="pi" unicode="&#x3c0;" horiz-adv-x="637" 
d="M559 70l12 -66q-22 -12 -70 -12q-21 0 -39 5.5t-35 18t-27 37.5t-10 60v271h-172v-384h-79v384h-68v67h488v-67h-90l1 -269q0 -54 47 -54q13 0 23.5 2.5t14.5 4.5z" />
    <glyph glyph-name="uni1E04" unicode="&#x1e04;" horiz-adv-x="553" 
d="M327 356q82 -11 126 -56t44 -116q0 -85 -62.5 -134.5t-169.5 -49.5h-179v640h151q95 0 150 -40.5t55 -111.5q0 -106 -115 -132zM244 575h-76v-189h73q54 0 85 26.5t31 72.5q0 43 -29.5 66.5t-83.5 23.5zM261 65q70 0 110 33.5t40 91.5q0 57 -41 89.5t-112 32.5h-90v-247
h93zM270 -62q23 0 39.5 -16t16.5 -39t-16.5 -39.5t-39.5 -16.5t-39 16.5t-16 39.5t16 39t39 16z" />
    <glyph glyph-name="uni1E05" unicode="&#x1e05;" 
d="M307 462q91 0 151 -64.5t60 -172t-60 -172.5t-151 -65q-104 0 -161 80l-11 -68h-64v680h79v-293q56 75 157 75zM290 55q66 0 106.5 48.5t40.5 121.5t-40.5 121.5t-106.5 48.5q-67 0 -109 -48.5t-42 -121.5t42 -121.5t109 -48.5zM245 -62q23 0 39.5 -16t16.5 -39
t-16.5 -39.5t-39.5 -16.5t-39 16.5t-16 39.5t16 39t39 16z" />
    <glyph glyph-name="uni1E0C" unicode="&#x1e0c;" horiz-adv-x="661" 
d="M260 640q83 0 149.5 -25t109 -68.5t64.5 -101t22 -125t-22 -125t-64.5 -101.5t-109 -69t-149.5 -25h-174v640h174zM244 66q138 0 206.5 68t68.5 187q0 118 -68.5 185.5t-206.5 67.5h-76v-508h76zM296 -62q23 0 39.5 -16t16.5 -39t-16.5 -39.5t-39.5 -16.5t-39 16.5
t-16 39.5t16 39t39 16z" />
    <glyph glyph-name="uni1E0D" unicode="&#x1e0d;" 
d="M404 680h79v-680h-64l-11 68q-57 -80 -161 -80q-91 0 -151 65t-60 172.5t60 172t151 64.5q100 0 157 -75v293zM263 55q68 0 109.5 48.5t41.5 121.5t-41.5 121.5t-109.5 48.5q-66 0 -106 -48.5t-40 -121.5t40 -121.5t106 -48.5zM275 -62q23 0 39 -16t16 -39t-16 -39.5
t-39 -16.5t-39.5 16.5t-16.5 39.5t16.5 39t39.5 16z" />
    <glyph glyph-name="uni1E0E" unicode="&#x1e0e;" horiz-adv-x="661" 
d="M260 640q83 0 149.5 -25t109 -68.5t64.5 -101t22 -125t-22 -125t-64.5 -101.5t-109 -69t-149.5 -25h-174v640h174zM244 66q138 0 206.5 68t68.5 187q0 118 -68.5 185.5t-206.5 67.5h-76v-508h76zM163 -130v53h267v-53h-267z" />
    <glyph glyph-name="uni1E0F" unicode="&#x1e0f;" 
d="M404 680h79v-680h-64l-11 68q-57 -80 -161 -80q-91 0 -151 65t-60 172.5t60 172t151 64.5q100 0 157 -75v293zM263 55q68 0 109.5 48.5t41.5 121.5t-41.5 121.5t-109.5 48.5q-66 0 -106 -48.5t-40 -121.5t40 -121.5t106 -48.5zM141 -130v53h267v-53h-267z" />
    <glyph glyph-name="uni1E12" unicode="&#x1e12;" horiz-adv-x="661" 
d="M260 640q83 0 149.5 -25t109 -68.5t64.5 -101t22 -125t-22 -125t-64.5 -101.5t-109 -69t-149.5 -25h-174v640h174zM244 66q138 0 206.5 68t68.5 187q0 118 -68.5 185.5t-206.5 67.5h-76v-508h76zM260 -51h72l108 -117h-53q-16 0 -25.5 4.5t-21.5 17.5l-44 43l-43 -43
q-13 -13 -22.5 -17.5t-25.5 -4.5h-53z" />
    <glyph glyph-name="uni1E13" unicode="&#x1e13;" 
d="M404 680h79v-680h-64l-11 68q-57 -80 -161 -80q-91 0 -151 65t-60 172.5t60 172t151 64.5q100 0 157 -75v293zM263 55q68 0 109.5 48.5t41.5 121.5t-41.5 121.5t-109.5 48.5q-66 0 -106 -48.5t-40 -121.5t40 -121.5t106 -48.5zM238 -51h73l108 -117h-53q-17 0 -26.5 4.5
t-21.5 17.5l-43 43l-44 -43q-12 -13 -21.5 -17.5t-25.5 -4.5h-53z" />
    <glyph glyph-name="uni1E24" unicode="&#x1e24;" horiz-adv-x="656" 
d="M488 640h82v-640h-82v298h-320v-298h-82v640h82v-275h320v275zM328 -62q23 0 39 -16t16 -39t-16 -39.5t-39 -16.5t-39.5 16.5t-16.5 39.5t16.5 39t39.5 16z" />
    <glyph glyph-name="uni1E25" unicode="&#x1e25;" horiz-adv-x="525" 
d="M289 462q32 0 61 -9.5t54.5 -29.5t40 -58t14.5 -88v-277h-78v263q0 60 -27 95.5t-82 35.5q-51 0 -86.5 -40.5t-35.5 -129.5v-224h-79v680h79v-285q50 67 139 67zM261 -62q23 0 39 -16t16 -39t-16 -39.5t-39 -16.5t-39.5 16.5t-16.5 39.5t16.5 39t39.5 16z" />
    <glyph glyph-name="uni1E2E" unicode="&#x1e2e;" horiz-adv-x="253" 
d="M182 867q-35 -37 -55 -47.5t-42 -10.5h-34l125 151l81 -14zM37.5 792q20.5 0 35.5 -14.5t15 -35.5t-15 -35.5t-35.5 -14.5t-34.5 14.5t-14 35.5t14 35.5t34.5 14.5zM214.5 792q20.5 0 35 -14.5t14.5 -35.5t-14.5 -35.5t-35 -14.5t-34.5 14.5t-14 35.5t14 35.5t34.5 14.5z
M168 640v-640h-82v640h82z" />
    <glyph glyph-name="uni1E2F" unicode="&#x1e2f;" horiz-adv-x="218" 
d="M165 724q-35 -38 -55 -48.5t-42 -10.5h-35l125 152l81 -14zM20.5 642q20.5 0 35 -14.5t14.5 -34.5q0 -21 -14.5 -36t-35 -15t-35 15t-14.5 36q0 20 14.5 34.5t35 14.5zM197 642q20 0 35 -14.5t15 -34.5q0 -21 -15 -36t-35 -15t-34.5 15t-14.5 36q0 20 14.5 34.5
t34.5 14.5zM71 0v451h76v-451h-76z" />
    <glyph glyph-name="uni1E36" unicode="&#x1e36;" horiz-adv-x="446" 
d="M168 72h252v-72h-334v640h82v-568zM245 -62q23 0 39.5 -16t16.5 -39t-16.5 -39.5t-39.5 -16.5t-39.5 16.5t-16.5 39.5t16.5 39t39.5 16z" />
    <glyph glyph-name="uni1E37" unicode="&#x1e37;" horiz-adv-x="220" 
d="M71 0v680h79v-680h-79zM110 -173q-23 0 -39 16.5t-16 39.5t16 39t39 16t39.5 -16t16.5 -39t-16.5 -39.5t-39.5 -16.5z" />
    <glyph glyph-name="uni1E3C" unicode="&#x1e3c;" horiz-adv-x="446" 
d="M168 72h252v-72h-334v640h82v-568zM209 -51h72l108 -117h-53q-16 0 -25.5 4.5t-22.5 17.5l-43 43l-43 -43q-13 -13 -22.5 -17.5t-25.5 -4.5h-53z" />
    <glyph glyph-name="uni1E3D" unicode="&#x1e3d;" horiz-adv-x="220" 
d="M150 680v-680h-79v680h79zM146 -51l108 -117h-53q-16 0 -25.5 4.5t-21.5 17.5l-44 43l-43 -43q-13 -13 -22.5 -17.5t-25.5 -4.5h-53l108 117h72z" />
    <glyph glyph-name="uni1E3E" unicode="&#x1e3e;" horiz-adv-x="808" 
d="M459 748q-35 -37 -55 -47.5t-42 -10.5h-34l125 151l81 -14zM650 640h72v-640h-82v497l-236 -324l-236 324v-497h-82v640h72l246 -344z" />
    <glyph glyph-name="uni1E3F" unicode="&#x1e3f;" horiz-adv-x="782" 
d="M461 579q-35 -38 -55 -48.5t-42 -10.5h-35l125 152l81 -14zM556 462q30 0 57 -10t51 -31.5t38 -62t14 -94.5v-264h-79v260q0 62 -23 98t-72 36q-52 0 -80.5 -38.5t-28.5 -110.5v-245h-78v259q0 63 -23.5 99t-72.5 36q-51 0 -80 -38t-29 -107v-249h-79v450h68l9 -56
q19 33 52 50.5t73 17.5q92 0 134 -75q23 37 57.5 56t91.5 19z" />
    <glyph glyph-name="uni1E44" unicode="&#x1e44;" horiz-adv-x="691" 
d="M346 704q-23 0 -39.5 16t-16.5 39t16.5 39t39.5 16t39 -16t16 -39t-16 -39t-39 -16zM525 640h80v-640h-78l-361 506v-506h-80v640h78l361 -503v503z" />
    <glyph glyph-name="uni1E45" unicode="&#x1e45;" horiz-adv-x="524" 
d="M266 544q-23 0 -39.5 16t-16.5 39t16.5 39.5t39.5 16.5t39 -16.5t16 -39.5t-16 -39t-39 -16zM288 462q32 0 61 -9.5t54.5 -29.5t40 -58t14.5 -88v-277h-78v263q0 60 -27 95.5t-82 35.5q-47 0 -81.5 -34t-39.5 -109v-251h-79v451h68l10 -55q50 66 139 66z" />
    <glyph glyph-name="uni1E46" unicode="&#x1e46;" horiz-adv-x="691" 
d="M525 640h80v-640h-78l-361 506v-506h-80v640h78l361 -503v503zM346 -62q23 0 39 -16t16 -39t-16 -39.5t-39 -16.5t-39.5 16.5t-16.5 39.5t16.5 39t39.5 16z" />
    <glyph glyph-name="uni1E47" unicode="&#x1e47;" horiz-adv-x="524" 
d="M288 462q32 0 61 -9.5t54.5 -29.5t40 -58t14.5 -88v-277h-78v263q0 60 -27 95.5t-82 35.5q-47 0 -81.5 -34t-39.5 -109v-251h-79v451h68l10 -55q50 66 139 66zM266 -62q23 0 39 -16t16 -39t-16 -39.5t-39 -16.5t-39.5 16.5t-16.5 39.5t16.5 39t39.5 16z" />
    <glyph glyph-name="uni1E4A" unicode="&#x1e4a;" horiz-adv-x="691" 
d="M525 640h80v-640h-78l-361 506v-506h-80v640h78l361 -503v503zM309 -51h73l108 -117h-54q-16 0 -25.5 4.5t-21.5 17.5l-43 43l-44 -43q-12 -13 -21.5 -17.5t-25.5 -4.5h-54z" />
    <glyph glyph-name="uni1E4B" unicode="&#x1e4b;" horiz-adv-x="524" 
d="M288 462q32 0 61 -9.5t54.5 -29.5t40 -58t14.5 -88v-277h-78v263q0 60 -27 95.5t-82 35.5q-47 0 -81.5 -34t-39.5 -109v-251h-79v451h68l10 -55q50 66 139 66zM229 -51h73l108 -117h-54q-16 0 -25.5 4.5t-21.5 17.5l-43 43l-44 -43q-12 -13 -21.5 -17.5t-25.5 -4.5h-54z
" />
    <glyph glyph-name="uni1E4C" unicode="&#x1e4c;" horiz-adv-x="780" 
d="M344 814l98 123l79 -16l-85 -84q-22 -23 -50 -23h-42zM448 692q-28 0 -58.5 21t-48.5 21q-31 0 -52 -37l-47 31q0 1 5 8.5t7.5 10.5t8 10t9.5 10.5t11.5 9t14 8t16 4.5t18.5 2q29 0 61.5 -21t51.5 -21q16 0 25.5 10t18.5 28l51 -27q-36 -68 -92 -68zM390 -12
q-98 0 -175 44.5t-118 120.5t-41 169q0 142 93 237.5t241 95.5t241.5 -95.5t93.5 -237.5q0 -93 -41.5 -169t-118.5 -120.5t-175 -44.5zM390 62q111 0 180 75t69 185q0 109 -69 184t-180 75t-179.5 -75t-68.5 -184q0 -110 68.5 -185t179.5 -75z" />
    <glyph glyph-name="uni1E4D" unicode="&#x1e4d;" horiz-adv-x="546" 
d="M227 655l98 123l79 -16l-85 -85q-22 -22 -50 -22h-42zM331 532q-29 0 -59 21t-49 21q-30 0 -52 -37l-47 31q1 1 6 8.5l7 10.5t8 10t10 11t11 9t14 7.5t16 4.5t19 2q29 0 61.5 -21t50.5 -21q17 0 26.5 10t17.5 28l51 -26q-35 -69 -91 -69zM273 -12q-104 0 -170.5 68.5
t-66.5 168.5t66.5 168.5t170.5 68.5t170.5 -68.5t66.5 -168.5t-66.5 -168.5t-170.5 -68.5zM272.5 56q67.5 0 111 48.5t43.5 120.5t-43.5 120.5t-111 48.5t-110.5 -48.5t-43 -120.5t43 -120.5t110.5 -48.5z" />
    <glyph glyph-name="uni1E50" unicode="&#x1e50;" horiz-adv-x="780" 
d="M432 787h-42q-28 0 -50 22l-85 84l79 17zM263 690v53h268v-53h-268zM390 -12q-98 0 -175 44.5t-118 120.5t-41 169q0 142 93 237.5t241 95.5t241.5 -95.5t93.5 -237.5q0 -93 -41.5 -169t-118.5 -120.5t-175 -44.5zM390 62q111 0 180 75t69 185q0 109 -69 184t-180 75
t-179.5 -75t-68.5 -184q0 -110 68.5 -185t179.5 -75z" />
    <glyph glyph-name="uni1E51" unicode="&#x1e51;" horiz-adv-x="546" 
d="M315 627h-42q-28 0 -50 22l-85 85l79 16zM146 530v53h267v-53h-267zM273 -12q-104 0 -170.5 68.5t-66.5 168.5t66.5 168.5t170.5 68.5t170.5 -68.5t66.5 -168.5t-66.5 -168.5t-170.5 -68.5zM272.5 56q67.5 0 111 48.5t43.5 120.5t-43.5 120.5t-111 48.5t-110.5 -48.5
t-43 -120.5t43 -120.5t110.5 -48.5z" />
    <glyph glyph-name="uni1E52" unicode="&#x1e52;" horiz-adv-x="780" 
d="M344 787l98 123l79 -17l-85 -84q-22 -22 -50 -22h-42zM263 690v53h268v-53h-268zM390 -12q-98 0 -175 45t-118 120.5t-41 168.5q0 142 93 237.5t241 95.5t241.5 -95.5t93.5 -237.5q0 -93 -41.5 -168.5t-118.5 -120.5t-175 -45zM390 62q111 0 180 75t69 185q0 109 -69 184
t-180 75t-179.5 -75t-68.5 -184q0 -110 68.5 -185t179.5 -75z" />
    <glyph glyph-name="uni1E53" unicode="&#x1e53;" horiz-adv-x="546" 
d="M227 627l98 123l79 -16l-85 -85q-22 -22 -50 -22h-42zM146 530v53h267v-53h-267zM273 -12q-104 0 -170.5 68.5t-66.5 168.5t66.5 168.5t170.5 68.5t170.5 -68.5t66.5 -168.5t-66.5 -168.5t-170.5 -68.5zM272.5 56q67.5 0 111 48.5t43.5 120.5t-43.5 120.5t-111 48.5
t-110.5 -48.5t-43 -120.5t43 -120.5t110.5 -48.5z" />
    <glyph glyph-name="uni1E62" unicode="&#x1e62;" horiz-adv-x="525" 
d="M261 -12q-143 0 -225 99l64 57q33 -43 71 -63t88 -20q48 0 86 27.5t38 74.5q0 48 -32 76.5t-89 50.5q-29 12 -41.5 17t-37 17.5t-35.5 21t-27.5 24t-24 31.5t-13 38t-5.5 47q0 73 57.5 121t137.5 48q62 0 105.5 -20t79.5 -56l-58 -55q-33 30 -62.5 44t-66.5 14
q-47 0 -78 -27t-31 -68q0 -43 30.5 -70t106.5 -56q170 -65 170 -191q0 -48 -19 -84.5t-50 -57t-66 -30.5t-73 -10zM264 -173q-23 0 -39.5 16.5t-16.5 39.5t16.5 39t39.5 16t39 -16t16 -39t-16 -39.5t-39 -16.5z" />
    <glyph glyph-name="uni1E63" unicode="&#x1e63;" horiz-adv-x="416" 
d="M31 67l58 47q43 -58 116 -58q45 0 69 16.5t24 44.5q0 22 -18 37.5t-44.5 23t-58 18.5t-58 24t-44.5 40t-18 66q0 61 45 98.5t120 37.5q46 0 85 -16.5t63 -42.5l-49 -51q-42 43 -99 42q-41 0 -62.5 -17t-21.5 -46q0 -25 18 -42t45 -25t58.5 -19t58.5 -23t45 -38t18 -63
q0 -61 -47.5 -97t-126.5 -36q-59 0 -106 22t-70 57zM216 -173q-23 0 -39.5 16.5t-16.5 39.5t16.5 39t39.5 16t39 -16t16 -39t-16 -39.5t-39 -16.5z" />
    <glyph glyph-name="uni1E6C" unicode="&#x1e6c;" horiz-adv-x="472" 
d="M456 640v-72h-179v-568h-82v568h-179v72h440zM236 -62q23 0 39 -16t16 -39t-16 -39.5t-39 -16.5t-39.5 16.5t-16.5 39.5t16.5 39t39.5 16z" />
    <glyph glyph-name="uni1E6D" unicode="&#x1e6d;" horiz-adv-x="298" 
d="M177 450h97v-66h-97v-384h-78v384h-60v66h60v129h77zM138 -62q23 0 39.5 -16t16.5 -39t-16.5 -39.5t-39.5 -16.5t-39 16.5t-16 39.5t16 39t39 16z" />
    <glyph glyph-name="uni1E6E" unicode="&#x1e6e;" horiz-adv-x="472" 
d="M456 640v-72h-179v-568h-82v568h-179v72h440zM102 -130v53h268v-53h-268z" />
    <glyph glyph-name="uni1E6F" unicode="&#x1e6f;" horiz-adv-x="298" 
d="M177 450h97v-66h-97v-384h-78v384h-60v66h60v129h77zM44 -130v53h188v-53h-188z" />
    <glyph glyph-name="uni1E70" unicode="&#x1e70;" horiz-adv-x="472" 
d="M456 640v-72h-179v-568h-82v568h-179v72h440zM200 -51h72l108 -117h-53q-16 0 -25.5 4.5t-22.5 17.5l-43 43l-44 -43q-12 -13 -21.5 -17.5t-25.5 -4.5h-53z" />
    <glyph glyph-name="uni1E71" unicode="&#x1e71;" horiz-adv-x="298" 
d="M99 0v384h-60v66h60v129h77l1 -129h97v-66h-97v-384h-78zM174 -51l108 -117h-53q-16 0 -25.5 4.5t-22.5 17.5l-43 43l-43 -43q-13 -13 -22.5 -17.5t-25.5 -4.5h-53l108 117h72z" />
    <glyph glyph-name="Wgrave" unicode="&#x1e80;" horiz-adv-x="896" 
d="M508 690q-22 0 -42 10.5t-55 47.5l-74 79l81 14l124 -151h-34zM795 640h86l-211 -640h-66l-156 530l-155 -530h-66l-211 640h86l158 -522l153 522h70l153 -522z" />
    <glyph glyph-name="wgrave" unicode="&#x1e81;" horiz-adv-x="735" 
d="M427 530q-22 0 -42 10.5t-55 48.5l-74 79l81 14l125 -152h-35zM630 450h84l-172 -450h-66l-109 358l-108 -358h-66l-172 450h84l121 -347l108 347h67l108 -347z" />
    <glyph glyph-name="Wacute" unicode="&#x1e82;" horiz-adv-x="896" 
d="M504 748q-35 -37 -55 -47.5t-42 -10.5h-34l124 151l81 -14zM795 640h86l-211 -640h-66l-156 530l-155 -530h-66l-211 640h86l158 -522l153 522h70l153 -522z" />
    <glyph glyph-name="wacute" unicode="&#x1e83;" horiz-adv-x="735" 
d="M423 589q-35 -38 -55 -48.5t-42 -10.5h-34l125 152l80 -14zM630 450h84l-172 -450h-66l-109 358l-109 -358h-65l-172 450h84l121 -347l108 347h67l108 -347z" />
    <glyph glyph-name="Wdieresis" unicode="&#x1e84;" horiz-adv-x="896" 
d="M359.5 702q-20.5 0 -34.5 14.5t-14 36.5q0 20 14 34.5t34.5 14.5t35 -14.5t14.5 -34.5q0 -21 -14.5 -36t-35 -15zM536.5 702q-20.5 0 -35 14.5t-14.5 36.5q0 20 14.5 34.5t35 14.5t35 -14.5t14.5 -34.5q0 -21 -14.5 -36t-35 -15zM795 640h86l-211 -640h-66l-156 530
l-155 -530h-66l-211 640h86l158 -522l153 522h70l153 -522z" />
    <glyph glyph-name="wdieresis" unicode="&#x1e85;" horiz-adv-x="735" 
d="M278.5 542q-20.5 0 -34.5 15t-14 36q0 20 14 34.5t34.5 14.5t35 -14.5t14.5 -34.5q0 -21 -14.5 -36t-35 -15zM455.5 542q-20.5 0 -34.5 15t-14 36q0 20 14 34.5t34.5 14.5t35 -14.5t14.5 -34.5q0 -21 -14.5 -36t-35 -15zM630 450h84l-172 -450h-66l-109 358l-109 -358
h-65l-172 450h84l121 -347l108 347h67l108 -347z" />
    <glyph glyph-name="uni1E92" unicode="&#x1e92;" horiz-adv-x="569" 
d="M157 72h356v-72h-457v61l333 507h-315v72h419v-61zM278 -62q23 0 39 -16t16 -39t-16 -39.5t-39 -16.5t-39.5 16.5t-16.5 39.5t16.5 39t39.5 16z" />
    <glyph glyph-name="uni1E93" unicode="&#x1e93;" horiz-adv-x="468" 
d="M143 69h284v-69h-386v57l271 324h-256v69h353v-63zM234 -62q23 0 39.5 -16t16.5 -39t-16.5 -39.5t-39.5 -16.5t-39 16.5t-16 39.5t16 39t39 16z" />
    <glyph glyph-name="uni1E9E" unicode="&#x1e9e;" horiz-adv-x="614" 
d="M270 -4l-12 77q94 -10 153.5 20.5t59.5 99.5q0 43 -27 72t-65 41t-82 12h-39v57l152 194h-107q-65 0 -100 -45.5t-35 -118.5v-405h-82v405q0 64 18 111t50.5 73.5t71 38.5t84.5 12h199v-61l-155 -197q204 -31 204 -187q0 -74 -40.5 -123.5t-104.5 -67.5t-143 -8z" />
    <glyph glyph-name="uni1EA0" unicode="&#x1ea0;" horiz-adv-x="599" 
d="M594 0h-89l-70 185h-271l-70 -185h-88l253 640h82zM186 244h227l-113 300zM300 -62q23 0 39 -16t16 -39t-16 -39.5t-39 -16.5t-39.5 16.5t-16.5 39.5t16.5 39t39.5 16z" />
    <glyph glyph-name="uni1EA1" unicode="&#x1ea1;" 
d="M419 450h64v-450h-64l-11 68q-57 -80 -161 -80q-91 0 -151 65t-60 172.5t60 172t151 64.5q104 0 161 -80zM264 55q67 0 108.5 48.5t41.5 121.5t-41.5 121.5t-108.5 48.5t-107 -48.5t-40 -121.5t40 -121.5t107 -48.5zM278 -62q23 0 39.5 -16t16.5 -39t-16.5 -39.5
t-39.5 -16.5t-39 16.5t-16 39.5t16 39t39 16z" />
    <glyph glyph-name="uni1EA4" unicode="&#x1ea4;" horiz-adv-x="599" 
d="M497 772q-22 -23 -50 -23h-43l99 123l78 -16zM256 712q-12 -13 -21.5 -17.5t-25.5 -4.5h-53l107 117h73l108 -117h-53q-17 0 -26.5 4.5t-21.5 17.5l-43 43zM505 0l-70 185h-271l-70 -185h-88l253 640h82l253 -640h-89zM186 244h227l-113 300z" />
    <glyph glyph-name="uni1EA5" unicode="&#x1ea5;" 
d="M475 612q-22 -22 -50 -22h-42l98 123l79 -16zM235 552q-13 -12 -22.5 -16.5t-25.5 -4.5h-53l108 116h72l108 -116h-53q-16 0 -25.5 4.5t-21.5 16.5l-44 43zM408 382l11 68h64v-450h-64l-11 68q-57 -80 -161 -80q-91 0 -151 65t-60 172.5t60 172t151 64.5q104 0 161 -80z
M264 55q67 0 108.5 48.5t41.5 121.5t-41.5 121.5t-108.5 48.5t-107 -48.5t-40 -121.5t40 -121.5t107 -48.5z" />
    <glyph glyph-name="uni1EA6" unicode="&#x1ea6;" horiz-adv-x="599" 
d="M146 749q-28 0 -50 23l-85 84l79 16l98 -123h-42zM209 690h-53l107 117h73l108 -117h-53q-17 0 -26.5 4.5t-21.5 17.5l-43 43l-44 -43q-12 -13 -21.5 -17.5t-25.5 -4.5zM505 0l-70 185h-271l-70 -185h-88l253 640h82l253 -640h-89zM186 244h227l-113 300z" />
    <glyph glyph-name="uni1EA7" unicode="&#x1ea7;" 
d="M124 590q-28 0 -50 22l-84 85l78 16l99 -123h-43zM187 531h-53l108 116h72l108 -116h-53q-16 0 -25.5 4.5t-21.5 16.5l-44 43l-43 -43q-13 -12 -22.5 -16.5t-25.5 -4.5zM419 450h64v-450h-64l-11 68q-57 -80 -161 -80q-91 0 -151 65t-60 172.5t60 172t151 64.5
q104 0 161 -80zM263 55q68 0 109.5 48.5t41.5 121.5t-41.5 121.5t-109.5 48.5q-66 0 -106 -48.5t-40 -121.5t40 -121.5t106 -48.5z" />
    <glyph glyph-name="uni1EAA" unicode="&#x1eaa;" horiz-adv-x="599" 
d="M251 877q-31 0 -52 -37l-47 31q0 1 5 8.5t7.5 10.5t8 10t9.5 10.5t11.5 9t14 8t16 4.5t18.5 2q29 0 61.5 -21t51.5 -21q16 0 25.5 10t18.5 28l51 -27q-36 -68 -92 -68q-28 0 -58.5 21t-48.5 21zM263 807h73l108 -117h-54q-16 0 -25.5 4.5t-21.5 17.5l-43 43l-44 -43
q-12 -13 -21.5 -17.5t-25.5 -4.5h-53zM505 0l-70 185h-271l-70 -185h-88l253 640h82l253 -640h-89zM186 244h227l-113 300z" />
    <glyph glyph-name="uni1EAB" unicode="&#x1eab;" 
d="M229 717q-30 0 -52 -37l-47 31q1 1 6 8.5l7 10.5t8 10t10 11t11 9t14 7.5t16 4.5t19 2q29 0 61.5 -21t50.5 -21q17 0 26.5 10t17.5 28l51 -26q-35 -69 -92 -69q-28 0 -58 21t-49 21zM242 647h72l108 -116h-53q-16 0 -25.5 4.5t-21.5 16.5l-44 43l-43 -43
q-13 -12 -22.5 -16.5t-25.5 -4.5h-53zM419 450h64v-450h-64l-11 68q-57 -80 -161 -80q-91 0 -151 65t-60 172.5t60 172t151 64.5q104 0 161 -80zM264 55q67 0 108.5 48.5t41.5 121.5t-41.5 121.5t-108.5 48.5t-107 -48.5t-40 -121.5t40 -121.5t107 -48.5z" />
    <glyph glyph-name="uni1EAC" unicode="&#x1eac;" horiz-adv-x="599" 
d="M256 712q-12 -13 -21.5 -17.5t-25.5 -4.5h-53l107 117h73l108 -117h-53q-17 0 -26.5 4.5t-21.5 17.5l-43 43zM594 0h-89l-70 185h-271l-70 -185h-88l253 640h82zM186 244h227l-113 300zM300 -62q23 0 39 -16t16 -39t-16 -39.5t-39 -16.5t-39.5 16.5t-16.5 39.5t16.5 39
t39.5 16z" />
    <glyph glyph-name="uni1EAD" unicode="&#x1ead;" 
d="M235 552q-13 -12 -22.5 -16.5t-25.5 -4.5h-53l108 116h72l108 -116h-53q-16 0 -25.5 4.5t-21.5 16.5l-44 43zM419 450h64v-450h-64l-11 68q-57 -80 -161 -80q-91 0 -151 65t-60 172.5t60 172t151 64.5q104 0 161 -80zM264 55q67 0 108.5 48.5t41.5 121.5t-41.5 121.5
t-108.5 48.5t-107 -48.5t-40 -121.5t40 -121.5t107 -48.5zM278 -62q23 0 39.5 -16t16.5 -39t-16.5 -39.5t-39.5 -16.5t-39 16.5t-16 39.5t16 39t39 16z" />
    <glyph glyph-name="uni1EAE" unicode="&#x1eae;" horiz-adv-x="599" 
d="M346 824q-22 -22 -50 -22h-43l99 123l78 -16zM299.5 690q-64.5 0 -101.5 32t-40 84h57q3 -26 24.5 -44.5t60.5 -18.5t60 18.5t25 44.5h56q-2 -52 -39.5 -84t-102 -32zM505 0l-70 185h-271l-70 -185h-88l253 640h82l253 -640h-89zM186 244h227l-113 300z" />
    <glyph glyph-name="uni1EAF" unicode="&#x1eaf;" 
d="M324 664q-22 -22 -50 -22h-42l98 123l79 -16zM278 530q-65 0 -102 32t-39 84h56q4 -26 25 -44.5t60 -18.5t60.5 18.5t24.5 44.5h56q-2 -52 -39 -84t-102 -32zM419 450h64v-450h-64l-11 68q-57 -80 -161 -80q-91 0 -151 65t-60 172.5t60 172t151 64.5q104 0 161 -80z
M264 55q67 0 108.5 48.5t41.5 121.5t-41.5 121.5t-108.5 48.5t-107 -48.5t-40 -121.5t40 -121.5t107 -48.5z" />
    <glyph glyph-name="uni1EB0" unicode="&#x1eb0;" horiz-adv-x="599" 
d="M299 802q-27 0 -50 22l-84 85l79 16l98 -123h-43zM299.5 690q-64.5 0 -102 32t-39.5 84h57q3 -26 24.5 -44.5t60.5 -18.5t60 18.5t24 44.5h57q-2 -52 -39.5 -84t-102 -32zM505 0l-70 185h-271l-70 -185h-88l253 640h82l253 -640h-89zM186 244h227l-113 300z" />
    <glyph glyph-name="uni1EB1" unicode="&#x1eb1;" 
d="M278 642q-28 0 -50 22l-84 85l78 16l98 -123h-42zM278 530q-65 0 -102 32t-39 84h56q4 -26 25 -44.5t60 -18.5t60.5 18.5t24.5 44.5h56q-2 -52 -39 -84t-102 -32zM419 450h64v-450h-64l-11 68q-57 -80 -161 -80q-91 0 -151 65t-60 172.5t60 172t151 64.5q104 0 161 -80z
M264 55q67 0 108.5 48.5t41.5 121.5t-41.5 121.5t-108.5 48.5q-66 0 -106.5 -48.5t-40.5 -121.5t40.5 -121.5t106.5 -48.5z" />
    <glyph glyph-name="uni1EB4" unicode="&#x1eb4;" horiz-adv-x="599" 
d="M251 885q-31 0 -52 -37l-47 30q0 1 5 8.5t7.5 10.5t8 10.5t9.5 11t11.5 8.5t14 8t16 5t18.5 2q29 0 61.5 -21t51.5 -21q16 0 25.5 9.5t18.5 28.5l51 -27q-36 -68 -92 -68q-28 0 -58.5 21t-48.5 21zM300 743q39 0 60 18.5t24 44.5h57q-2 -52 -39.5 -84t-102 -32t-102 32
t-39.5 84h57q3 -26 24.5 -44.5t60.5 -18.5zM505 0l-70 185h-271l-70 -185h-88l253 640h82l253 -640h-89zM186 244h227l-113 300z" />
    <glyph glyph-name="uni1EB5" unicode="&#x1eb5;" 
d="M229 725q-30 0 -52 -37l-47 31q1 1 6 8.5l7 10.5t8 10t10 10.5t11 9t14 8t16 4.5t19 2q29 0 61.5 -21t50.5 -21q17 0 26.5 10t17.5 28l51 -27q-35 -68 -92 -68q-28 0 -58 21t-49 21zM278 583q39 0 60.5 18.5t24.5 45.5h56q-2 -53 -39 -85t-102 -32t-102 32t-39 85h56
q4 -27 25 -45.5t60 -18.5zM419 450h64v-450h-64l-11 68q-57 -80 -161 -80q-91 0 -151 65t-60 172.5t60 172t151 64.5q104 0 161 -80zM264 55q67 0 108.5 48.5t41.5 121.5t-41.5 121.5t-108.5 48.5t-107 -48.5t-40 -121.5t40 -121.5t107 -48.5z" />
    <glyph glyph-name="uni1EB6" unicode="&#x1eb6;" horiz-adv-x="599" 
d="M299.5 690q-64.5 0 -101.5 32t-40 84h57q3 -26 24.5 -44.5t60.5 -18.5t60 18.5t24 44.5h57q-2 -52 -39.5 -84t-102 -32zM594 0h-89l-70 185h-271l-70 -185h-88l253 640h82zM186 244h227l-113 300zM300 -62q23 0 39 -16t16 -39t-16 -39.5t-39 -16.5t-39.5 16.5t-16.5 39.5
t16.5 39t39.5 16z" />
    <glyph glyph-name="uni1EB7" unicode="&#x1eb7;" 
d="M278 530q-65 0 -102 32t-39 84h56q4 -26 25 -44.5t60 -18.5t60.5 18.5t24.5 44.5h56q-2 -52 -39 -84t-102 -32zM419 450h64v-450h-64l-11 68q-57 -80 -161 -80q-91 0 -151 65t-60 172.5t60 172t151 64.5q104 0 161 -80zM264 55q67 0 108.5 48.5t41.5 121.5t-41.5 121.5
t-108.5 48.5t-107 -48.5t-40 -121.5t40 -121.5t107 -48.5zM278 -62q23 0 39.5 -16t16.5 -39t-16.5 -39.5t-39.5 -16.5t-39 16.5t-16 39.5t16 39t39 16z" />
    <glyph glyph-name="uni1EB8" unicode="&#x1eb8;" horiz-adv-x="515" 
d="M459 569h-291v-215h241v-68h-241v-215h291v-71h-373v640h373v-71zM270 -62q23 0 39 -16t16 -39t-16 -39.5t-39 -16.5t-39.5 16.5t-16.5 39.5t16.5 39t39.5 16z" />
    <glyph glyph-name="uni1EB9" unicode="&#x1eb9;" horiz-adv-x="514" 
d="M478 240v-29h-359q3 -69 44 -112.5t108 -43.5q82 0 127 56l56 -46q-30 -37 -77.5 -57t-105.5 -20q-105 0 -170 68t-65 169q0 100 64 168.5t162 68.5q96 0 156 -63t60 -159zM262 396q-54 0 -91.5 -36t-47.5 -94h277q-7 61 -43.5 95.5t-94.5 34.5zM262 -62q23 0 39 -16
t16 -39t-16 -39.5t-39 -16.5t-39.5 16.5t-16.5 39.5t16.5 39t39.5 16z" />
    <glyph glyph-name="uni1EBC" unicode="&#x1ebc;" horiz-adv-x="515" 
d="M220 734q-30 0 -52 -37l-47 31q1 1 6 8.5l7 10.5t8 10t10 10.5t11 9t14 8t16 4.5t19 2q29 0 61.5 -21t50.5 -21q17 0 26.5 10t17.5 28l51 -27q-35 -68 -92 -68q-28 0 -58 21t-49 21zM459 568l-291 1v-215h241v-68h-241v-215h291v-71h-373v640h373v-72z" />
    <glyph glyph-name="uni1EBD" unicode="&#x1ebd;" horiz-adv-x="514" 
d="M212 574q-30 0 -51 -37l-48 31q1 1 6 8.5l7 10.5t8 10t10 11t11.5 9t14 7.5t15.5 4.5t19 2q29 0 61.5 -21t51.5 -21q16 0 25.5 10t17.5 28l52 -26q-36 -69 -92 -69q-29 0 -59 21t-49 21zM478 240v-29h-359q3 -69 44 -112.5t108 -43.5q82 0 127 56l56 -46
q-30 -37 -77.5 -57t-105.5 -20q-105 0 -170 68t-65 169q0 100 64 168.5t162 68.5q96 0 156 -63t60 -159zM262 396q-54 0 -91.5 -36t-47.5 -94h277q-7 61 -43.5 95.5t-94.5 34.5z" />
    <glyph glyph-name="uni1EBE" unicode="&#x1ebe;" horiz-adv-x="515" 
d="M480 874l78 -16l-84 -84q-22 -23 -50 -23h-43zM239 709q-12 -13 -21.5 -17.5t-25.5 -4.5h-53l107 117h73l108 -117h-54q-16 0 -25.5 4.5t-21.5 17.5l-43 43zM459 640v-72h-291v-214h241v-68h-241v-215h291v-71h-373v640h373z" />
    <glyph glyph-name="uni1EBF" unicode="&#x1ebf;" horiz-adv-x="514" 
d="M459 612q-22 -22 -50 -22h-42l98 123l79 -16zM219 552q-13 -12 -22.5 -16.5t-25.5 -4.5h-53l108 116h72l108 -116h-53q-16 0 -25.5 4.5t-22.5 16.5l-43 43zM262 462q96 0 156 -63t60 -159v-29h-359q3 -69 44 -112.5t108 -43.5q82 0 127 56l56 -46q-30 -37 -77.5 -57
t-105.5 -20q-105 0 -170 68t-65 169q0 100 64 168.5t162 68.5zM262 396q-54 0 -91.5 -36t-47.5 -94h277q-7 61 -43.5 95.5t-94.5 34.5z" />
    <glyph glyph-name="uni1EC0" unicode="&#x1ec0;" horiz-adv-x="515" 
d="M154 751h-42q-28 0 -50 23l-85 84l79 16zM192 687h-53l107 117h73l108 -117h-54q-16 0 -25.5 4.5t-21.5 17.5l-43 43l-44 -43q-12 -13 -21.5 -17.5t-25.5 -4.5zM459 568l-291 1v-215h241v-68h-241v-215h291v-71h-373v640h373v-72z" />
    <glyph glyph-name="uni1EC1" unicode="&#x1ec1;" horiz-adv-x="514" 
d="M108 590q-28 0 -50 22l-85 85l79 16l98 -123h-42zM171 531h-53l108 116h72l108 -116h-53q-16 0 -25.5 4.5t-22.5 16.5l-43 43l-43 -43q-13 -12 -22.5 -16.5t-25.5 -4.5zM478 240v-29h-359q3 -69 44 -112.5t108 -43.5q82 0 127 56l56 -46q-30 -37 -77.5 -57t-105.5 -20
q-105 0 -170 68t-65 169q0 100 64 168.5t162 68.5q96 0 156 -63t60 -159zM262 396q-54 0 -91.5 -36t-48.5 -94h278q-7 61 -43.5 95.5t-94.5 34.5z" />
    <glyph glyph-name="uni1EC4" unicode="&#x1ec4;" horiz-adv-x="515" 
d="M234 874q-31 0 -52 -37l-47 31q0 1 5 8.5t7.5 10.5t8 10t9.5 10.5t11.5 9t14 8t16 4.5t18.5 2q29 0 61.5 -21t51.5 -21q16 0 25.5 10t18.5 28l51 -27q-36 -68 -92 -68q-28 0 -58.5 21t-48.5 21zM246 804h73l108 -117h-54q-16 0 -25.5 4.5t-21.5 17.5l-43 43l-44 -43
q-12 -13 -21.5 -17.5t-25.5 -4.5h-53zM459 568h-291v-214h241v-68h-241v-215h291v-71h-373v640h373v-72z" />
    <glyph glyph-name="uni1EC5" unicode="&#x1ec5;" horiz-adv-x="514" 
d="M213 717q-31 0 -52 -37l-47 31q1 1 6 8.5l7 10.5t7.5 10t10 11t11.5 9t14 7.5t16 4.5t19 2q29 0 61.5 -21t50.5 -21q16 0 26 10t18 28l51 -26q-35 -69 -92 -69q-28 0 -58.5 21t-48.5 21zM226 647h72l108 -116h-53q-16 0 -25.5 4.5t-22.5 16.5l-43 43l-43 -43
q-13 -12 -22.5 -16.5t-25.5 -4.5h-53zM478 240v-29h-359q3 -69 44 -112.5t108 -43.5q82 0 127 56l56 -46q-30 -37 -77.5 -57t-105.5 -20q-105 0 -170 68t-65 169q0 100 64 168.5t162 68.5q96 0 156 -63t60 -159zM262 396q-54 0 -91.5 -36t-47.5 -94h277q-7 61 -43.5 95.5
t-94.5 34.5z" />
    <glyph glyph-name="uni1EC6" unicode="&#x1ec6;" horiz-adv-x="515" 
d="M226 712q-12 -13 -21.5 -17.5t-25.5 -4.5h-53l107 117h73l108 -117h-53q-17 0 -26.5 4.5t-21.5 17.5l-43 43zM459 568l-291 1v-215h241v-68h-241v-215h291v-71h-373v640h373v-72zM270 -62q23 0 39 -16t16 -39t-16 -39.5t-39 -16.5t-39.5 16.5t-16.5 39.5t16.5 39t39.5 16
z" />
    <glyph glyph-name="uni1EC7" unicode="&#x1ec7;" horiz-adv-x="514" 
d="M219 552q-13 -12 -22.5 -16.5t-25.5 -4.5h-53l108 116h72l108 -116h-53q-16 0 -25.5 4.5t-22.5 16.5l-43 43zM478 240v-29h-359q3 -69 44 -112.5t108 -43.5q82 0 127 56l56 -46q-30 -37 -77.5 -57t-105.5 -20q-105 0 -170 68t-65 169q0 100 64 168.5t162 68.5
q96 0 156 -63t60 -159zM262 396q-54 0 -91.5 -36t-47.5 -94h277q-7 61 -43.5 95.5t-94.5 34.5zM262 -62q23 0 39 -16t16 -39t-16 -39.5t-39 -16.5t-39.5 16.5t-16.5 39.5t16.5 39t39.5 16z" />
    <glyph glyph-name="uni1ECA" unicode="&#x1eca;" horiz-adv-x="253" 
d="M168 640v-640h-82v640h82zM127 -173q-23 0 -39 16.5t-16 39.5t16 39t39 16t39.5 -16t16.5 -39t-16.5 -39.5t-39.5 -16.5z" />
    <glyph glyph-name="uni1ECB" unicode="&#x1ecb;" horiz-adv-x="218" 
d="M109 546q-23 0 -39.5 16.5t-16.5 39.5t16.5 39t39.5 16t39.5 -16t16.5 -39t-16.5 -39.5t-39.5 -16.5zM71 0v451h76v-451h-76zM106 -173q-23 0 -39.5 16.5t-16.5 39.5t16.5 39t39.5 16t39 -16t16 -39t-16 -39.5t-39 -16.5z" />
    <glyph glyph-name="uni1ECC" unicode="&#x1ecc;" horiz-adv-x="780" 
d="M390 -12q-98 0 -175 45t-118 120.5t-41 168.5q0 142 93 237.5t241 95.5t241.5 -95.5t93.5 -237.5q0 -93 -41.5 -168.5t-118.5 -120.5t-175 -45zM390 62q111 0 180 75t69 185q0 109 -69 184t-180 75t-179.5 -75t-68.5 -184q0 -110 68.5 -185t179.5 -75zM390 -173
q-23 0 -39 16.5t-16 39.5t16 39t39 16t39.5 -16t16.5 -39t-16.5 -39.5t-39.5 -16.5z" />
    <glyph glyph-name="uni1ECD" unicode="&#x1ecd;" horiz-adv-x="546" 
d="M273 -12q-104 0 -170.5 68.5t-66.5 168.5t66.5 168.5t170.5 68.5t170.5 -68.5t66.5 -168.5t-66.5 -168.5t-170.5 -68.5zM272.5 56q67.5 0 111 48.5t43.5 120.5t-43.5 120.5t-111 48.5t-110.5 -48.5t-43 -120.5t43 -120.5t110.5 -48.5zM273 -173q-23 0 -39.5 16.5
t-16.5 39.5t16.5 39t39.5 16t39 -16t16 -39t-16 -39.5t-39 -16.5z" />
    <glyph glyph-name="uni1ED0" unicode="&#x1ed0;" horiz-adv-x="780" 
d="M587 772q-22 -23 -50 -23h-42l98 123l79 -16zM347 712q-13 -13 -22.5 -17.5t-25.5 -4.5h-53l108 117h72l108 -117h-53q-16 0 -25.5 4.5t-21.5 17.5l-44 43zM390 655q148 0 241.5 -95.5t93.5 -237.5q0 -93 -41.5 -168.5t-118.5 -120.5t-175 -45t-175 45t-118 120.5
t-41 168.5q0 142 93 237.5t241 95.5zM390 62q111 0 180 75t69 185q0 109 -69 184t-180 75t-179.5 -75t-68.5 -184q0 -110 68.5 -185t179.5 -75z" />
    <glyph glyph-name="uni1ED1" unicode="&#x1ed1;" horiz-adv-x="546" 
d="M470 612q-22 -22 -50 -22h-42l98 123l78 -16zM229 552q-12 -12 -21.5 -16.5t-25.5 -4.5h-53l108 116h72l108 -116h-53q-16 0 -25.5 4.5t-22.5 16.5l-43 43zM273 462q104 0 170.5 -68.5t66.5 -168.5t-66.5 -168.5t-170.5 -68.5t-170.5 68.5t-66.5 168.5t66.5 168.5
t170.5 68.5zM272.5 56q67.5 0 111 48.5t43.5 120.5t-43.5 120.5t-111 48.5t-110.5 -48.5t-43 -120.5t43 -120.5t110.5 -48.5z" />
    <glyph glyph-name="uni1ED2" unicode="&#x1ed2;" horiz-adv-x="780" 
d="M236 749q-28 0 -50 23l-84 84l78 16l99 -123h-43zM299 690h-53l108 117h72l108 -117h-53q-16 0 -25.5 4.5t-21.5 17.5l-44 43l-43 -43q-13 -13 -22.5 -17.5t-25.5 -4.5zM390 655q148 0 241.5 -95.5t93.5 -238.5q0 -92 -41.5 -168t-118.5 -120.5t-175 -44.5t-175 44.5
t-118 120.5t-41 168q0 143 93 238.5t241 95.5zM390 62q111 0 180 75t69 184q0 110 -69 185t-180 75t-179.5 -75t-68.5 -185q0 -109 68.5 -184t179.5 -75z" />
    <glyph glyph-name="uni1ED3" unicode="&#x1ed3;" horiz-adv-x="546" 
d="M119 590q-28 0 -50 22l-85 85l79 16l98 -123h-42zM182 531h-53l108 116h72l108 -116h-53q-16 0 -25.5 4.5t-22.5 16.5l-43 43l-44 -43q-12 -12 -21.5 -16.5t-25.5 -4.5zM273 462q104 0 170.5 -68.5t66.5 -168.5t-66.5 -168.5t-170.5 -68.5t-170.5 68.5t-66.5 168.5
t66.5 168.5t170.5 68.5zM272.5 56q67.5 0 111 48.5t43.5 120.5t-43.5 120.5t-111 48.5t-110.5 -48.5t-43 -120.5t43 -120.5t110.5 -48.5z" />
    <glyph glyph-name="uni1ED6" unicode="&#x1ed6;" horiz-adv-x="780" 
d="M341 877q-30 0 -52 -37l-47 31q1 1 6 8.5l7 10.5t8 10t10 10.5t11 9t14 8t16 4.5t19 2q29 0 61.5 -21t50.5 -21q17 0 26.5 10t17.5 28l51 -27q-35 -68 -92 -68q-28 0 -58.5 21t-48.5 21zM354 807h72l108 -117h-53q-16 0 -25.5 4.5t-21.5 17.5l-44 43l-43 -43
q-13 -13 -22.5 -17.5t-25.5 -4.5h-53zM390 655q148 0 241.5 -95.5t93.5 -238.5q0 -92 -41.5 -168t-118.5 -120.5t-175 -44.5t-175 44.5t-118 120.5t-41 168q0 143 93 238.5t241 95.5zM390 62q111 0 180 75t69 184q0 110 -69 185t-180 75t-179.5 -75t-68.5 -185
q0 -109 68.5 -184t179.5 -75z" />
    <glyph glyph-name="uni1ED7" unicode="&#x1ed7;" horiz-adv-x="546" 
d="M224 717q-31 0 -52 -37l-47 31q1 1 5.5 8.5t7 10.5t8 10t10 11t11.5 9t14 7.5t16 4.5t19 2q29 0 61 -21t51 -21q16 0 26 10t18 28l51 -26q-35 -69 -92 -69q-28 0 -58.5 21t-48.5 21zM237 647h72l108 -116h-53q-16 0 -25.5 4.5t-22.5 16.5l-43 43l-44 -43
q-12 -12 -21.5 -16.5t-25.5 -4.5h-53zM273 462q104 0 170.5 -68.5t66.5 -168.5t-66.5 -168.5t-170.5 -68.5t-170.5 68.5t-66.5 168.5t66.5 168.5t170.5 68.5zM273 56q67 0 110.5 48.5t43.5 120.5t-43.5 120.5t-110.5 48.5t-110.5 -48.5t-43.5 -120.5t43.5 -120.5
t110.5 -48.5z" />
    <glyph glyph-name="uni1ED8" unicode="&#x1ed8;" horiz-adv-x="780" 
d="M347 712q-13 -13 -22.5 -17.5t-25.5 -4.5h-53l108 117h72l108 -117h-53q-16 0 -25.5 4.5t-21.5 17.5l-44 43zM390 655q148 0 241.5 -95.5t93.5 -237.5q0 -93 -41.5 -168.5t-118.5 -120.5t-175 -45t-175 45t-118 120.5t-41 168.5q0 142 93 237.5t241 95.5zM390 62
q111 0 180 75t69 185q0 109 -69 184t-180 75t-179.5 -75t-68.5 -184q0 -110 68.5 -185t179.5 -75zM390 -62q23 0 39.5 -16t16.5 -39t-16.5 -39.5t-39.5 -16.5t-39 16.5t-16 39.5t16 39t39 16z" />
    <glyph glyph-name="uni1ED9" unicode="&#x1ed9;" horiz-adv-x="546" 
d="M229 552q-12 -12 -21.5 -16.5t-25.5 -4.5h-53l108 116h72l108 -116h-53q-16 0 -25.5 4.5t-22.5 16.5l-43 43zM273 462q104 0 170.5 -68.5t66.5 -168.5t-66.5 -168.5t-170.5 -68.5t-170.5 68.5t-66.5 168.5t66.5 168.5t170.5 68.5zM272.5 56q67.5 0 111 48.5t43.5 120.5
t-43.5 120.5t-111 48.5t-110.5 -48.5t-43 -120.5t43 -120.5t110.5 -48.5zM273 -62q23 0 39 -16t16 -39t-16 -39.5t-39 -16.5t-39.5 16.5t-16.5 39.5t16.5 39t39.5 16z" />
    <glyph glyph-name="uni1EE4" unicode="&#x1ee4;" horiz-adv-x="635" 
d="M317.5 -12q-109.5 0 -173 63t-63.5 196v393h82v-383q0 -102 41.5 -148.5t113 -46.5t113 46.5t41.5 148.5v383h82v-393q0 -133 -63.5 -196t-173 -63zM318 -173q-23 0 -39.5 16.5t-16.5 39.5t16.5 39t39.5 16t39 -16t16 -39t-16 -39.5t-39 -16.5z" />
    <glyph glyph-name="uni1EE5" unicode="&#x1ee5;" horiz-adv-x="518" 
d="M259.5 -12q-37.5 0 -70 10t-61.5 31.5t-45.5 62t-16.5 95.5v263h79v-263q0 -61 30 -96t84.5 -35t84.5 35t30 96v263h78v-263q0 -55 -16.5 -95.5t-45.5 -62t-61 -31.5t-69.5 -10zM259 -173q-23 0 -39 16.5t-16 39.5t16 39t39 16t39.5 -16t16.5 -39t-16.5 -39.5
t-39.5 -16.5z" />
    <glyph glyph-name="Ygrave" unicode="&#x1ef2;" horiz-adv-x="526" 
d="M323 690q-22 0 -42 10.5t-55 47.5l-75 79l81 14l125 -151h-34zM530 640l-226 -340v-300h-82v300l-226 340h96l171 -262l171 262h96z" />
    <glyph glyph-name="ygrave" unicode="&#x1ef3;" horiz-adv-x="454" 
d="M287 530q-22 0 -42 10.5t-55 48.5l-75 79l81 14l125 -152h-34zM368 450h85l-279 -660h-83l97 220l-187 440h85l141 -347z" />
    <glyph glyph-name="uni1EF4" unicode="&#x1ef4;" horiz-adv-x="526" 
d="M222 0v300l-226 340h96l171 -262l171 262h96l-226 -340v-300h-82zM263 -62q23 0 39.5 -16t16.5 -39t-16.5 -39.5t-39.5 -16.5t-39.5 16.5t-16.5 39.5t16.5 39t39.5 16z" />
    <glyph glyph-name="uni1EF5" unicode="&#x1ef5;" horiz-adv-x="454" 
d="M368 450h85l-279 -660h-83l97 220l-187 440h85l141 -347zM332 -62q23 0 39.5 -16t16.5 -39t-16.5 -39.5t-39.5 -16.5t-39 16.5t-16 39.5t16 39t39 16z" />
    <glyph glyph-name="uni1EF8" unicode="&#x1ef8;" horiz-adv-x="526" 
d="M213 734q-30 0 -51 -37l-48 31q1 1 6 8.5l7 10.5t8 10t10 10.5t11 9t14 8t16 4.5t19 2q29 0 61.5 -21t50.5 -21q17 0 26.5 10t17.5 28l52 -27q-36 -68 -92 -68q-29 0 -59 21t-49 21zM530 640l-226 -340v-300h-82v300l-226 340h96l171 -262l171 262h96z" />
    <glyph glyph-name="uni1EF9" unicode="&#x1ef9;" horiz-adv-x="454" 
d="M177 574q-30 0 -52 -37l-47 31q1 1 6 8.5l7 10.5t8 10t10 11t11 9t14 7.5t16 4.5t19 2q29 0 61.5 -21t50.5 -21q17 0 26.5 10t17.5 28l51 -26q-35 -69 -92 -69q-28 0 -58 21t-49 21zM368 450h85l-279 -660h-83l97 220l-187 440h85l141 -347z" />
    <glyph glyph-name="uni2009" unicode="&#x2009;" horiz-adv-x="10" 
 />
    <glyph glyph-name="endash" unicode="&#x2013;" horiz-adv-x="512" 
d="M50 253v69h413v-69h-413z" />
    <glyph glyph-name="emdash" unicode="&#x2014;" horiz-adv-x="760" 
d="M50 253v69h660v-69h-660z" />
    <glyph glyph-name="quoteleft" unicode="&#x2018;" horiz-adv-x="228" 
d="M168 659l16 -40q-79 -39 -80 -99q23 8 45.5 -6t22.5 -42q0 -25 -16 -41.5t-44 -16.5q-31 0 -49.5 25.5t-18.5 60.5q0 47 30 91.5t94 67.5z" />
    <glyph glyph-name="quoteright" unicode="&#x2019;" horiz-adv-x="228" 
d="M60 411l-16 40q79 39 80 99q-23 -8 -45.5 5.5t-22.5 42.5q0 25 16 41.5t44 16.5q31 -1 49.5 -26t18.5 -60q0 -47 -30 -91.5t-94 -67.5z" />
    <glyph glyph-name="quotesinglbase" unicode="&#x201a;" horiz-adv-x="271" 
d="M82 -143l-16 40q79 39 80 99q-24 -8 -46.5 6t-22.5 42q1 25 17 41.5t43 16.5q31 0 50 -25t19 -61q0 -47 -30 -91.5t-94 -67.5z" />
    <glyph glyph-name="quotedblleft" unicode="&#x201c;" horiz-adv-x="392" 
d="M168 659l16 -41q-79 -38 -80 -99q23 9 45.5 -5t22.5 -43q0 -25 -16 -41t-44 -16q-31 0 -49.5 25t-18.5 60q0 48 30 92.5t94 67.5zM331 659l17 -41q-80 -38 -81 -99q24 9 46.5 -5t22.5 -43q0 -25 -16.5 -41t-43.5 -16q-31 0 -49.5 25t-18.5 60q0 48 30 92.5t93 67.5z" />
    <glyph glyph-name="quotedblright" unicode="&#x201d;" horiz-adv-x="392" 
d="M60 411l-16 40q79 39 80 99q-23 -8 -45.5 5.5t-22.5 42.5q0 25 16 41.5t44 16.5q31 0 49.5 -25.5t18.5 -60.5q0 -47 -30 -91.5t-94 -67.5zM224 411l-16 40q79 39 80 99q-24 -8 -46.5 5.5t-22.5 42.5q0 25 16.5 41.5t43.5 16.5q31 0 50 -25.5t19 -60.5q-1 -47 -31 -91.5
t-93 -67.5z" />
    <glyph glyph-name="quotedblbase" unicode="&#x201e;" horiz-adv-x="435" 
d="M82 -147l-16 40q79 39 80 100q-24 -9 -46.5 5t-22.5 42q1 26 17 42t43 16q31 0 50 -25t19 -61q0 -47 -30 -91.5t-94 -67.5zM246 -147l-16 40q79 39 80 100q-24 -9 -46.5 5t-22.5 42q0 26 16.5 42t43.5 16q31 0 50 -25t18 -61q0 -47 -30 -91.5t-93 -67.5z" />
    <glyph glyph-name="dagger" unicode="&#x2020;" horiz-adv-x="419" 
d="M380 507v-69h-132v-539h-78v539h-131v69h131v173h78v-173h132z" />
    <glyph glyph-name="daggerdbl" unicode="&#x2021;" horiz-adv-x="419" 
d="M388 141v-69h-140v-173h-78v173h-123v69h123v297h-131v69h131v173h78v-173h132v-69h-132v-297h140z" />
    <glyph glyph-name="bullet" unicode="&#x2022;" horiz-adv-x="320" 
d="M160 229q-39 0 -66.5 27.5t-27.5 66.5t27.5 66.5t66.5 27.5t66.5 -27.5t27.5 -66.5t-27.5 -66.5t-66.5 -27.5z" />
    <glyph glyph-name="ellipsis" unicode="&#x2026;" horiz-adv-x="644" 
d="M121 -8q-23 0 -39 16.5t-16 39.5t16 39t39 16t39.5 -16t16.5 -39t-16.5 -39.5t-39.5 -16.5zM322 -8q-23 0 -39.5 16.5t-16.5 39.5t16.5 39t39.5 16t39.5 -16t16.5 -39t-16.5 -39.5t-39.5 -16.5zM523 -8q-23 0 -39.5 16.5t-16.5 39.5t16.5 39t39.5 16t39 -16t16 -39
t-16 -39.5t-39 -16.5z" />
    <glyph glyph-name="perthousand" unicode="&#x2030;" horiz-adv-x="1188" 
d="M207 250q-69 0 -110 55t-41 145t41 145t110 55t110 -55t41 -145t-41 -145t-110 -55zM179 0l409 640h69l-409 -640h-69zM206.5 309q39.5 0 60 39.5t20.5 101.5q0 63 -20.5 102t-60 39t-59.5 -39t-20 -102q0 -62 20 -101.5t59.5 -39.5zM641 -10q-69 0 -110 55t-41 145
t41 145t110 55t110 -55t41 -145t-41 -145t-110 -55zM981 -10q-69 0 -110 55t-41 145t41 145t110 55t110 -55t41 -145t-41 -145t-110 -55zM641.5 49q39.5 0 59.5 39.5t20 101.5q0 63 -20 102t-59.5 39t-60 -39t-20.5 -102q0 -62 20.5 -101.5t60 -39.5zM980.5 49
q39.5 0 60 39.5t20.5 101.5q0 63 -20.5 102t-60 39t-59.5 -39t-20 -102q0 -62 20 -101.5t59.5 -39.5z" />
    <glyph glyph-name="second" unicode="&#x2033;" horiz-adv-x="600" 
 />
    <glyph glyph-name="guilsinglleft" unicode="&#x2039;" horiz-adv-x="298" 
d="M262 420l-151 -178l151 -178h-77l-149 178l149 178h77z" />
    <glyph glyph-name="guilsinglright" unicode="&#x203a;" horiz-adv-x="298" 
d="M113 420l149 -178l-149 -178h-77l151 178l-151 178h77z" />
    <glyph glyph-name="fraction" unicode="&#x2044;" horiz-adv-x="138" 
d="M-160 0l409 640h69l-409 -640h-69z" />
    <glyph glyph-name="uni2070" unicode="&#x2070;" horiz-adv-x="394" 
d="M197 350q-69 0 -110 55t-41 145t41 145t110 55t110 -55t41 -145t-41 -145t-110 -55zM196.5 409q39.5 0 60 39.5t20.5 101.5q0 63 -20.5 102t-60 39t-59.5 -39t-20 -102q0 -62 20 -101.5t59.5 -39.5z" />
    <glyph glyph-name="uni2074" unicode="&#x2074;" horiz-adv-x="348" 
d="M333 496v-59h-45v-77h-68v77h-175l-19 52l149 251h74l-146 -244h117v98h68v-98h45z" />
    <glyph glyph-name="uni2075" unicode="&#x2075;" horiz-adv-x="371" 
d="M200 599q57 0 91 -33t34 -89q0 -51 -39 -89t-104 -38q-88 0 -146 59l38 51q1 0 8.5 -8t10.5 -10.5t11.5 -9t15 -9.5t16 -7t20.5 -5.5t24 -1.5q36 0 55 21t19 47q0 28 -17 45.5t-44 17.5q-21 0 -37 -5.5t-21 -11.5l-5 -5l-66 27l37 195h200v-59h-148l-21 -104q27 22 68 22
z" />
    <glyph glyph-name="uni2076" unicode="&#x2076;" horiz-adv-x="373" 
d="M189 350q-65 0 -104 36t-39 91q0 51 22.5 93t112.5 170h79l-108 -148q12 12 54 12q51 0 86.5 -34t35.5 -90q0 -55 -39 -92.5t-100 -37.5zM186.5 409q29.5 0 50 19.5t20.5 48.5t-20.5 49t-49.5 20t-49.5 -20t-20.5 -49t20 -48.5t49.5 -19.5z" />
    <glyph glyph-name="uni2077" unicode="&#x2077;" horiz-adv-x="337" 
d="M36 740h266v-39l-164 -341h-75l155 321h-182v59z" />
    <glyph glyph-name="uni2078" unicode="&#x2078;" horiz-adv-x="373" 
d="M250 565q37 -13 57 -39.5t20 -61.5q0 -46 -36 -80t-104 -34t-104.5 34t-36.5 80q0 35 20 61.5t57 39.5q-62 25 -62 86q0 41 35 70t91 29t91 -29t35 -70q0 -61 -63 -86zM187 692q-24 0 -40.5 -14t-16.5 -35.5t16.5 -35.5t40 -14t40 14t16.5 35.5t-16 35.5t-40 14zM187 408
q29 0 49 18t20 44.5t-20.5 44t-48.5 17.5q-29 0 -49.5 -17.5t-20.5 -44.5q0 -26 20 -44t50 -18z" />
    <glyph glyph-name="uni2079" unicode="&#x2079;" horiz-adv-x="373" 
d="M185 750q64 0 103 -36t40 -90q0 -51 -23 -93.5t-113 -170.5h-79l108 148q-12 -12 -54 -12q-51 0 -86 34.5t-35 90.5q0 54 39 91.5t100 37.5zM186.5 692q-29.5 0 -49.5 -20t-20 -49t20 -48.5t50 -19.5q28 0 49 19.5t21 48.5t-20.5 49t-50 20z" />
    <glyph glyph-name="uni2080" unicode="&#x2080;" horiz-adv-x="394" 
d="M197 -110q-69 0 -110 55t-41 145t41 145t110 55t110 -55t41 -145t-41 -145t-110 -55zM196.5 -51q39.5 0 60 39.5t20.5 101.5q0 63 -20.5 102t-60 39t-59.5 -39t-20 -102q0 -62 20 -101.5t59.5 -39.5z" />
    <glyph glyph-name="uni2081" unicode="&#x2081;" horiz-adv-x="246" 
d="M137 280h64l-1 -380h-69v305l-86 -53l-29 52z" />
    <glyph glyph-name="uni2082" unicode="&#x2082;" horiz-adv-x="368" 
d="M163 -41h159v-59h-273v39l156 155q20 20 30 37t10 38q0 27 -16 44.5t-46 17.5q-16 0 -29.5 -5t-25.5 -17t-17 -18t-16 -21l-49 39q19 30 55.5 55.5t82.5 25.5q58 0 95 -32.5t37 -86.5q0 -58 -47 -105z" />
    <glyph glyph-name="uni2083" unicode="&#x2083;" horiz-adv-x="371" 
d="M188 122q56 2 97 -28.5t40 -84.5q-1 -53 -41 -86t-109 -33q-42 0 -74 13.5t-65 41.5l39 49q13 -13 23 -21t31 -16t45 -8q36 0 57 15.5t23 41.5q3 42 -37 62q-35 17 -91 -4l-26 43l109 114h-150v59h250v-31z" />
    <glyph glyph-name="uni2084" unicode="&#x2084;" horiz-adv-x="348" 
d="M333 36v-59h-45v-77h-68v77h-175l-19 52l149 251h74l-146 -244h117v98h68v-98h45z" />
    <glyph glyph-name="uni2085" unicode="&#x2085;" horiz-adv-x="371" 
d="M200 139q57 0 91 -33t34 -89q0 -51 -39 -89t-104 -38q-88 0 -146 59l38 51q1 0 8.5 -8t10.5 -10.5t11.5 -9t15 -9.5t16 -7t20.5 -5.5t24 -1.5q36 0 55 21t19 47q0 28 -17 45.5t-44 17.5q-21 0 -37 -5.5t-21 -11.5l-5 -5l-66 27l37 195h200v-59h-148l-21 -104q27 22 68 22
z" />
    <glyph glyph-name="uni2086" unicode="&#x2086;" horiz-adv-x="373" 
d="M189 -110q-65 0 -104 36t-39 91q0 51 22.5 93t112.5 170h79l-108 -148q12 12 54 12q51 0 86.5 -34t35.5 -90q0 -55 -39 -92.5t-100 -37.5zM186.5 -51q29.5 0 50 19.5t20.5 48.5t-20.5 49t-49.5 20t-49.5 -20t-20.5 -49t20 -48.5t49.5 -19.5z" />
    <glyph glyph-name="uni2087" unicode="&#x2087;" horiz-adv-x="337" 
d="M36 280h266v-39l-164 -341h-75l155 321h-182v59z" />
    <glyph glyph-name="uni2088" unicode="&#x2088;" horiz-adv-x="373" 
d="M250 105q37 -13 57 -39.5t20 -61.5q0 -46 -36 -80t-104 -34t-104.5 34t-36.5 80q0 35 20 61.5t57 39.5q-62 25 -62 86q0 41 35 70t91 29t91 -29t35 -70q0 -61 -63 -86zM187 232q-24 0 -40.5 -14t-16.5 -35.5t16.5 -35.5t40 -14t40 14t16.5 35.5t-16 35.5t-40 14zM187 -52
q29 0 49 18t20 44.5t-20.5 44t-48.5 17.5q-29 0 -49.5 -17.5t-20.5 -44.5q0 -26 20 -44t50 -18z" />
    <glyph glyph-name="uni2089" unicode="&#x2089;" horiz-adv-x="373" 
d="M185 290q64 0 103 -36t40 -90q0 -51 -23 -93.5t-113 -170.5h-79l108 148q-12 -12 -54 -12q-51 0 -86 34.5t-35 90.5q0 54 39 91.5t100 37.5zM186.5 232q-29.5 0 -49.5 -20t-20 -49t20 -48.5t50 -19.5q28 0 49 19.5t21 48.5t-20.5 49t-50 20z" />
    <glyph glyph-name="Euro" unicode="&#x20ac;" horiz-adv-x="520" 
d="M372 56q49 0 84 16l28 -66q-44 -18 -112 -18q-116 0 -198.5 68t-107.5 178h-62v53h53q-1 17 -1 34.5t1 33.5h-53v53h61q26 110 108 178.5t199 68.5q65 0 112 -18l-28 -66q-35 16 -84 16q-83 0 -141.5 -49.5t-80.5 -129.5h233l-22 -53h-221q-2 -16 -2 -33.5t2 -34.5h196
l-22 -53h-164q23 -80 81.5 -129t140.5 -49z" />
    <glyph glyph-name="uni2113" unicode="&#x2113;" horiz-adv-x="485" 
d="M362 108l37 -46q-2 -3 -6 -8t-18 -17.5t-29.5 -22.5t-39.5 -18t-49 -8q-62 0 -92.5 37.5t-30.5 98.5v74q-12 -8 -25 -17l-23 46q27 17 48 32v238q0 75 35 116.5t94 41.5q49 0 78 -33t31 -87q3 -90 -61 -177q-43 -57 -98 -102v-121q0 -44 12.5 -62t39.5 -18t51.5 13.5
t34.5 26.5zM262 581q-27 0 -38 -21.5t-11 -65.5v-170q31 31 55 70q38 65 37 125q0 28 -11.5 45t-31.5 17z" />
    <glyph glyph-name="uni2116" unicode="&#x2116;" horiz-adv-x="1089" 
d="M846.5 313q-77.5 0 -126.5 49.5t-49 121.5q0 71 49.5 121t126.5 50t126.5 -50t49.5 -121q0 -72 -49.5 -121.5t-127 -49.5zM525 137v503h80v-640h-78l-361 506v-506h-80v640h78zM847 592q-45 0 -72.5 -31.5t-27.5 -76.5t27.5 -76.5t72 -31.5t72.5 31.5t28 76.5t-27.5 76.5
t-72.5 31.5zM681 204v57h331v-57h-331z" />
    <glyph glyph-name="trademark" unicode="&#x2122;" horiz-adv-x="624" 
d="M245 640v-46h-74v-234h-53v234h-74v46h201zM530 640h50v-280h-50v197l-91 -134l-93 135v-198h-49v280h49l92 -141z" />
    <glyph glyph-name="uni2126" unicode="&#x2126;" horiz-adv-x="798" 
d="M524 110v-42h175v-68h-250v149v10q83 8 132 65t49 134q0 96 -63.5 162.5t-167 66.5t-167 -66.5t-63.5 -162.5q0 -77 48.5 -134t131.5 -65v-10v-149h-249v68h175v42q-87 27 -138 98t-51 161q0 122 87.5 204t226 82t226 -82t87.5 -204q0 -90 -51.5 -161t-137.5 -98z" />
    <glyph glyph-name="estimated" unicode="&#x212e;" horiz-adv-x="801" 
d="M401 -12q-155 0 -250 91.5t-95 241.5t96.5 242t248.5 92q155 0 246 -89.5t99 -253.5h-541q-5 0 -7.5 -1t-4.5 -5t-2 -11v-163q0 -14 15.5 -33.5t41.5 -38.5t67 -32.5t86 -13.5q63 0 122 29.5t99 76.5h68q-65 -75 -129 -103.5t-160 -28.5zM205 332h389q10 0 13 3.5t3 12.5
v170q0 25 -32.5 51.5t-82 43.5t-96.5 17q-42 0 -82.5 -12t-67 -29.5t-42.5 -35t-16 -28.5v-184q0 -9 14 -9z" />
    <glyph glyph-name="partialdiff" unicode="&#x2202;" horiz-adv-x="550" 
d="M266 -12q-100 0 -155 60t-55 145q0 52 20.5 97t66 75t107.5 30q60 0 107 -29t68 -64q0 245 -198 330l31 59q110 -50 173 -150t63 -239q0 -141 -62.5 -227.5t-165.5 -86.5zM264 51q63 1 101.5 44.5t47.5 116.5q-7 38 -55 79t-103 41q-35 0 -61 -14t-39.5 -36.5t-19.5 -46
t-6 -48.5q0 -55 37 -95.5t98 -40.5z" />
    <glyph glyph-name="emptyset" unicode="&#x2205;" horiz-adv-x="633" 
d="M511 431q66 -73 66 -177q0 -110 -74 -186.5t-187 -76.5q-89 0 -157 51l-45 -51l-38 34l46 51q-66 74 -66 178q0 110 74 186t186 76q90 0 158 -50l45 50l38 -34zM112 254q0 -78 47 -137l278 308q-53 39 -121 39q-87 0 -145.5 -61.5t-58.5 -148.5zM316 43q88 0 146.5 61.5
t58.5 149.5q0 77 -47 136l-278 -308q53 -39 120 -39z" />
    <glyph glyph-name="uni2206" unicode="&#x2206;" horiz-adv-x="589" 
d="M335 640l248 -584v-56h-577v56l247 584h82zM294 548l-197 -481h394z" />
    <glyph glyph-name="product" unicode="&#x220f;" horiz-adv-x="728" 
d="M642 640v-59h-88v-681h-71v681h-238v-681h-71v681h-88v59h556z" />
    <glyph glyph-name="summation" unicode="&#x2211;" horiz-adv-x="643" 
d="M558 690v-59h-389l221 -361l-221 -361h389v-59h-472v50l226 370l-226 370v50h472z" />
    <glyph glyph-name="minus" unicode="&#x2212;" horiz-adv-x="512" 
d="M50 253v69h413v-69h-413z" />
    <glyph glyph-name="uni2215" unicode="&#x2215;" horiz-adv-x="138" 
d="M-160 0l409 640h69l-409 -640h-69z" />
    <glyph glyph-name="uni2219" unicode="&#x2219;" horiz-adv-x="223" 
d="M111 219q-23 0 -39 16.5t-16 39.5t16 39.5t39 16.5t39.5 -16.5t16.5 -39.5t-16.5 -39.5t-39.5 -16.5z" />
    <glyph glyph-name="radical" unicode="&#x221a;" horiz-adv-x="467" 
d="M396 690h65l-187 -840h-55l-151 298l-41 -20l-26 54l101 48l132 -272z" />
    <glyph glyph-name="infinity" unicode="&#x221e;" horiz-adv-x="694" 
d="M515 428q38 0 67 -13.5t45 -35t23.5 -45t7.5 -47.5t-7.5 -47.5t-23.5 -45t-45 -34.5t-67 -13q-43 0 -82.5 25.5t-85.5 71.5q-46 -46 -85.5 -71.5t-82.5 -25.5q-38 0 -67 13t-45 34.5t-23.5 45t-7.5 47.5t7.5 47.5t23.5 45t45 35t67 13.5q43 0 82.5 -25.5t85.5 -72.5
q46 47 85.5 72.5t82.5 25.5zM181 209q28 0 57 20t67 58q-38 39 -67 59t-57 20q-33 0 -55 -19t-22 -59.5t22 -59.5t55 -19zM513 209q33 0 55 19t22 59.5t-22 59.5t-55 19q-28 0 -57 -20t-67 -59q38 -38 67 -58t57 -20z" />
    <glyph glyph-name="integral" unicode="&#x222b;" horiz-adv-x="263" 
d="M75 -150q-30 0 -50 13.5t-19 34.5q0 18 9.5 30t25.5 12t30 -17t22 -17q16 0 16 46v604q0 56 27.5 95t77.5 39q29 0 49.5 -13.5t19.5 -34.5q0 -18 -9.5 -30t-25.5 -12q-13 0 -20.5 8.5t-13 17t-13.5 8.5q-21 0 -21 -66v-584q0 -56 -28 -95t-77 -39z" />
    <glyph glyph-name="approxequal" unicode="&#x2248;" horiz-adv-x="513" 
d="M345 299q-30 0 -59 14t-55.5 28.5t-53.5 13.5q-20 0 -40.5 -14t-31.5 -28l-11 -14l-44 40q22 34 54 57.5t67 23.5t87 -28t78 -28q23 0 43.5 14t29.5 28l9 14l43 -44q-50 -77 -116 -77zM347 160q-30 0 -59 14t-56 28t-54 14q-19 0 -39.5 -14t-31.5 -28l-11 -14l-44 40
q22 34 54 57.5t66 23.5q36 0 88 -28t78 -28q23 0 43.5 14t29.5 28l9 14l43 -45q-50 -76 -116 -76z" />
    <glyph glyph-name="notequal" unicode="&#x2260;" horiz-adv-x="512" 
d="M463 329h-149l-55 -83h204v-68h-249l-39 -59h-60l39 59h-104v68h148l55 83h-203v69h248l38 57h61l-38 -57h104v-69z" />
    <glyph glyph-name="lessequal" unicode="&#x2264;" horiz-adv-x="518" 
d="M468 491v-76l-332 -124l332 -124v-77l-418 169v64zM54 0v68h413v-68h-413z" />
    <glyph glyph-name="greaterequal" unicode="&#x2265;" horiz-adv-x="518" 
d="M50 491l418 -168v-64l-418 -169v77l332 124l-332 124v76zM51 0v68h413v-68h-413z" />
    <glyph glyph-name="lozenge" unicode="&#x25ca;" horiz-adv-x="540" 
d="M247 -37l-191 357l191 357h46l192 -357l-192 -357h-46zM270 35l145 285l-145 285l-145 -285z" />
    <glyph glyph-name="uniE132" unicode="&#xe132;" horiz-adv-x="422" 
d="M165 589q-35 -38 -55 -48.5t-42 -10.5h-35l125 152l81 -14zM385 579q-34 -38 -54 -48.5t-43 -10.5h-34l125 152l81 -14zM71 0v451h76v-451h-76zM369 450v-507q0 -40 -9 -69.5t-22 -45t-32 -24.5t-33.5 -11.5t-31.5 -2.5l-33 4l6 68q10 -3 24 -3q21 0 36.5 16.5t15.5 60.5
v514h79z" />
    <glyph glyph-name="uniF8FF" unicode="&#xf8ff;" horiz-adv-x="811" 
d="M86 0v640h640v-640h-640zM168 250h168v-168h140v168h168v140h-168v168h-140v-168h-168v-140z" />
    <glyph glyph-name="Jacute" horiz-adv-x="456" 
d="M389 738q-35 -37 -55 -47.5t-42 -10.5h-34l125 151l81 -14zM196 -12q-85 0 -150 61l46 65q45 -52 102 -52q47 0 73 32t26 94v452h82v-448q0 -105 -50.5 -154.5t-128.5 -49.5z" />
    <glyph glyph-name="i.loclTRK" horiz-adv-x="218" 
d="M109 544q-23 0 -39 16t-16 39t16 39.5t39 16.5t39.5 -16.5t16.5 -39.5t-16.5 -39t-39.5 -16zM71 0v451h76v-451h-76z" />
    <glyph glyph-name="jacute" horiz-adv-x="204" 
d="M167 579q-35 -38 -55 -48.5t-42 -10.5h-34l125 152l81 -14zM151 450v-507q0 -40 -9 -69.5t-22 -45t-32 -24.5t-33.5 -11.5t-31.5 -2.5l-33 4l6 68q10 -3 24 -3q21 0 36.5 16.5t15.5 60.5v514h79z" />
    <glyph glyph-name="i.TRK" horiz-adv-x="218" 
d="M109 544q-23 0 -39 16t-16 39t16 39.5t39 16.5t39.5 -16.5t16.5 -39.5t-16.5 -39t-39.5 -16zM71 0v451h76v-451h-76z" />
    <glyph glyph-name="f_f_ij" horiz-adv-x="1001" 
d="M510 627q-53 0 -53 -79v-98h96v-66h-96v-384h-79v384h-202v-384h-79v384h-58v66h58v96q0 73 34 111t92 38q46 0 86 -26l-36 -58q-21 16 -44 16q-53 0 -53 -79v-98h202v96q0 72 34 110.5t92 38.5q41 0 74 -18l-31 -61q-18 11 -37 11zM908 657q23 0 39.5 -16t16.5 -39
t-16.5 -39.5t-39.5 -16.5t-39 16.5t-16 39.5t16 39t39 16zM685 656q23 0 39.5 -16.5t16.5 -39.5t-16.5 -39t-39.5 -16t-39.5 16t-16.5 39t16.5 39.5t39.5 16.5zM643 0v451h76v-451h-76zM869 -64v514h79v-507q0 -40 -9.5 -69.5t-22 -45t-31.5 -24.5t-33.5 -11.5t-31.5 -2.5
l-33 4l6 68q10 -3 24 -3q20 0 36 16.5t16 60.5z" />
    <glyph glyph-name="f_i" horiz-adv-x="512" 
d="M228 627q-54 0 -54 -79v-98h96v-66h-96v-384h-78v384h-57v66h57v96q0 72 34 110.5t92 38.5q40 0 74 -18l-32 -61q-18 11 -36 11zM403 657q23 0 39.5 -16t16.5 -39t-16.5 -39.5t-39.5 -16.5t-39 16.5t-16 39.5t16 39t39 16zM361 0v451h77v-451h-77z" />
    <glyph glyph-name="f_ij" horiz-adv-x="709" 
d="M228 627q-54 0 -54 -79v-98h96v-66h-96v-384h-78v384h-57v66h57v96q0 72 34 110.5t92 38.5q40 0 74 -18l-32 -61q-18 11 -36 11zM403 657q23 0 39.5 -16t16.5 -39t-16.5 -39.5t-39.5 -16.5t-39 16.5t-16 39.5t16 39t39 16zM616 657q23 0 39.5 -16t16.5 -39t-16.5 -39.5
t-39.5 -16.5t-39 16.5t-16 39.5t16 39t39 16zM361 0v451h77v-451h-77zM577 -64v514h79v-507q0 -40 -9.5 -69.5t-22 -45t-31.5 -24.5t-33.5 -11.5t-32.5 -2.5l-33 4l7 68q10 -3 24 -3q20 0 36 16.5t16 60.5z" />
    <glyph glyph-name="f_l" horiz-adv-x="535" 
d="M99 546q0 72 34 110.5t92 38.5q40 0 74 -18l-25 -65q-20 15 -43 15q-53 0 -53 -79v-98h95v-66h-95v-384h-79v384h-60v66h60v96zM385 680h79v-680h-79v680z" />
    <glyph glyph-name="zero.lf" horiz-adv-x="593" 
d="M296.5 -12q-109.5 0 -175 91.5t-65.5 242t65.5 242t175 91.5t175 -91.5t65.5 -242t-65.5 -242t-175 -91.5zM296.5 56q78.5 0 118.5 74t40 191.5t-40 191.5t-118.5 74t-118.5 -74t-40 -191.5t40 -191.5t118.5 -74z" />
    <glyph glyph-name="one.lf" horiz-adv-x="393" 
d="M248 640h70v-640h-79v549l-157 -101l-36 65l202 127v0z" />
    <glyph glyph-name="two.lf" horiz-adv-x="541" 
d="M171 68h314v-68h-429v56l261 271q34 36 53 68.5t19 73.5q0 48 -34.5 83t-87.5 35q-83 0 -138 -86l-60 41q13 21 29 38.5t40 36t57.5 29t71.5 9.5q95 -1 149.5 -53.5t54.5 -130.5q0 -57 -24 -101.5t-69 -90.5z" />
    <glyph glyph-name="three.lf" horiz-adv-x="555" 
d="M284 376q89 3 152.5 -48.5t62.5 -144.5q-1 -87 -64.5 -141t-171.5 -54q-70 0 -121.5 21t-95.5 61l47 63q22 -23 40.5 -37t53 -27t75.5 -13q69 0 111 36.5t43 91.5q1 38 -18.5 69.5t-52.5 46.5q-34 15 -69 16t-76 -6l-26 42l197 220h-290v68h392v-54z" />
    <glyph glyph-name="four.lf" horiz-adv-x="564" 
d="M528 210v-68h-65v-142h-79v142h-320l-18 56l262 442h86l-257 -430h247v184h79v-184h65z" />
    <glyph glyph-name="five.lf" horiz-adv-x="540" 
d="M273 394q91 1 151 -54t60 -145q0 -85 -60 -146t-165 -61q-125 0 -213 81l44 65q70 -78 164 -78q70 0 108.5 42t38.5 97q0 58 -38 94t-100 37q-34 0 -60 -10.5t-36 -21.5l-9 -11l-66 30l54 327h305v-68h-238l-36 -201q40 22 96 23z" />
    <glyph glyph-name="six.lf" horiz-adv-x="563" 
d="M284 -12q-103 0 -165.5 60.5t-62.5 150.5q0 34 6 63.5t17 58.5t42.5 78.5t64.5 97.5t99 143h87l-179 -260q36 32 104 32q90 0 150 -59t60 -154q0 -89 -62.5 -150t-160.5 -61zM281 56q60 0 101.5 41.5t41.5 102.5t-41.5 102.5t-101.5 41.5q-58 0 -100.5 -42t-42.5 -102
q0 -61 41.5 -102.5t101.5 -41.5z" />
    <glyph glyph-name="seven.lf" horiz-adv-x="523" 
d="M46 640h431v-55l-272 -585h-87l274 572h-346v68z" />
    <glyph glyph-name="eight.lf" horiz-adv-x="566" 
d="M386 346q59 -22 92 -66t33 -102q0 -35 -14 -68.5t-41 -61t-72 -44t-101 -16.5t-101 16.5t-71.5 44t-40.5 61t-14 68.5q0 58 32.5 102t91.5 66q-98 42 -98 143q0 68 56 117t145 49t145 -49t56 -117q0 -101 -98 -143zM283 587q-52 0 -87 -28.5t-35 -74.5q0 -47 35.5 -77
t86.5 -30t86.5 30t35.5 77q0 46 -35 74.5t-87 28.5zM283 56q61 0 103 35.5t42 90.5t-43 90.5t-102 35.5t-102 -35.5t-43 -90.5t42 -90.5t103 -35.5z" />
    <glyph glyph-name="nine.lf" horiz-adv-x="563" 
d="M278 652q104 0 166.5 -60.5t62.5 -150.5q0 -34 -6.5 -63t-17.5 -58.5t-42 -79t-64 -97.5t-100 -143h-87l180 260q-36 -32 -104 -32q-90 0 -150 59t-60 154q0 89 62 150t160 61zM281 584q-60 0 -101.5 -41.5t-41.5 -102.5t41.5 -102.5t101.5 -41.5q59 0 101 42t42 102
q0 61 -41.5 102.5t-101.5 41.5z" />
    <glyph glyph-name="zero.osf" horiz-adv-x="638" 
d="M319 -12q-113 0 -188 74.5t-75 190.5q0 114 75 188t188 74t188 -74t75 -188q0 -116 -75 -190.5t-188 -74.5zM319 57q82 0 131 56.5t49 139.5q0 81 -49 137t-131 56t-131 -56t-49 -137q0 -83 49 -139.5t131 -56.5z" />
    <glyph glyph-name="one.osf" horiz-adv-x="393" 
d="M248 499h70v-499h-79v412l-157 -100l-36 59l202 128v0z" />
    <glyph glyph-name="two.osf" horiz-adv-x="541" 
d="M193 68h292v-68h-429v59l173 115q4 3 22 14.5t23 15t21 14.5t21.5 15.5t18 15t17.5 17.5t13.5 17.5t11.5 19t6 19.5t3 23q-1 49 -34 75t-85 26q-84 0 -139 -84l-60 41q12 20 28 37.5t40 35.5t58 28.5t73 10.5q94 -2 147.5 -47t53.5 -122q0 -30 -10.5 -57.5t-24.5 -47.5
t-41 -42t-47.5 -36t-54.5 -35z" />
    <glyph glyph-name="three.osf" horiz-adv-x="565" 
d="M294 235q89 3 152.5 -49t62.5 -144q-1 -87 -64.5 -141t-171.5 -54q-70 0 -121.5 21t-95.5 61l47 63q22 -23 40.5 -37t53 -27t75.5 -13q69 0 111 36.5t43 90.5q1 39 -18.5 70.5t-52.5 46.5q-34 15 -69 16t-76 -6l-26 42l197 219h-290v69h392v-54z" />
    <glyph glyph-name="four.osf" horiz-adv-x="594" 
d="M538 69v-69h-65v-141h-79v141h-320l-18 57l262 442h86l-257 -430h247v183h79v-183h65z" />
    <glyph glyph-name="five.osf" horiz-adv-x="550" 
d="M283 253q91 1 151 -54t60 -145q0 -85 -60 -146t-165 -61q-125 0 -213 81l44 65q70 -78 164 -78q70 0 108.5 41.5t38.5 97.5q0 58 -38 94t-100 36q-34 1 -60 -9.5t-36 -21.5l-9 -11l-66 29l54 328h305v-69h-238l-36 -200q40 22 96 23z" />
    <glyph glyph-name="six.osf" horiz-adv-x="563" 
d="M284 -12q-103 0 -165.5 60.5t-62.5 150.5q0 34 6 63.5t17 58.5t42.5 78.5t64.5 97.5t99 143h87l-179 -260q36 32 104 32q90 0 150 -59t60 -154q0 -89 -62.5 -150t-160.5 -61zM281 56q60 0 101.5 41.5t41.5 102.5t-41.5 102.5t-101.5 41.5q-58 0 -100.5 -42t-42.5 -102
q0 -61 41.5 -102.5t101.5 -41.5z" />
    <glyph glyph-name="seven.osf" horiz-adv-x="543" 
d="M56 499h431v-55l-272 -585h-87l274 571h-346v69z" />
    <glyph glyph-name="eight.osf" horiz-adv-x="566" 
d="M386 346q59 -22 92 -66t33 -102q0 -35 -14 -68.5t-41 -61t-72 -44t-101 -16.5t-101 16.5t-71.5 44t-40.5 61t-14 68.5q0 58 32.5 102t91.5 66q-98 42 -98 143q0 68 56 117t145 49t145 -49t56 -117q0 -101 -98 -143zM283 587q-52 0 -87 -28.5t-35 -74.5q0 -47 35.5 -77
t86.5 -30t86.5 30t35.5 77q0 46 -35 74.5t-87 28.5zM283 56q61 0 103 35.5t42 90.5t-43 90.5t-102 35.5t-102 -35.5t-43 -90.5t42 -90.5t103 -35.5z" />
    <glyph glyph-name="nine.osf" horiz-adv-x="563" 
d="M278 515q104 0 166.5 -60.5t62.5 -150.5q0 -35 -6.5 -64t-17.5 -58t-42 -78.5t-64 -98t-100 -142.5h-87l180 259q-36 -31 -104 -31q-90 0 -150 58.5t-60 154.5q0 89 62 150t160 61zM281 447q-60 0 -101.5 -42t-41.5 -102q0 -61 41.5 -102.5t101.5 -41.5q59 0 101 41.5
t42 102.5q0 60 -41.5 102t-101.5 42z" />
    <glyph glyph-name="zero.tf" horiz-adv-x="541" 
d="M270.5 -12q-109.5 0 -175 91.5t-65.5 242t65.5 242t175 91.5t175 -91.5t65.5 -242t-65.5 -242t-175 -91.5zM270 56q78 0 118 74t40 191.5t-40 191.5t-118 74t-118 -74t-40 -191.5t40 -191.5t118 -74z" />
    <glyph glyph-name="one.tf" horiz-adv-x="541" 
d="M268 640h70v-640h-79v549l-157 -101l-36 65l202 127v0z" />
    <glyph glyph-name="two.tf" horiz-adv-x="541" 
d="M149 68h314v-68h-430v56l261 271q35 36 53.5 68.5t18.5 73.5q0 48 -34.5 83t-86.5 35q-83 0 -139 -86l-59 41q12 21 28.5 38.5t40.5 36t57.5 29t71.5 9.5q95 -1 149.5 -53.5t54.5 -130.5q0 -57 -24 -101.5t-70 -90.5z" />
    <glyph glyph-name="three.tf" horiz-adv-x="541" 
d="M267 376q89 3 153 -48.5t62 -144.5q-1 -87 -64 -141t-171 -54q-71 0 -122.5 21t-95.5 61l47 63q23 -23 41.5 -37t52.5 -27t75 -13q69 0 111.5 36.5t43.5 91.5q0 38 -19.5 69.5t-52.5 46.5t-68 16t-77 -6l-26 42l197 220h-290v68h392v-54z" />
    <glyph glyph-name="four.tf" horiz-adv-x="541" 
d="M503 210v-68h-65v-142h-79v142h-320l-18 56l262 442h86l-257 -430h247v184h79v-184h65z" />
    <glyph glyph-name="five.tf" horiz-adv-x="541" 
d="M269 394q92 1 151.5 -54t59.5 -145q0 -85 -60 -146t-165 -61q-125 0 -213 81l44 65q70 -78 164 -78q70 0 108.5 42t38.5 97q0 58 -38 94t-100 37q-34 0 -60 -10.5t-36 -21.5l-9 -11l-66 30l54 327h305v-68h-238l-36 -201q40 22 96 23z" />
    <glyph glyph-name="six.tf" horiz-adv-x="541" 
d="M275 -12q-103 0 -165.5 60.5t-62.5 150.5q0 34 6 63.5t17 58.5t42.5 78.5t64.5 97.5t99 143h87l-179 -260q36 32 104 32q90 0 150 -59t60 -154q0 -89 -62.5 -150t-160.5 -61zM272 56q60 0 101.5 41.5t41.5 102.5t-41.5 102.5t-101.5 41.5q-58 0 -100.5 -42t-42.5 -102
q0 -61 41.5 -102.5t101.5 -41.5z" />
    <glyph glyph-name="seven.tf" horiz-adv-x="541" 
d="M54 640h432v-55l-272 -585h-87l274 572h-347v68z" />
    <glyph glyph-name="eight.tf" horiz-adv-x="541" 
d="M373 346q59 -22 92 -66t33 -102q0 -35 -14 -68.5t-41 -61t-71.5 -44t-101 -16.5t-101 16.5t-71.5 44t-41 61t-14 68.5q0 58 32.5 102t92.5 66q-99 42 -99 143q0 68 56 117t145.5 49t145.5 -49t56 -117q0 -101 -99 -143zM270.5 587q-51.5 0 -87 -28.5t-35.5 -74.5
q0 -47 35.5 -77t87 -30t86.5 30t35 77q0 46 -35 74.5t-86.5 28.5zM270.5 56q60.5 0 102.5 35.5t42 90.5t-42.5 90.5t-102 35.5t-102 -35.5t-42.5 -90.5t42 -90.5t102.5 -35.5z" />
    <glyph glyph-name="nine.tf" horiz-adv-x="541" 
d="M265 652q104 0 166.5 -60.5t62.5 -150.5q0 -34 -6 -63t-17.5 -58.5t-42.5 -79t-64 -97.5t-100 -143h-87l180 260q-36 -32 -104 -32q-90 0 -150 59t-60 154q0 89 62 150t160 61zM268.5 584q-60.5 0 -101.5 -41.5t-41 -102.5t41 -102.5t101 -41.5q59 0 101 42t42 102
q0 61 -41 102.5t-101.5 41.5z" />
    <glyph glyph-name="zero.tosf" horiz-adv-x="541" 
d="M270 -12q-113 0 -188 74.5t-75 190.5q0 114 75 188t188 74t188 -74t75 -188q0 -116 -75 -190.5t-188 -74.5zM270 57q82 0 131 56.5t49 139.5q0 81 -49 137t-131 56t-131.5 -56t-49.5 -137q0 -83 49.5 -139.5t131.5 -56.5z" />
    <glyph glyph-name="one.tosf" horiz-adv-x="541" 
d="M274 499h70v-499h-79v412l-157 -100l-36 59l202 128v0z" />
    <glyph glyph-name="two.tosf" horiz-adv-x="541" 
d="M193 68h292v-68h-429v59l173 115q4 3 22 14.5t23 15t21 14.5t21.5 15.5t18 15t17.5 17.5t13.5 17.5t11.5 19t6 19.5t3 23q-1 49 -34 75t-85 26q-84 0 -139 -84l-61 41q13 20 29 37.5t40 35.5t58 28.5t73 10.5q94 -2 147.5 -47t53.5 -122q0 -30 -10.5 -57.5t-25 -47.5
t-41 -42t-47 -36t-54.5 -35z" />
    <glyph glyph-name="three.tosf" horiz-adv-x="541" 
d="M282 235q89 3 153 -49t62 -144q-1 -87 -64.5 -141t-171.5 -54q-70 0 -121.5 21t-95.5 61l47 63q23 -23 41 -37t52.5 -27t75.5 -13q69 0 111 36.5t43 90.5q1 39 -18.5 70.5t-52.5 46.5q-34 15 -69 16t-76 -6l-26 42l197 219h-290v69h392v-54z" />
    <glyph glyph-name="four.tosf" horiz-adv-x="542" 
d="M513 69v-69h-65v-141h-79v141h-320l-19 57l263 442h86l-257 -430h247v183h79v-183h65z" />
    <glyph glyph-name="five.tosf" horiz-adv-x="541" 
d="M278 253q92 1 151.5 -54t59.5 -145q0 -85 -60 -146t-165 -61q-125 0 -213 81l44 65q70 -78 165 -78q70 0 108 41.5t38 97.5q0 58 -38 94t-99 36q-34 1 -60.5 -9.5t-35.5 -21.5l-9 -11l-67 29l55 328h304v-69h-238l-36 -200q40 22 96 23z" />
    <glyph glyph-name="six.tosf" horiz-adv-x="541" 
d="M275 -12q-103 0 -165.5 60.5t-62.5 150.5q0 34 6 63.5t17 58.5t42.5 78.5t64.5 97.5t99 143h87l-179 -260q36 32 104 32q90 0 150 -59t60 -154q0 -89 -62.5 -150t-160.5 -61zM272 56q60 0 101.5 41.5t41.5 102.5t-41.5 102.5t-101.5 41.5q-58 0 -100.5 -42t-42.5 -102
q0 -61 41.5 -102.5t101.5 -41.5z" />
    <glyph glyph-name="seven.tosf" horiz-adv-x="541" 
d="M55 499h431v-55l-272 -585h-87l274 571h-346v69z" />
    <glyph glyph-name="eight.tosf" horiz-adv-x="541" 
d="M373 346q59 -22 92 -66t33 -102q0 -35 -14 -68.5t-41 -61t-71.5 -44t-101 -16.5t-101 16.5t-71.5 44t-41 61t-14 68.5q0 58 32.5 102t92.5 66q-99 42 -99 143q0 68 56 117t145.5 49t145.5 -49t56 -117q0 -101 -99 -143zM270.5 587q-51.5 0 -87 -28.5t-35.5 -74.5
q0 -47 35.5 -77t87 -30t86.5 30t35 77q0 46 -35 74.5t-86.5 28.5zM270.5 56q60.5 0 102.5 35.5t42 90.5t-42.5 90.5t-102 35.5t-102 -35.5t-42.5 -90.5t42 -90.5t102.5 -35.5z" />
    <glyph glyph-name="nine.tosf" horiz-adv-x="541" 
d="M265 515q104 0 166.5 -60.5t62.5 -150.5q0 -35 -6 -64t-17.5 -58t-42.5 -78.5t-64 -98t-100 -142.5h-87l180 259q-36 -31 -104 -31q-90 0 -150 58.5t-60 154.5q0 89 62 150t160 61zM268.5 447q-60.5 0 -101.5 -42t-41 -102q0 -61 41 -102.5t101 -41.5q59 0 101 41.5
t42 102.5q0 60 -41 102t-101.5 42z" />
    <glyph glyph-name="zero.dnom" horiz-adv-x="394" 
d="M197 -10q-69 0 -110 55t-41 145t41 145t110 55t110 -55t41 -145t-41 -145t-110 -55zM196.5 49q39.5 0 60 39.5t20.5 101.5q0 63 -20.5 102t-60 39t-59.5 -39t-20 -102q0 -62 20 -101.5t59.5 -39.5z" />
    <glyph glyph-name="one.dnom" horiz-adv-x="246" 
d="M137 380h64l-1 -380h-69v305l-86 -53l-29 52z" />
    <glyph glyph-name="two.dnom" horiz-adv-x="368" 
d="M163 59h159v-59h-273v39l156 155q20 20 30 37t10 38q0 27 -16 44.5t-46 17.5q-16 0 -29.5 -5t-25.5 -17t-17 -18t-16 -21l-49 39q19 30 55.5 55.5t82.5 25.5q58 0 95 -32.5t37 -86.5q0 -58 -47 -105z" />
    <glyph glyph-name="three.dnom" horiz-adv-x="371" 
d="M188 222q56 2 97 -28.5t40 -84.5q-1 -53 -41 -86t-109 -33q-42 0 -74 13.5t-65 41.5l39 49q13 -13 23 -21t31 -16t45 -8q36 0 57 15.5t23 41.5q3 42 -37 62q-35 17 -91 -4l-26 43l109 114h-150v59h250v-31z" />
    <glyph glyph-name="four.dnom" horiz-adv-x="348" 
d="M333 136v-59h-45v-77h-68v77h-175l-19 52l149 251h74l-146 -244h117v98h68v-98h45z" />
    <glyph glyph-name="five.dnom" horiz-adv-x="371" 
d="M200 239q57 0 91 -33t34 -89q0 -51 -39 -89t-104 -38q-88 0 -146 59l38 51q1 0 8.5 -8t10.5 -10.5t11.5 -9t15 -9.5t16 -7t20.5 -5.5t24 -1.5q36 0 55 21t19 47q0 28 -17 45.5t-44 17.5q-21 0 -37 -5.5t-21 -11.5l-5 -5l-66 27l37 195h200v-59h-148l-21 -104q27 22 68 22
z" />
    <glyph glyph-name="six.dnom" horiz-adv-x="373" 
d="M189 -10q-65 0 -104 36t-39 91q0 51 22.5 93t112.5 170h79l-108 -148q12 12 54 12q51 0 86.5 -34t35.5 -90q0 -55 -39 -92.5t-100 -37.5zM186.5 49q29.5 0 50 19.5t20.5 48.5t-20.5 49t-49.5 20t-49.5 -20t-20.5 -49t20 -48.5t49.5 -19.5z" />
    <glyph glyph-name="seven.dnom" horiz-adv-x="337" 
d="M36 380h266v-39l-164 -341h-75l155 321h-182v59z" />
    <glyph glyph-name="eight.dnom" horiz-adv-x="373" 
d="M250 205q37 -13 57 -39.5t20 -61.5q0 -46 -36 -80t-104 -34t-104.5 34t-36.5 80q0 35 20 61.5t57 39.5q-62 25 -62 86q0 41 35 70t91 29t91 -29t35 -70q0 -61 -63 -86zM187 332q-24 0 -40.5 -14t-16.5 -35.5t16.5 -35.5t40 -14t40 14t16.5 35.5t-16 35.5t-40 14zM187 48
q29 0 49 18t20 44.5t-20.5 44t-48.5 17.5q-29 0 -49.5 -17.5t-20.5 -44.5q0 -26 20 -44t50 -18z" />
    <glyph glyph-name="nine.dnom" horiz-adv-x="373" 
d="M185 390q64 0 103 -36t40 -90q0 -51 -23 -93.5t-113 -170.5h-79l108 148q-12 -12 -54 -12q-51 0 -86 34.5t-35 90.5q0 54 39 91.5t100 37.5zM186.5 332q-29.5 0 -49.5 -20t-20 -49t20 -48.5t50 -19.5q28 0 49 19.5t21 48.5t-20.5 49t-50 20z" />
    <glyph glyph-name="zero.numr" horiz-adv-x="394" 
d="M197 250q-69 0 -110 55t-41 145t41 145t110 55t110 -55t41 -145t-41 -145t-110 -55zM196.5 309q39.5 0 60 39.5t20.5 101.5q0 63 -20.5 102t-60 39t-59.5 -39t-20 -102q0 -62 20 -101.5t59.5 -39.5z" />
    <glyph glyph-name="one.numr" horiz-adv-x="246" 
d="M137 640h64l-1 -380h-69v305l-86 -53l-29 52z" />
    <glyph glyph-name="two.numr" horiz-adv-x="368" 
d="M163 319h159v-59h-273v39l156 155q20 20 30 37t10 38q0 27 -16 44.5t-46 17.5q-16 0 -29.5 -5t-25.5 -17t-17 -18t-16 -21l-49 39q19 30 55.5 55.5t82.5 25.5q58 0 95 -32.5t37 -86.5q0 -58 -47 -105z" />
    <glyph glyph-name="three.numr" horiz-adv-x="371" 
d="M188 482q56 2 97 -28.5t40 -84.5q-1 -53 -41 -86t-109 -33q-42 0 -74 13.5t-65 41.5l39 49q13 -13 23 -21t31 -16t45 -8q36 0 57 15.5t23 41.5q3 42 -37 62q-35 17 -91 -4l-26 43l109 114h-150v59h250v-31z" />
    <glyph glyph-name="four.numr" horiz-adv-x="348" 
d="M333 396v-59h-45v-77h-68v77h-175l-19 52l149 251h74l-146 -244h117v98h68v-98h45z" />
    <glyph glyph-name="five.numr" horiz-adv-x="371" 
d="M200 499q57 0 91 -33t34 -89q0 -51 -39 -89t-104 -38q-88 0 -146 59l38 51q1 0 8.5 -8t10.5 -10.5t11.5 -9t15 -9.5t16 -7t20.5 -5.5t24 -1.5q36 0 55 21t19 47q0 28 -17 45.5t-44 17.5q-21 0 -37 -5.5t-21 -11.5l-5 -5l-66 27l37 195h200v-59h-148l-21 -104q27 22 68 22
z" />
    <glyph glyph-name="six.numr" horiz-adv-x="373" 
d="M189 250q-65 0 -104 36t-39 91q0 51 22.5 93t112.5 170h79l-108 -148q12 12 54 12q51 0 86.5 -34t35.5 -90q0 -55 -39 -92.5t-100 -37.5zM186.5 309q29.5 0 50 19.5t20.5 48.5t-20.5 49t-49.5 20t-49.5 -20t-20.5 -49t20 -48.5t49.5 -19.5z" />
    <glyph glyph-name="seven.numr" horiz-adv-x="337" 
d="M36 640h266v-39l-164 -341h-75l155 321h-182v59z" />
    <glyph glyph-name="eight.numr" horiz-adv-x="373" 
d="M250 465q37 -13 57 -39.5t20 -61.5q0 -46 -36 -80t-104 -34t-104.5 34t-36.5 80q0 35 20 61.5t57 39.5q-62 25 -62 86q0 41 35 70t91 29t91 -29t35 -70q0 -61 -63 -86zM187 592q-24 0 -40.5 -14t-16.5 -35.5t16.5 -35.5t40 -14t40 14t16.5 35.5t-16 35.5t-40 14zM187 308
q29 0 49 18t20 44.5t-20.5 44t-48.5 17.5q-29 0 -49.5 -17.5t-20.5 -44.5q0 -26 20 -44t50 -18z" />
    <glyph glyph-name="nine.numr" horiz-adv-x="373" 
d="M185 650q64 0 103 -36t40 -90q0 -51 -23 -93.5t-113 -170.5h-79l108 148q-12 -12 -54 -12q-51 0 -86 34.5t-35 90.5q0 54 39 91.5t100 37.5zM186.5 592q-29.5 0 -49.5 -20t-20 -49t20 -48.5t50 -19.5q28 0 49 19.5t21 48.5t-20.5 49t-50 20z" />
    <glyph glyph-name="registered.ss01" horiz-adv-x="778" 
d="M389 655q94 0 171 -45t119.5 -121t42.5 -167q0 -92 -42.5 -168t-119.5 -121t-171 -45q-96 0 -173 45t-118.5 121t-41.5 168q0 91 41.5 167t118.5 121t173 45zM389 34q124 0 204.5 84t80.5 204q0 119 -80 203t-205 84q-127 0 -206 -83.5t-79 -203.5q0 -121 78.5 -204.5
t206.5 -83.5zM516 407q0 -44 -30.5 -71t-73.5 -34l129 -176h-78l-124 174h-18v-174h-65v391h126q59 0 96.5 -31t37.5 -79zM321 460v-103h52q74 0 74 50q0 25 -20.5 39t-59.5 14h-46z" />
    <glyph glyph-name="uni03000304" horiz-adv-x="0" 
d="M-313 723v53h268v-53h-268zM-216 568l-74 79l80 14l125 -151h-34q-22 0 -42 10.5t-55 47.5z" />
    <glyph glyph-name="uni03010304" horiz-adv-x="0" 
d="M-348 723v53h267v-53h-267zM-159 568q-35 -37 -55 -47.5t-42 -10.5h-34l124 151l81 -14z" />
    <glyph glyph-name="uni03040300" horiz-adv-x="0" 
d="M-184 616h-43q-27 0 -50 23l-84 84l79 16zM-353 520v52h267v-52h-267z" />
    <glyph glyph-name="uni03040301" horiz-adv-x="0" 
d="M-273 616l99 123l78 -16l-84 -84q-22 -23 -50 -23h-43zM-353 520v52h267v-52h-267z" />
    <glyph glyph-name="uni0302.below" horiz-adv-x="0" 
d="M-193 -51l107 -117h-53q-16 0 -25.5 4.5t-21.5 17.5l-44 43l-43 -43q-13 -13 -22 -17.5t-26 -4.5h-53l108 117h73z" />
    <glyph glyph-name="uni0338.lowercase" horiz-adv-x="0" 
d="M-189 482l32 -28l-425 -470l-31 28z" />
    <glyph glyph-name="uni03060301" horiz-adv-x="0" 
d="M-273 623l98 123l79 -16l-85 -84q-22 -23 -50 -23h-42zM-227 512q-65 0 -102 32t-39 84h56q4 -27 25 -45t60 -18t60 18t25 45h56q-2 -52 -39 -84t-102 -32z" />
    <glyph glyph-name="uni03060300" horiz-adv-x="0" 
d="M-185 623h-42q-28 0 -50 23l-85 84l79 16zM-227 512q-65 0 -102 32t-39 84h56q4 -27 25 -45t60 -18t60 18t25 45h56q-2 -52 -39 -84t-102 -32z" />
    <glyph glyph-name="uni03060303" horiz-adv-x="0" 
d="M-315 664q-28 0 -58.5 21t-48.5 21q-31 0 -52 -37l-47 31q1 1 6 8.5l7 10.5t7.5 10t10 10.5t11.5 9t14 8t16 4.5t19 2q29 0 61.5 -21t50.5 -21q16 0 26 10t18 28l51 -27q-35 -68 -92 -68zM-373 512q-65 0 -102 32t-39 84h56q4 -27 25 -45t60 -18t60 18t25 45h56
q-2 -52 -39 -84t-102 -32z" />
    <glyph glyph-name="uni03020301" horiz-adv-x="0" 
d="M-26 700l79 -16l-84 -85q-23 -22 -51 -22h-42zM-265 634h73l107 -116h-53q-16 0 -25.5 4.5t-21.5 16.5l-44 43l-43 -43q-13 -12 -22 -16.5t-26 -4.5h-53z" />
    <glyph glyph-name="uni03020300" horiz-adv-x="0" 
d="M-439 700l99 -123h-43q-28 0 -50 22l-84 85zM-192 634l107 -116h-53q-16 0 -25.5 4.5t-21.5 16.5l-44 43l-43 -43q-13 -12 -22 -16.5t-26 -4.5h-53l108 116h73z" />
    <glyph glyph-name="uni03020303" horiz-adv-x="0" 
d="M-420 704q-31 0 -52 -37l-47 31q0 1 5 8.5t7.5 10.5t8 10t9.5 11t11.5 9t14 7.5t16 4.5t19.5 2q28 0 60.5 -21t51.5 -21q16 0 25.5 10t18.5 28l51 -26q-36 -69 -92 -69q-28 0 -58.5 21t-48.5 21zM-408 634h73l108 -116h-53q-17 0 -26.5 4.5t-21.5 16.5l-43 43l-44 -43
q-12 -12 -21.5 -16.5t-25.5 -4.5h-53z" />
    <glyph glyph-name="_o.part" horiz-adv-x="674" 
d="M337 -12q-104 0 -170.5 68.5t-66.5 168.5t66.5 168.5t170.5 68.5t170.5 -68.5t66.5 -168.5t-66.5 -168.5t-170.5 -68.5zM337 56q67 0 110.5 48.5t43.5 120.5t-43.5 120.5t-110.5 48.5t-110.5 -48.5t-43.5 -120.5t43.5 -120.5t110.5 -48.5z" />
    </font>
</defs>
</svg>
